<?xml version="1.0" encoding="utf-8"?>
<!-- Generator: Adobe Illustrator 16.0.0, SVG Export Plug-In . SVG Version: 6.00 Build 0)  -->
<!DOCTYPE svg PUBLIC "-//W3C//DTD SVG 1.1//EN" "http://www.w3.org/Graphics/SVG/1.1/DTD/svg11.dtd">
<svg version="1.1" id="Layer_1" xmlns="http://www.w3.org/2000/svg" xmlns:xlink="http://www.w3.org/1999/xlink" x="0px" y="0px"
	 width="180px" height="95px" viewBox="0 0 180 95" enable-background="new 0 0 180 95" xml:space="preserve">
<g>
	<g>
		<path fill="#4593F0" d="M-7.073,87.018c0-28.958,0.001-57.916-0.009-86.874c0-0.375,0.084-0.459,0.459-0.459
			c32.65,0.009,65.301,0.009,97.952,0.009c0.161,0.292-0.04,0.516-0.158,0.74c-1.16,2.215-2.12,4.512-2.849,6.905
			c-0.314,1.033-0.6,2.074-0.868,3.121c-0.148,0.846-0.334,1.685-0.468,2.533c-0.232,1.743-0.387,3.492-0.485,5.246
			c-0.042,0.727-0.07,1.459,0.035,2.185c0.054,0.365,0.036,0.729,0.009,1.092c0.082,0.804,0.199,1.604,0.218,2.413
			c0.359,2.656,0.927,5.266,1.751,7.819c0.779,2.414,1.833,4.704,3.041,6.931c1.152,2.127,2.531,4.094,4.048,5.976
			c2.353,2.919,5.097,5.413,8.169,7.546c3.298,2.29,6.855,4.067,10.695,5.266c2.687,0.839,5.42,1.435,8.231,1.705
			c2.022,0.194,4.05,0.25,6.069,0.148c2.995-0.147,5.942-0.632,8.83-1.466c2.791-0.805,5.47-1.875,8.031-3.243
			c2.666-1.422,5.121-3.144,7.409-5.115c3.252-2.803,5.94-6.073,8.136-9.752c1.401-2.347,2.578-4.803,3.431-7.406
			c0.119-0.363,0.266-0.715,0.383-1.078c0.227-0.838,0.447-1.677,0.713-2.502c0.413-1.844,0.711-3.707,0.94-5.583
			c0.039-0.833,0.085-1.664,0.179-2.492c0.097-2.424-0.111-4.833-0.422-7.233c-0.009-0.066-0.016-0.132-0.015-0.198
			c-0.129-0.829-0.283-1.653-0.44-2.477c-0.396-1.594-0.839-3.173-1.323-4.743c-0.11-0.478-0.474-0.878-0.428-1.404
			c0.102-0.248,0.244-0.469,0.435-0.66c0.645-0.648,1.286-1.3,1.939-1.939c0.46-0.449,0.656-0.443,1.131,0.007
			c0.062,0.058,0.119,0.116,0.179,0.176c5.314,5.317,10.628,10.634,15.947,15.944c0.298,0.297,0.564,0.605,0.719,1
			c0,14.205,0,28.41,0,42.613c-0.154,0.393-0.418,0.702-0.716,0.999c-3.422,3.406-6.829,6.829-10.252,10.234
			c-0.216,0.215-0.405,0.587-0.824,0.317c-0.171-0.222-0.201-0.488-0.258-0.746c-1.843-8.414-3.659-16.833-5.506-25.245
			c-0.391-1.786-0.788-3.571-1.156-5.362c-0.018-0.082-0.035-0.162-0.055-0.244c-0.213-0.9-0.299-0.967-1.207-0.971
			c-0.448-0.001-0.897-0.005-1.348,0.002c-0.719,0.013-0.886,0.171-0.89,0.886c-0.013,1.796-0.004,3.593-0.004,5.388
			c-0.002,0.283,0.006,0.566-0.018,0.848c-0.041,0.48-0.163,0.613-0.646,0.642c-0.749,0.043-1.497,0.005-2.245,0.021
			c-0.188,0.005-0.401-0.056-0.556,0.16c0.146,0.195,0.355,0.15,0.543,0.154c0.665,0.01,1.33-0.007,1.996,0.008
			c0.81,0.017,0.9,0.114,0.921,0.94c0.004,0.133,0.004,0.266,0.004,0.398c0,6.486,0.002,12.974,0,19.459
			c0,1.322-0.01,1.326-1.337,1.33c-0.499,0.003-0.998-0.004-1.497,0.005c-0.177,0.002-0.363-0.023-0.538,0.135
			c0.133,0.221,0.344,0.173,0.524,0.178c0.681,0.014,1.364-0.012,2.045,0.015c0.645,0.021,0.784,0.14,0.789,0.761
			c0.024,3.044,0.026,6.087-0.001,9.131c-0.005,0.597-0.147,0.728-0.752,0.743c-1.214,0.03-2.427,0.012-3.643,0.012
			c-3.575,0.002-7.15,0.001-10.726,0.001c-0.201,0-0.4-0.006-0.6,0.007c-0.537,0.028-0.714,0.193-0.724,0.737
			c-0.023,1.082-0.007,2.161-0.011,3.243c-0.001,0.249-0.002,0.5-0.022,0.748c-0.029,0.334-0.21,0.507-0.545,0.531
			c-0.217,0.017-0.433,0.021-0.649,0.021c-3.374,0.002-6.75,0.002-10.127,0c-0.083,0-0.166,0-0.248-0.002
			c-0.852-0.021-0.949-0.107-0.954-0.959c-0.015-2.046,0-4.092-0.01-6.138c0-0.218,0.063-0.464-0.152-0.667
			c-0.201,0.159-0.156,0.37-0.161,0.558c-0.012,0.565,0.014,1.131-0.018,1.696c-0.027,0.551-0.147,0.676-0.687,0.707
			c-0.465,0.029-0.932,0.029-1.396-0.001c-0.503-0.032-0.63-0.163-0.663-0.682c-0.031-0.532-0.007-1.064-0.017-1.597
			c-0.004-0.193,0.029-0.398-0.136-0.582c-0.226,0.138-0.172,0.352-0.179,0.536c-0.017,0.563,0.005,1.131-0.02,1.696
			c-0.018,0.402-0.206,0.612-0.613,0.628c-0.266,0.011-0.532,0.018-0.798,0.018c-27.407,0-54.816,0-82.224,0
			c-1.454-0.002-1.454-0.002-1.456-1.466c0-0.399,0.004-0.799-0.003-1.198c-0.003-0.174,0.021-0.363-0.142-0.504
			c-0.23,0.146-0.166,0.364-0.17,0.55c-0.016,0.633,0.013,1.266-0.02,1.896c-0.028,0.554-0.149,0.675-0.688,0.707
			c-0.465,0.025-0.932,0.028-1.396-0.002c-0.506-0.032-0.632-0.159-0.66-0.682c-0.035-0.598-0.005-1.197-0.02-1.796
			c-0.004-0.191,0.047-0.402-0.157-0.583c-0.211,0.179-0.154,0.421-0.156,0.637c-0.007,2.028,0.001,4.059-0.006,6.086
			c-0.003,1.082-0.059,1.142-1.125,1.142c-7.202,0.004-14.402,0.004-21.603-0.005c-0.318,0-0.671,0.088-0.939-0.195
			c-0.092-0.169-0.07-0.355-0.07-0.536c0-8.055-0.006-16.109,0.002-24.16c0.138-0.378,0.264-0.434,0.547-0.232
			c0.135,0.096,0.233,0.231,0.334,0.364c1.507,1.965,3.258,3.653,5.509,4.744c0.997,0.482,2.034,0.871,3.166,0.905
			c0.308,0.043,0.615,0.052,0.924,0c0.317-0.003,0.628-0.046,0.936-0.127c0.274-0.07,0.393-0.186,0.279-0.497
			c-0.231-0.633-0.137-0.784,0.443-1.098c0.714-0.389,1.406-0.818,2.104-1.237c1.192-0.715,2.406-1.397,3.607-2.098
			c1.674-0.978,3.335-1.975,5.017-2.938c0.467-0.268,0.468-0.361,0.205-0.858c-0.303-0.571-0.617-1.137-0.949-1.694
			c-0.267-0.449-0.377-0.436-0.844-0.221c-0.576,0.269-0.796,0.666-0.754,1.303c0.049,0.729,0.012,1.462,0.008,2.194
			c-0.001,0.403-0.156,0.674-0.514,0.891c-1.719,1.031-3.441,2.057-5.192,3.034c-0.881,0.492-1.736,1.033-2.604,1.552
			c-0.704,0.422-1.088,0.287-1.464-0.453c-0.383-0.752-0.813-1.48-1.216-2.223c-0.505-0.93-1.042-1.84-1.562-2.761
			c-1.074-1.902-2.141-3.812-3.213-5.716c-0.797-1.414-1.578-2.84-2.385-4.247c-0.832-1.45-1.597-2.94-2.479-4.362
			c-0.164-0.266-0.264-0.572-0.44-0.836c-0.278-0.422-0.368-0.426-0.691-0.054c-0.511,0.588-0.936,1.208-1.235,1.955
			c-0.444,1.108-0.608,2.248-0.694,3.416c-0.057,0.301,0,0.6,0.02,0.898c-0.005,0.595,0.087,1.177,0.217,1.755
			c0.028,0.216,0.03,0.437,0.097,0.647c0.019,0.047,0.027,0.095,0.034,0.144c0.025,0.169,0.045,0.34,0.079,0.508
			c0.367,1.324,0.836,2.606,1.406,3.863c0.483,1.066,0.443,1.044-0.379,1.884c-0.761,0.775-1.487,1.586-2.284,2.328
			c-0.395,0.369-0.55,0.87-0.548,1.443c0.016,4.037,0.008,8.074,0.008,12.11c0,1.53-0.002,1.53-1.076,2.595
			c-2.32,2.302-4.626,4.616-6.928,6.936c-0.394,0.396-0.79,0.799-1.308,1.047c-0.513,0.06-1.028,0.035-1.542,0.035
			c-2.804,0.002-5.609,0.006-8.413-0.004C-6.468,87.253-6.822,87.321-7.073,87.018z"/>
		<path fill="#FEFEFE" d="M17.777,87.001c0.166,0.005,0.332,0.016,0.499,0.016c7.417,0.001,14.833-0.005,22.251,0.016
			c0.521,0,0.621-0.148,0.615-0.635c-0.026-2.262-0.012-4.523-0.012-6.784c0-0.116,0.001-0.233,0.001-0.35
			c-0.001-0.263,0.129-0.487,0.375-0.498c0.28-0.013,0.42,0.215,0.421,0.499c0.002,0.849,0.014,1.696-0.004,2.545
			c-0.008,0.319,0.076,0.442,0.413,0.424c0.498-0.024,0.999-0.022,1.496-0.001c0.3,0.014,0.407-0.071,0.399-0.388
			c-0.021-0.815-0.003-1.63-0.008-2.445c-0.002-0.324-0.004-0.717,0.391-0.728c0.403-0.01,0.413,0.379,0.411,0.706
			c-0.005,0.813,0.013,1.629-0.009,2.444c-0.01,0.337,0.11,0.448,0.427,0.407c0.098-0.013,0.2-0.002,0.299-0.002
			c27.739,0,55.478,0,83.215,0c0.693,0,0.693,0,0.693-0.68c0-0.616,0.005-1.231-0.003-1.847c-0.002-0.324-0.004-0.726,0.389-0.729
			c0.443-0.005,0.414,0.42,0.413,0.752c-0.001,0.699,0.017,1.398-0.008,2.096c-0.012,0.335,0.106,0.429,0.425,0.414
			c0.499-0.022,0.998-0.024,1.496,0c0.318,0.017,0.394-0.104,0.388-0.4c-0.02-0.78-0.003-1.563-0.009-2.345
			c-0.004-0.307,0.066-0.619,0.401-0.619c0.334,0,0.401,0.314,0.401,0.62c-0.004,2.344,0.006,4.689-0.011,7.033
			c-0.003,0.379,0.081,0.508,0.489,0.505c3.707-0.017,7.416-0.015,11.124-0.003c0.36,0.003,0.486-0.073,0.479-0.461
			c-0.025-1.363-0.013-2.729-0.009-4.091c0.001-0.663,0.085-0.744,0.738-0.744c5.057,0,10.112-0.007,15.167,0.01
			c0.462,0.003,0.574-0.123,0.569-0.574c-0.02-3.043-0.018-6.087-0.001-9.13c0.003-0.396-0.108-0.507-0.499-0.494
			c-0.88,0.027-1.762,0.005-2.644,0.011c-0.306,0.002-0.621-0.063-0.624-0.396c-0.004-0.334,0.309-0.408,0.615-0.406
			c0.899,0.007,1.797-0.011,2.694,0.011c0.334,0.006,0.456-0.068,0.456-0.435c-0.011-6.934-0.011-13.868,0-20.804
			c0-0.363-0.122-0.438-0.457-0.432c-0.931,0.021-1.862,0.003-2.793,0.009c-0.308,0.002-0.62-0.072-0.616-0.405
			c0.005-0.334,0.319-0.399,0.625-0.397c0.932,0.007,1.863-0.014,2.795,0.01c0.347,0.008,0.448-0.091,0.446-0.444
			c-0.017-2.194-0.009-4.39-0.008-6.586c0.001-0.634,0.124-0.761,0.742-0.762c0.849-0.002,1.696,0.012,2.545-0.007
			c0.284-0.006,0.383,0.077,0.442,0.361c0.44,2.075,0.904,4.146,1.361,6.216c0.33,1.497,0.667,2.994,0.994,4.492
			c0.504,2.294,0.996,4.592,1.5,6.888c0.825,3.761,1.667,7.52,2.479,11.282c0.26,1.208,0.467,2.425,0.81,3.612
			c0.333,0.178,0.318,0.53,0.381,0.82c0.45,2.077,0.904,4.151,1.355,6.228c0.412,1.881,0.819,3.762,1.229,5.643
			c0.137,0.632,0.262,0.731,0.914,0.731c2.292,0.009,4.584,0,6.874,0.008c0.292,0.001,0.607-0.045,0.825,0.233
			c0,2.66-0.004,5.321,0.006,7.981c0.003,0.244-0.049,0.352-0.303,0.304c-0.064-0.012-0.134-0.002-0.2-0.002
			c-63.538,0-127.078-0.001-190.617,0.012c-0.428,0-0.512-0.095-0.509-0.513c0.022-2.594,0.011-5.188,0.011-7.782
			c3.659-0.005,7.316-0.01,10.974-0.016c0.394-0.162,0.803-0.247,1.231-0.24c0.191,0.07,0.387,0.037,0.585,0.034
			c2.367-0.02,4.732-0.051,7.098,0.014c0.249,0,0.5-0.02,0.75,0.009c0.063,0,0.125-0.002,0.186-0.004
			c1.056-0.06,2.112-0.056,3.168-0.003c0.24,0.011,0.488-0.045,0.712,0.084C17.682,86.927,17.73,86.963,17.777,87.001z"/>
		<path fill="#7CADF7" d="M87.244,10.369c0.838-3.562,2.07-6.977,3.801-10.206c0.087-0.16,0.188-0.311,0.283-0.466
			c23.585,0,47.173,0,70.757,0c0.244,0.154,0.408,0.371,0.535,0.632c0.397,0.819,0.831,1.619,1.206,2.447
			c0.126,0.281,0.35,0.611-0.051,0.882c-0.292,0.087-0.596,0.068-0.894,0.068c-7.166,0.003-14.334,0.002-21.5,0.001
			c-0.166,0-0.341,0.028-0.498-0.019c-0.365-0.11-0.683-0.021-0.983,0.182c-0.081,0.029-0.163,0.053-0.242,0.09
			c-0.359,0.012-0.628,0.181-0.802,0.491c-0.086,0.148-0.201,0.264-0.318,0.381c-1.666,1.667-3.328,3.34-5.005,4.996
			c-0.308,0.304-0.6,0.679-1.105,0.683c-0.329,0.067-0.659,0.082-0.993,0.082c-14.373,0-28.745,0.001-43.117-0.007
			C87.951,10.606,87.541,10.72,87.244,10.369z"/>
		<path fill="#4593F0" d="M184.538,87.018c-2.727,0-5.453-0.006-8.181,0.007c-0.327,0.003-0.488-0.06-0.562-0.41
			c-0.433-2.061-0.889-4.114-1.338-6.171c-0.375-1.723-0.758-3.443-1.126-5.167c-0.135-0.638-0.333-1.265-0.376-1.922
			c0.107-0.126,0.206-0.26,0.324-0.377c3.626-3.628,7.254-7.256,10.884-10.885c0.116-0.116,0.25-0.218,0.374-0.326
			C184.538,70.186,184.538,78.602,184.538,87.018z"/>
		<path fill="#4593F0" d="M163.872,3.482c-0.597-1.263-1.191-2.526-1.788-3.789c7.352,0,14.703,0.004,22.056-0.009
			c0.342-0.001,0.409,0.067,0.409,0.409c-0.014,6.354-0.011,12.708-0.011,19.062c-0.172-0.156-0.351-0.305-0.516-0.467
			c-5.478-5.476-10.954-10.954-16.432-16.431c-0.467-0.466-0.469-0.469-0.948,0.016c-0.758,0.77-1.511,1.543-2.266,2.315
			C163.918,4.47,163.708,4.012,163.872,3.482z"/>
		<path fill="#7BADF7" d="M165.167,31.334c-0.698,2.383-1.675,4.647-2.844,6.838c-1.029,1.924-2.175,3.767-3.511,5.489
			c-0.833,1.073-1.721,2.102-2.629,3.115c-2.019,2.252-4.342,4.146-6.813,5.853c-2.73,1.883-5.678,3.385-8.8,4.514
			c-2.504,0.906-5.064,1.607-7.702,1.994c-1.589,0.232-3.186,0.422-4.798,0.434c-0.842,0.005-1.684,0.03-2.528,0.012
			c-3.182-0.079-6.306-0.524-9.378-1.361c-2.894-0.789-5.682-1.854-8.329-3.268c-2.542-1.355-4.947-2.908-7.122-4.806
			c-0.886-0.774-1.81-1.515-2.632-2.353c-1.568-1.599-3.023-3.304-4.319-5.133c-2.296-3.246-4.111-6.746-5.369-10.521
			c-0.836-2.507-1.485-5.063-1.767-7.7c-0.014-0.131-0.053-0.26-0.082-0.39c0.128-0.186,0.321-0.22,0.526-0.231
			c0.283-0.016,0.565-0.013,0.849-0.013c14.419,0,28.84,0,43.26,0c0.417,0,0.832-0.011,1.24,0.08
			c0.453-0.022,0.728,0.307,0.998,0.574c1.708,1.678,3.395,3.378,5.084,5.073c0.232,0.233,0.407,0.52,0.678,0.721
			c0.062,0.067,0.106,0.142,0.139,0.226c0.217,0.532,0.562,0.776,1.115,0.689c0.599-0.094,1.192-0.074,1.789-0.075
			c7.294-0.002,14.587-0.004,21.881,0.005C164.463,31.099,164.878,30.963,165.167,31.334z"/>
		<path fill="#7CADF7" d="M164.785,5.978c0.586,1.406,0.896,2.894,1.283,4.359c0.03,0.111,0.065,0.222,0.099,0.331
			c-0.116,0.165-0.284,0.215-0.476,0.229c-0.25,0.016-0.499,0.016-0.749,0.016c-5.636,0.001-11.272-0.001-16.911,0.003
			c-0.4,0-0.795-0.045-1.191-0.068c-0.146,0.033-0.3,0.051-0.44,0.003c-0.636-0.216-1.031,0.095-1.456,0.533
			c-1.253,1.291-2.472,2.62-3.843,3.793c-0.124,0.106-0.236,0.234-0.301,0.389c-0.127,0.156-0.302,0.272-0.364,0.477
			c-0.03,0.088-0.079,0.164-0.137,0.235c-0.204,0.552-0.108,0.868,0.368,1.31c1.528,1.419,3.014,2.88,4.41,4.429
			c0.091,0.101,0.218,0.149,0.315,0.241c0.09,0.145,0.248,0.217,0.358,0.34c0.247,0.417,0.642,0.512,1.075,0.459
			c0.398-0.048,0.796-0.047,1.192-0.047c5.942-0.001,11.886-0.004,17.827,0.004c0.351,0,0.744-0.104,1.022,0.238
			c-0.174,1.321-0.322,2.646-0.599,3.951c-0.115,0.546-0.188,1.106-0.399,1.628c-0.129,0.186-0.322,0.22-0.526,0.231
			c-0.266,0.015-0.532,0.013-0.798,0.013c-7.402,0-14.803,0-22.204-0.001c-0.365,0-0.733,0.022-1.091-0.066
			c-0.431,0.015-0.7-0.299-0.958-0.553c-1.955-1.916-3.882-3.859-5.81-5.801c-0.232-0.233-0.422-0.512-0.649-0.75
			c-0.299-0.31-0.654-0.442-1.077-0.258c-0.097,0.055-0.198,0.088-0.31,0.099c-0.121,0.027-0.24,0.007-0.361-0.012
			c-0.813,0.082-1.625,0.055-2.438,0.055c-13.926,0.001-27.851,0-41.776,0c-0.332,0-0.666,0.004-0.998-0.013
			c-0.204-0.01-0.397-0.047-0.525-0.231c0.006-0.896-0.162-1.784-0.111-2.684c0.105-1.835,0.189-3.673,0.475-5.492
			c0.025-0.163,0.022-0.331,0.033-0.497c0.231-0.19,0.5-0.246,0.792-0.242c0.249,0.003,0.499-0.002,0.748-0.002
			c14.337,0,28.673,0,43.009-0.001c0.776,0,1.55,0.083,2.33,0.005c0.566-0.056,0.783-0.172,0.952-0.743
			c0.127-0.372,0.422-0.631,0.682-0.896c1.51-1.543,3.038-3.069,4.58-4.581c0.271-0.266,0.543-0.598,0.995-0.589
			c0.33-0.064,0.658-0.083,0.993-0.083c7.293,0.001,14.586-0.001,21.881,0.005C164.072,5.748,164.477,5.651,164.785,5.978z"/>
		<path fill="#7CADF7" d="M5.109,87.006c-0.402-0.001-0.805-0.003-1.208-0.005c1.087-1.006,2.104-2.085,3.146-3.139
			c0.928-0.938,1.905-1.828,2.81-2.788c0.754-0.799,1.612-1.499,2.278-2.382c0.038-0.051,0.088-0.104,0.145-0.129
			c0.504-0.22,0.612-0.636,0.612-1.138c-0.008-4.354,0.005-8.709-0.015-13.063c-0.002-0.66,0.26-1.188,0.717-1.561
			c0.516-0.42,0.933-0.926,1.384-1.393c0.426-0.443,0.909-0.837,1.279-1.339c0.108-0.147,0.152-0.223,0.093-0.421
			c-0.301-0.997-0.869-1.885-1.17-2.878c-0.18-0.596-0.338-1.197-0.507-1.797c-0.099-0.152,0.023-0.344-0.088-0.493l0.001,0.002
			c-0.138-0.221,0.029-0.484-0.101-0.705c-0.136-0.59-0.27-1.183-0.211-1.797c-0.115-0.324,0.04-0.673-0.088-0.997
			c-0.018-0.846,0.22-1.666,0.405-2.469c0.296-1.278,0.969-2.404,1.921-3.334c0.222-0.216,0.429-0.223,0.598,0.085
			c0.553,1.017,1.105,2.032,1.672,3.039c0.615,1.093,1.254,2.172,1.871,3.263c0.773,1.37,1.53,2.751,2.299,4.124
			c0.76,1.353,1.533,2.7,2.289,4.055c0.787,1.408,1.544,2.834,2.35,4.231c0.387,0.674,0.761,1.353,1.118,2.044
			c0.222,0.433,0.451,0.459,0.952,0.164c1.256-0.736,2.513-1.474,3.769-2.214c1.354-0.799,2.698-1.614,4.064-2.391
			c0.348-0.198,0.448-0.439,0.443-0.803c-0.013-0.882,0.007-1.764-0.009-2.644c-0.007-0.323,0.111-0.533,0.39-0.684
			c0.263-0.139,0.511-0.31,0.774-0.453c0.316-0.17,0.564-0.105,0.748,0.223c0.419,0.752,0.847,1.499,1.278,2.244
			c0.179,0.311,0.104,0.535-0.191,0.709c-0.699,0.413-1.375,0.866-2.1,1.23c-0.712,0.359-1.357,0.821-2.054,1.203
			c-1.451,0.795-2.881,1.628-4.301,2.477c-0.955,0.569-1.895,1.162-2.875,1.685c-0.222,0.118-0.259,0.282-0.138,0.496
			c0.089,0.158,0.157,0.332,0.256,0.484c0.165,0.252,0.069,0.358-0.192,0.403c-0.457,0.081-0.9,0.245-1.374,0.21
			c-0.328,0.066-0.656,0.066-0.984,0c-1.617-0.065-3.041-0.696-4.379-1.536c-1.779-1.118-3.265-2.56-4.508-4.252
			c-0.129-0.176-0.217-0.42-0.502-0.413c-0.092,0.19-0.045,0.393-0.045,0.59c-0.002,7.887-0.001,15.772-0.004,23.66
			c0,0.198,0.043,0.399-0.043,0.591c-0.237,0-0.474,0-0.71,0c-0.258-0.185-0.226-0.466-0.226-0.728
			c-0.009-2.987-0.002-5.976-0.004-8.964c0-0.382,0.013-0.765-0.008-1.145c-0.01-0.187-0.086-0.389-0.295-0.189
			c-0.848,0.815-1.717,1.611-2.448,2.541c-0.029,0.036-0.036,0.091-0.05,0.139c-0.164,0.834-0.221,1.671-0.212,2.521
			c0.02,1.721,0.008,3.444,0.003,5.167c-0.001,0.226,0.052,0.469-0.142,0.656c-0.237,0-0.474,0-0.71,0
			c-0.278-0.199-0.222-0.499-0.223-0.775c-0.007-1.825-0.003-3.652-0.003-5.479c0-0.133,0.005-0.267-0.002-0.397
			c-0.007-0.128,0.048-0.297-0.089-0.363c-0.148-0.07-0.233,0.089-0.323,0.177c-0.473,0.467-0.941,0.938-1.41,1.407
			c-1.583,1.586-3.172,3.167-4.751,4.759C5.792,86.616,5.494,86.87,5.109,87.006z"/>
		<path fill="#7CADF7" d="M166.566,13.171c0.193,0.673,0.229,1.374,0.291,2.062c0.169,1.833,0.277,3.671,0.208,5.513
			c-0.319,0.277-0.709,0.243-1.087,0.244c-3.784,0.002-7.567,0-11.351,0.001c-2.09,0-4.181,0-6.272,0
			c-0.316,0-0.632,0.005-0.939-0.069c-0.431,0.004-0.692-0.315-0.954-0.566c-1.079-1.035-2.132-2.099-3.179-3.167
			c-0.423-0.432-0.427-0.73-0.001-1.151c0.97-0.954,1.863-1.987,2.93-2.843c0.154-0.122,0.305-0.192,0.499-0.185
			c0.312-0.055,0.624-0.083,0.941-0.083c5.965,0.001,11.929-0.001,17.893,0.006C165.894,12.935,166.287,12.832,166.566,13.171z"/>
		<path fill="#69A4F5" d="M86.347,21.546c15.3,0,30.6-0.001,45.899-0.001c0.179,0.354-0.189,0.548-0.242,0.834
			c-0.053,0.144-0.057,0.289-0.005,0.434c0.068,0.262,0.238,0.456,0.423,0.642c0.146,0.147,0.319,0.29,0.26,0.54
			c-0.013,0.019-0.025,0.037-0.041,0.055c-15.365,0-30.73,0.001-46.097,0.001C86.479,23.215,86.412,22.38,86.347,21.546z"/>
		<path fill="#69A4F5" d="M134.842,11.771c-0.305,0.873-0.647,1.1-1.651,1.1c-15.332-0.001-30.666-0.002-45.998-0.004
			c-0.15,0-0.299,0.004-0.448,0.005c0.167-0.835,0.333-1.669,0.5-2.505c12.406,0.001,24.813,0.003,37.217,0.004
			c2.728,0,5.455-0.002,8.182-0.003c0.014,0.019,0.027,0.036,0.042,0.053c0.063,0.382-0.362,0.551-0.391,0.893
			c-0.045,0.145-0.043,0.287,0.015,0.429c0.45,0.91,1.103,1.023,1.856,0.327c0.177-0.164,0.319-0.404,0.622-0.342
			C134.805,11.744,134.824,11.758,134.842,11.771z"/>
		<path fill="#69A4F5" d="M141.028,28.833c8.28,0,16.561-0.001,24.84-0.001c-0.185,0.849-0.396,1.689-0.699,2.503
			c-8.239-0.001-16.479-0.002-24.72-0.004c-0.817,0-1.165-0.222-1.429-0.896c0.341-0.192,0.492,0.191,0.754,0.245
			c0.204,0.081,0.408,0.085,0.614,0c0.339-0.119,0.565-0.348,0.686-0.686c0.066-0.171,0.067-0.343,0.004-0.515
			c-0.065-0.194-0.202-0.376-0.1-0.597C140.995,28.866,141.012,28.849,141.028,28.833z"/>
		<path fill="#69A4F5" d="M164.785,5.978c-8.051,0.002-16.104,0.004-24.155,0.007c-0.015-0.018-0.027-0.035-0.042-0.052
			c-0.065-0.327,0.227-0.521,0.292-0.798c0.051-0.151,0.047-0.3-0.018-0.446c-0.137-0.415-0.427-0.655-0.844-0.757
			c-0.158-0.038-0.336-0.048-0.397-0.245c0.348-0.199,0.729-0.199,1.112-0.2c7.714,0,15.425-0.001,23.137-0.003
			c0.191,0.359,0.248,0.777,0.507,1.106C164.406,5.082,164.748,5.485,164.785,5.978z"/>
		<path fill="#69A4F5" d="M147.216,20.749c6.617,0,13.234-0.001,19.85-0.001c-0.133,0.829-0.135,1.669-0.199,2.505
			c-6.705-0.001-13.413-0.005-20.116,0c-0.553,0-1.015-0.132-1.34-0.603c0.242-0.245,0.463-0.012,0.689,0.028
			c0.162,0.067,0.326,0.076,0.491,0.008c0.694-0.344,0.856-0.709,0.617-1.419c-0.052-0.155-0.131-0.303-0.044-0.469
			C147.182,20.78,147.199,20.765,147.216,20.749z"/>
		<path fill="#69A4F5" d="M166.566,13.171c-6.683,0-13.366-0.001-20.049-0.001c-0.015-0.019-0.027-0.039-0.042-0.056
			c-0.048-0.167,0.032-0.29,0.134-0.407c0.494-0.571,0.553-1.151,0.034-1.743c-0.058-0.066-0.073-0.147-0.063-0.233
			c0.013-0.02,0.023-0.042,0.037-0.062c6.515,0,13.032-0.001,19.549-0.001C166.313,11.5,166.521,12.323,166.566,13.171z"/>
		<path fill="#4F86E6" d="M17.682,87.001c-0.001-8.119-0.003-16.24-0.004-24.361c0-0.164-0.018-0.333,0.096-0.478
			c0.001,8.281,0.001,16.56,0.002,24.839l-0.047,0.011L17.682,87.001z"/>
		<path fill="#4492EF" d="M27.165,68.366c0.328,0,0.656,0,0.984,0C27.821,68.499,27.493,68.499,27.165,68.366z"/>
		<path fill="#4492EF" d="M14.185,50.984c0.179,0.319,0.069,0.663,0.088,0.997C14.109,51.661,14.213,51.317,14.185,50.984z"/>
		<path fill="#4492EF" d="M14.484,53.778c0.158,0.219,0.075,0.468,0.101,0.705C14.429,54.266,14.499,54.017,14.484,53.778z"/>
		<path fill="#4492EF" d="M14.584,54.481c0.127,0.148,0.091,0.324,0.088,0.495C14.563,54.824,14.586,54.652,14.584,54.481z"/>
		<path fill="#4593F0" d="M162.882,61.471c0-6.52,0.008-13.038-0.014-19.558c-0.003-0.522,0.147-0.665,0.636-0.611
			c0.344,0.038,0.703,0.045,1.044-0.001c0.473-0.065,0.631,0.16,0.717,0.575c0.732,3.466,1.467,6.93,2.217,10.389
			c0.54,2.489,1.117,4.968,1.658,7.454c0.62,2.854,1.215,5.716,1.83,8.57c0.434,2.011,0.884,4.015,1.329,6.023
			c0.517,2.341,1.037,4.682,1.551,7.025c0.054,0.245,0.004,0.396-0.318,0.396c-3.44-0.009-6.884-0.012-10.327,0.001
			c-0.387,0.001-0.32-0.234-0.32-0.459c-0.002-2.146-0.002-4.289-0.002-6.436C162.882,70.384,162.882,65.927,162.882,61.471z"/>
		<path fill="#4593F0" d="M154.3,82.526c2.429,0,4.857,0.008,7.285-0.008c0.37-0.002,0.521,0.066,0.51,0.482
			c-0.029,1.18-0.022,2.361-0.004,3.543c0.008,0.355-0.065,0.483-0.457,0.482c-4.923-0.015-9.846-0.013-14.768-0.004
			c-0.332,0.001-0.467-0.063-0.459-0.431c0.022-1.214,0.022-2.427,0-3.641c-0.008-0.369,0.127-0.433,0.459-0.431
			C149.344,82.532,151.821,82.526,154.3,82.526z"/>
		<path fill="#4593F0" d="M168.97,87.018c-1.862,0-3.726-0.01-5.586,0.007c-0.371,0.004-0.522-0.065-0.511-0.48
			c0.03-1.198,0.019-2.396,0.004-3.591c-0.003-0.31,0.062-0.435,0.406-0.433c3.477,0.013,6.951,0.01,10.426,0.002
			c0.306,0,0.407,0.094,0.467,0.416c0.234,1.233,0.494,2.464,0.808,3.681c0.105,0.403-0.026,0.403-0.327,0.402
			C172.76,87.015,170.865,87.018,168.97,87.018z"/>
		<path fill="#4593F0" d="M13.682,78.429c0.92-0.95,1.835-1.904,2.765-2.847c0.105-0.106,0.234-0.297,0.409-0.229
			c0.187,0.073,0.119,0.289,0.119,0.447c0.001,3.734-0.001,7.468-0.003,11.2c-1.096,0-2.192,0-3.288,0
			c-0.073-0.105-0.049-0.225-0.049-0.337c-0.001-2.632-0.001-5.265,0-7.896C13.636,78.653,13.613,78.535,13.682,78.429z"/>
		<path fill="#4593F0" d="M5.109,87.006c1.198-1.217,2.393-2.437,3.595-3.649c1.204-1.213,2.414-2.419,3.626-3.622
			c0.124-0.123,0.236-0.354,0.427-0.29c0.207,0.069,0.125,0.317,0.125,0.489c0.002,2.356-0.001,4.714-0.002,7.069
			C10.289,87.003,7.699,87.005,5.109,87.006z"/>
		<path fill="#5084E5" d="M13.682,78.429c0.001,2.858,0.001,5.716,0.002,8.572l-0.047,0.012l-0.047-0.01
			c-0.001-2.698-0.004-5.397-0.004-8.097C13.586,78.74,13.569,78.57,13.682,78.429z"/>
		<path fill="#69A4F5" d="M140.63,5.985c-1.231,1.107-2.357,2.321-3.533,3.482c-0.763,0.756-1.503,1.535-2.253,2.305l-0.004-0.002
			c-0.172-0.073-0.217-0.238-0.279-0.392c-0.207-0.523-0.6-0.755-1.156-0.774c-0.266-0.008-0.578,0.08-0.761-0.23l-0.002-0.003
			c0.952-0.833,1.806-1.766,2.705-2.654c1.194-1.179,2.376-2.373,3.563-3.56c0.177-0.176,0.336-0.378,0.617-0.38
			c0.194,0.289-0.074,0.49-0.135,0.73c-0.06,0.152-0.062,0.304,0.002,0.456c0.149,0.423,0.451,0.677,0.88,0.781
			c0.151,0.037,0.278,0.095,0.353,0.238L140.63,5.985z"/>
		<path fill="#6EA6F5" d="M140.627,5.982c-0.717,0.067-1.164-0.313-1.49-0.895c-0.087-0.234-0.087-0.469,0-0.703
			c0.131-0.202,0.262-0.404,0.391-0.606c0.032-0.03,0.064-0.061,0.096-0.091c0.716-0.062,1.193,0.27,1.497,0.897
			c0.09,0.234,0.09,0.468,0,0.703C140.956,5.518,140.792,5.75,140.627,5.982z"/>
		<path fill="#69A4F5" d="M132.739,21.445c0.541-0.202,0.922,0.079,1.271,0.427c2.133,2.129,4.263,4.263,6.396,6.392
			c0.199,0.199,0.413,0.38,0.621,0.569l-0.002,0.003c-0.12,0.24-0.352,0.229-0.563,0.227c-0.687-0.007-1.139,0.29-1.307,0.976
			c-0.03,0.132-0.078,0.255-0.227,0.301c-0.791-0.917-1.682-1.737-2.538-2.591c-1.247-1.239-2.448-2.521-3.75-3.701l0.002-0.004
			c0.073-0.146,0.203-0.208,0.349-0.257c0.386-0.128,0.651-0.384,0.791-0.768c0.057-0.148,0.06-0.298-0.002-0.447
			c-0.129-0.4-0.434-0.627-0.791-0.802C132.862,21.697,132.772,21.593,132.739,21.445z"/>
		<path fill="#6EA6F5" d="M138.93,30.34c0.022-1.025,0.496-1.499,1.508-1.503c0.196,0,0.393,0,0.589,0
			c0.098,0.165,0.195,0.331,0.293,0.496c0.091,0.267,0.091,0.534,0,0.802c-0.188,0.34-0.451,0.603-0.79,0.791
			c-0.299,0.088-0.601,0.088-0.902,0c-0.202-0.164-0.405-0.327-0.606-0.491C138.991,30.403,138.96,30.371,138.93,30.34z"/>
		<path fill="#69A4F5" d="M146.518,13.17c-1.116,0.994-2.123,2.101-3.194,3.14c-0.209,0.202-0.218,0.388-0.007,0.594
			c1.307,1.275,2.548,2.616,3.899,3.845l-0.002,0.003c-0.11,0.218-0.315,0.211-0.515,0.229c-0.811,0.076-1.038,0.26-1.251,1.029
			c-0.041,0.146-0.063,0.296-0.236,0.349c-1.577-1.567-3.162-3.128-4.727-4.707c-0.406-0.409-0.614-0.907-0.363-1.494
			c0.193,0.085,0.272,0.261,0.346,0.439c0.242,0.815,1.139,1.088,1.902,0.336c0.218-0.216,0.246-0.404,0.021-0.634
			c-0.283-0.285-0.578-0.543-0.967-0.673c-0.162-0.076-0.328-0.04-0.495-0.014c-0.129-0.001-0.243-0.032-0.312-0.152
			c1.48-1.489,2.948-2.99,4.446-4.46c0.421-0.412,0.96-0.574,1.554-0.33l-0.002,0.003c-0.075,0.144-0.204,0.201-0.355,0.238
			c-0.433,0.103-0.729,0.366-0.882,0.787c-0.057,0.151-0.058,0.301,0.005,0.45c0.135,0.388,0.405,0.634,0.786,0.761
			c0.146,0.049,0.275,0.111,0.347,0.256L146.518,13.17z"/>
		<path fill="#6EA6F5" d="M140.617,15.46c0.11,0.001,0.218-0.015,0.308-0.09c0.199-0.089,0.402-0.089,0.603,0
			c0.489,0.23,0.872,0.593,1.233,0.983c0.087,0.092,0.209,0.166,0.156,0.333c-0.262,0.82-1.642,1.21-2.269,0.628
			c-0.165-0.154-0.279-0.366-0.416-0.552c-0.094-0.271-0.083-0.542-0.005-0.815C140.271,15.717,140.443,15.588,140.617,15.46z"/>
		<path fill="#6EA6F5" d="M133.145,21.557c0.383,0.21,0.68,0.506,0.89,0.889c0.088,0.234,0.088,0.469,0,0.703
			c-0.312,0.535-0.707,0.939-1.392,0.895c-0.261-0.392-0.704-0.64-0.892-1.095c-0.089-0.234-0.089-0.468,0-0.703
			c0.165-0.234,0.329-0.468,0.493-0.702c0.067-0.031,0.136-0.062,0.203-0.091C132.666,21.583,132.929,21.412,133.145,21.557z"/>
		<path fill="#6EA6F5" d="M145.212,22.36c0.031-1.283,0.433-1.605,2.002-1.607c0.15,0.357,0.401,0.676,0.348,1.109
			c-0.065,0.542-0.423,0.829-0.845,1.08c-0.234,0.088-0.469,0.088-0.702,0c-0.202-0.097-0.403-0.195-0.604-0.292
			C145.302,22.582,145.235,22.485,145.212,22.36z"/>
		<path fill="#4D97F1" d="M140.23,15.948c0,0.271,0.002,0.543,0.004,0.814c-0.149-0.18-0.089-0.4-0.111-0.604
			C140.157,16.088,140.195,16.018,140.23,15.948z"/>
		<path fill="#4D97F1" d="M133.145,21.557c-0.232-0.031-0.482,0.051-0.696-0.105c0.098-0.003,0.194-0.005,0.291-0.008
			C132.883,21.454,133.03,21.447,133.145,21.557z"/>
		<path fill="#4593F0" d="M13.595,70.366c0-1.946,0.005-3.89-0.004-5.834c-0.001-0.451,0.037-0.8,0.452-1.153
			c0.878-0.747,1.648-1.62,2.467-2.438c0.101-0.101,0.172-0.315,0.333-0.255c0.213,0.081,0.129,0.318,0.129,0.49
			c0.005,2.044,0.003,4.09,0.003,6.134c0,1.829-0.05,3.659,0.022,5.484c0.034,0.853-0.244,1.441-0.855,1.985
			c-0.717,0.639-1.373,1.346-2.054,2.023c-0.104,0.104-0.183,0.289-0.351,0.232c-0.2-0.068-0.138-0.28-0.14-0.436
			C13.593,74.521,13.595,72.445,13.595,70.366z"/>
		<path fill="#4D97F1" d="M131.752,22.246c0,0.234,0,0.468,0,0.703C131.603,22.716,131.603,22.48,131.752,22.246z"/>
		<path fill="#6EA6F5" d="M132.644,10.373c0.25,0,0.499-0.001,0.747,0.001c0.921,0.007,1.406,0.476,1.448,1.396
			c-0.195,0.178-0.392,0.351-0.582,0.531c-0.738,0.708-1.536,0.604-2.087-0.272c-0.033-0.056-0.078-0.104-0.119-0.156
			c-0.088-0.234-0.088-0.469,0-0.703C132.176,10.85,132.458,10.646,132.644,10.373z"/>
		<path fill="#4D97F1" d="M132.051,11.169c0,0.234,0,0.468,0,0.703C131.901,11.638,131.901,11.403,132.051,11.169z"/>
		<path fill="#4D97F1" d="M139.627,30.924c0.3,0,0.602,0,0.902,0C140.23,31.083,139.929,31.083,139.627,30.924z"/>
		<path fill="#4D97F1" d="M141.319,30.134c0-0.267,0-0.534,0-0.802C141.474,29.6,141.474,29.867,141.319,30.134z"/>
		<path fill="#4D97F1" d="M141.12,5.286c0-0.234,0-0.468,0-0.703C141.268,4.816,141.268,5.051,141.12,5.286z"/>
		<path fill="#4D97F1" d="M146.015,22.941c0.233,0,0.468,0,0.702,0C146.484,23.09,146.248,23.09,146.015,22.941z"/>
		<path fill="#6EA6F5" d="M145.125,11.568c0.326-0.582,0.773-0.963,1.489-0.895c0.836,0.719,0.871,1.408,0.117,2.228
			c-0.078,0.084-0.146,0.178-0.217,0.266c-0.686,0.043-1.08-0.361-1.393-0.896C145.035,12.037,145.035,11.802,145.125,11.568z"/>
		<path fill="#4D97F1" d="M139.137,4.383c0,0.234,0,0.468,0,0.703C138.989,4.851,138.989,4.617,139.137,4.383z"/>
		<path fill="#4D97F1" d="M134.034,23.149c0-0.234,0-0.468,0-0.703C134.184,22.681,134.184,22.915,134.034,23.149z"/>
		<path fill="#4D97F1" d="M145.125,11.568c0,0.234,0,0.468,0,0.703C144.977,12.037,144.977,11.802,145.125,11.568z"/>
		<path fill="#4D97F1" d="M141.527,15.37c-0.2,0-0.403,0-0.603,0C141.126,15.227,141.327,15.227,141.527,15.37z"/>
	</g>
</g>
<g>
	<path fill="#FFFFFF" d="M158.998,73.429c0,2.75-1.838,5-4.084,5c-2.245,0-4.083-2.25-4.083-5V45.504c0-2.75,1.838-5,4.083-5
		c2.246,0,4.084,2.25,4.084,5V73.429z"/>
</g>
<circle fill="none" stroke="#3E8DFF" stroke-miterlimit="10" cx="154.915" cy="48.896" r="1.834"/>
<circle fill="none" stroke="#2C82FF" stroke-miterlimit="10" cx="154.915" cy="54.227" r="1.834"/>
<circle fill="#FFAD40" cx="41.688" cy="78.864" r="1.272"/>
<circle fill="#FFAD40" cx="44.688" cy="78.864" r="1.272"/>
<circle fill="#FFAD40" cx="130.229" cy="78.864" r="1.272"/>
<circle fill="#FFAD40" cx="133.229" cy="78.864" r="1.272"/>
</svg>
