<?xml version="1.0" encoding="utf-8"?>
<!-- Generator: Adobe Illustrator 16.0.0, SVG Export Plug-In . SVG Version: 6.00 Build 0)  -->
<!DOCTYPE svg PUBLIC "-//W3C//DTD SVG 1.1//EN" "http://www.w3.org/Graphics/SVG/1.1/DTD/svg11.dtd">
<svg version="1.1" id="Layer_1" xmlns="http://www.w3.org/2000/svg" xmlns:xlink="http://www.w3.org/1999/xlink" x="0px" y="0px"
	 width="50px" height="50px" viewBox="0 0 50 50" enable-background="new 0 0 50 50" xml:space="preserve">
<g>
	<g>
		<path fill-rule="evenodd" clip-rule="evenodd" fill="#494175" d="M50.419,50.417c-16.749,0-33.498-0.001-50.247,0.008
			c-0.316,0.001-0.388-0.07-0.387-0.387c0.011-6.304,0.008-12.607,0.008-18.911c0.14-0.199,0.332-0.294,0.574-0.336
			c2.612-0.458,5.221-0.934,7.832-1.4c2.693-0.482,5.384-0.978,8.08-1.447c5.128-0.895,10.247-1.845,15.375-2.747
			c0.286-0.025,0.55-0.077,0.838,0.103c0.25,0.156,0.586,0.02,0.882,0.007c0.19-0.008,0.382-0.032,0.573-0.032
			c5.242,0,10.483-0.002,15.726,0.002c0.259,0,0.54-0.059,0.751,0.17c0.071,0.147,0.035,0.304,0.035,0.456
			c0.002,8.021,0.002,16.042-0.001,24.063C50.458,50.115,50.501,50.272,50.419,50.417z"/>
		<path fill-rule="evenodd" clip-rule="evenodd" fill="#7689FE" d="M31.525,25.487c-2.487,0.348-4.946,0.854-7.418,1.291
			c-5.912,1.044-11.819,2.111-17.729,3.17c-2.195,0.394-4.391,0.786-6.585,1.179c0-7.384,0-14.769,0-22.154
			c0.155-0.205,0.37-0.275,0.618-0.321c4.786-0.875,9.577-1.727,14.367-2.582c3.686-0.658,7.375-1.297,11.055-1.985
			c0.333-0.062,0.674-0.069,1.011-0.104c0.256-0.027,0.487-0.051,0.707-0.249c0.227-0.204,0.567-0.081,0.855-0.12
			c1.664-0.256,3.316-0.579,4.974-0.873c4.85-0.861,9.692-1.752,14.542-2.607c0.719-0.127,1.448-0.137,2.172-0.208
			c0.118-0.012,0.286-0.092,0.365,0.096c0.003,7.315,0.002,14.629,0.001,21.943c-0.074,0.294-0.319,0.356-0.565,0.405
			c-1.48,0.294-2.97,0.546-4.457,0.804c-0.423,0.073-0.84,0.217-1.28,0.151c-0.285-0.558-0.241-0.813,0.244-1.182
			c1.061-0.807,2.146-1.578,3.249-2.326c0.151-0.102,0.307-0.199,0.448-0.313c0.388-0.312,0.493-0.622,0.292-1.076
			c-0.602-1.359-1.183-2.728-1.88-4.042c-0.253-0.478-0.615-0.765-1.176-0.837c-0.562-0.072-1.119-0.063-1.68-0.058
			c-0.342,0.004-0.573,0.189-0.754,0.462c-0.388,0.588-0.932,0.956-1.606,1.147c-0.832,0.235-1.457-0.02-1.833-0.799
			c-0.157-0.328-0.375-0.331-0.654-0.223c-0.542,0.209-1.006,0.553-1.49,0.862c-0.115,0.073-0.214,0.257-0.396,0.114
			c-0.036-0.058-0.074-0.115-0.107-0.174c-0.156-0.205,0.008-0.352,0.116-0.475c0.61-0.689,1.229-1.372,1.821-2.077
			c0.114-0.136,0.245-0.216,0.437-0.099c0.155,0.094,0.254-0.059,0.366-0.132c0.098-0.014,0.196,0.004,0.294-0.002
			c0.551-0.036,0.721-0.325,0.478-0.813c-0.189-0.379-0.15-0.471,0.26-0.621c0.239-0.087,0.476-0.183,0.662-0.205
			c-0.543,0.079-1.063,0.424-1.645,0.603c-0.337,0.103-0.611,0.074-0.786-0.285c0.069,0.28,0.185,0.563-0.072,0.807
			c-0.368,0.493-0.91,0.777-1.384,1.144c-1.083,0.839-2.227,1.602-3.199,2.578c-0.069,0.069-0.137,0.14-0.202,0.213
			c-0.248,0.282-0.464,0.578-0.295,0.981c0.182,0.436,0.539,0.65,0.988,0.66c0.518,0.011,1.031-0.071,1.534-0.204
			c0.298-0.079,0.599-0.172,0.893,0.016c0.059,0.036,0.116,0.074,0.165,0.123c0.034,0.248-0.082,0.464-0.154,0.686
			c-0.532,1.634-0.744,3.321-0.861,5.025c-0.038,0.548,0.073,1.084,0.101,1.628c-0.082,0.341-0.345,0.437-0.647,0.501
			c-1.306,0.278-2.626,0.436-3.957,0.51C31.654,25.444,31.584,25.438,31.525,25.487z"/>
		<path fill-rule="evenodd" clip-rule="evenodd" fill="#FEFEFE" d="M50.42-0.046c-1.119,0.099-2.212,0.359-3.314,0.556
			c-6.227,1.111-12.452,2.233-18.679,3.351c-1.909,0.209-3.826,0.188-5.742,0.187C15.328,4.043,7.972,4.045,0.615,4.044
			c-0.289,0-0.6,0.063-0.822-0.209c0-1.208,0.012-2.415-0.009-3.622c-0.005-0.29,0.057-0.345,0.346-0.345
			c10.768,0.01,21.536,0.008,32.305,0.008c5.994,0,11.989,0,17.984,0c0.027,0.017,0.037,0.034,0.028,0.051S50.43-0.046,50.42-0.046z
			"/>
		<path fill-rule="evenodd" clip-rule="evenodd" fill="#B2A4FE" d="M-0.207,3.835c0.209,0.012,0.419,0.036,0.628,0.036
			C9.504,3.873,18.587,3.872,27.67,3.872c0.253,0,0.505-0.007,0.757-0.011c-1.601,0.289-3.2,0.579-4.802,0.866
			c-4.683,0.837-9.367,1.673-14.05,2.51C6.453,7.795,3.331,8.355,0.209,8.914c-0.138,0.025-0.277,0.04-0.416,0.06
			C-0.207,7.26-0.207,5.547-0.207,3.835z"/>
		<path fill-rule="evenodd" clip-rule="evenodd" fill="#FEFEFE" d="M50.42-0.046c0-0.026-0.001-0.052-0.001-0.078
			c0.025,0.018,0.087-0.043,0.085,0.042C50.5,0.03,50.503,0.143,50.503,0.255c0,16.594,0,33.188-0.006,49.783
			c0,0.123,0.098,0.286-0.078,0.379c0-8.121,0-16.241-0.001-24.362c0-0.182-0.009-0.364-0.014-0.546
			c-0.148-0.161-0.2-0.351-0.198-0.568c0.007-0.769,0.002-1.538,0.003-2.307c0-0.227,0.042-0.432,0.2-0.603
			c0.003-1.794,0.009-3.588,0.009-5.382C50.42,11.083,50.42,5.519,50.42-0.046z"/>
		<path fill-rule="evenodd" clip-rule="evenodd" fill="#B2A4FE" d="M50.409,22.031c-0.002,1.159-0.003,2.318-0.005,3.478
			c-6.111,0-12.222,0-18.333-0.001c-0.182,0-0.363-0.014-0.546-0.021c1.335-0.328,2.699-0.501,4.045-0.769
			c0.213-0.042,0.463-0.039,0.538-0.32c0.034-0.024,0.066-0.068,0.103-0.071c1.815-0.153,3.576-0.652,5.381-0.874
			c0.166,0.058,0.267-0.132,0.424-0.109c0.446,0.008,0.855-0.186,1.291-0.233c0.298-0.032,0.596-0.15,0.89,0.012
			c0.856-0.057,1.688-0.265,2.53-0.413C47.956,22.496,49.182,22.258,50.409,22.031z"/>
		<path fill-rule="evenodd" clip-rule="evenodd" fill="#D7DDFE" d="M41.656,23.627c-1.706,0.312-3.412,0.623-5.117,0.935
			c-0.18,0.033-0.335,0.016-0.431-0.165c-0.23-2.295,0.095-4.525,0.786-6.713c0.055-0.173,0.098-0.35,0.146-0.525
			c0.052-0.432,0.324-0.779,0.454-1.171c-0.004,0.009-0.002,0.002-0.005,0.009c-0.187,0.357-0.26,0.765-0.552,1.059
			c-0.55,0.099-1.1,0.201-1.65,0.295c-0.348,0.06-0.697,0.053-1.043-0.03c-0.827-0.2-1.154-1.15-0.606-1.785
			c0.906-1.049,2.051-1.818,3.137-2.655c0.609-0.47,1.229-0.926,1.845-1.389c0.477,0.031,0.749,0.396,1.077,0.666
			c0.052,0.042-0.028,0.122-0.06,0.18c-0.683-0.082-0.974,0.448-1.338,0.86c-0.461,0.521-0.916,1.048-1.374,1.573
			c-0.022,0.089-0.021,0.153,0.099,0.095c0.701-0.433,1.355-0.947,2.172-1.174c0.299-0.083,0.451-0.128,0.443,0.289
			c-0.011,0.587,0.413,0.965,1.044,0.965c0.938,0,1.643-0.452,2.104-1.245c0.191-0.329,0.42-0.442,0.772-0.432
			c0.63,0.018,1.259-0.001,1.89,0.058c0.549,0.052,0.901,0.309,1.16,0.773c0.471,0.847,0.867,1.729,1.271,2.608
			c0.24,0.522,0.465,1.051,0.698,1.576c0.323,0.724,0.254,0.998-0.415,1.447c-1.164,0.782-2.295,1.611-3.436,2.427
			c-0.349,0.25-0.572,0.52-0.53,0.962c-0.729,0.2-1.45,0.444-2.225,0.344c-0.047-0.044-0.104-0.068-0.071-0.164
			c0.164-0.483,0.314-0.947,0.756-1.296c0.566-0.447,1.153-0.87,1.706-1.333c0.47-0.663,1.153-1.085,1.774-1.578
			c0.207-0.165,0.233-0.373,0.112-0.601c-0.152-0.285-0.319-0.56-0.497-0.829c-0.155-0.233-0.257-0.157-0.33,0.062
			c-0.237,0.705-0.39,1.433-0.575,2.152c-0.083,0.323-0.216,0.597-0.486,0.797c-0.591,0.464-1.193,0.913-1.783,1.376
			c-0.283,0.222-0.412,0.54-0.541,0.862C41.937,23.165,41.872,23.438,41.656,23.627z"/>
		<path fill-rule="evenodd" clip-rule="evenodd" fill="#FDFDFE" d="M45.802,8.067c0.236,1.775-0.817,3.992-3.289,4.621
			c-0.575,0.494-1.225,0.282-1.856,0.181c-0.13-0.021-0.17-0.186-0.263-0.273c0.614-0.259,0.72-0.714,0.507-1.297
			c-0.077-0.213,0.049-0.297,0.231-0.361c0.251-0.088,0.501-0.184,0.737-0.303c0.165-0.083,0.312-0.223,0.249-0.436
			c-0.063-0.215-0.253-0.233-0.445-0.231c-0.258,0.002-0.494,0.093-0.731,0.177c-0.37,0.131-0.739,0.264-1.103,0.413
			c-0.289,0.118-0.514,0.234-0.629-0.232c-0.083-0.335-0.438-0.41-0.764-0.389c-0.342,0.023-0.461,0.236-0.333,0.557
			c0.097,0.242,0.305,0.435,0.323,0.723c-0.789-0.407-1.272-2.276-0.962-3.68c0.394-1.777,2.021-3.114,3.908-3.211
			c2.107-0.191,3.518,0.737,4.29,2.432C45.865,7.178,45.969,7.609,45.802,8.067z"/>
		<path fill-rule="evenodd" clip-rule="evenodd" fill="#D7DDFE" d="M40.394,12.596c0.698,0.217,1.407,0.206,2.119,0.092
			c-0.041,0.133-0.083,0.266-0.125,0.398c-0.025,0.08-0.072,0.208,0.004,0.229c0.554,0.152,0.075,0.355-0.002,0.448
			c-0.459,0.542-1.023,0.909-1.772,0.861c-0.535-0.034-0.815-0.39-0.734-0.903c0.015-0.097,0.02-0.216,0.121-0.251
			C40.448,13.314,40.351,12.925,40.394,12.596z"/>
		<path fill-rule="evenodd" clip-rule="evenodd" fill="#D7DDFE" d="M45.802,8.067c-0.237-2.118-2.085-3.883-4.419-3.744
			c0.54-0.156,1.079-0.072,1.616,0.011c0.961,0.148,1.873,0.451,2.707,0.955c0.752,0.455,0.906,0.909,0.589,1.717
			C46.152,7.369,45.967,7.714,45.802,8.067z"/>
		<path fill-rule="evenodd" clip-rule="evenodd" fill="#FDFDFE" d="M39.637,12.339c-0.336-0.286-0.766-0.459-1.018-0.846
			c0.114-0.306,0.025-0.569-0.145-0.832c-0.086-0.133-0.318-0.315-0.096-0.458c0.22-0.14,0.455-0.013,0.619,0.198
			c0.118,0.152-0.026,0.476,0.218,0.493c0.235,0.017,0.484-0.11,0.722-0.189c0.479-0.16,0.951-0.336,1.43-0.493
			c0.165-0.054,0.427-0.163,0.489,0.028c0.077,0.239-0.224,0.268-0.39,0.335c-0.259,0.104-0.535,0.167-0.795,0.27
			c-0.148,0.059-0.395,0.071-0.089,0.337c0.354,0.309,0.156,0.922-0.294,1.069C40.078,12.321,39.868,12.415,39.637,12.339z"/>
		<path fill-rule="evenodd" clip-rule="evenodd" fill="#8798FE" d="M36.938,17.057c0.216-0.481,0.406-0.976,0.682-1.428
			c0.036-0.042,0.071-0.041,0.105,0.002c-0.229,0.51-0.457,1.02-0.685,1.529C37.006,17.126,36.972,17.091,36.938,17.057z"/>
		<path fill-rule="evenodd" clip-rule="evenodd" fill="#93A2FE" d="M37.023,14.868c-0.066,0.054-0.135,0.177-0.22,0.08
			c-0.05-0.057,0.058-0.128,0.121-0.175C36.958,14.804,36.99,14.836,37.023,14.868z"/>
		<path fill-rule="evenodd" clip-rule="evenodd" fill="#7B8EFE" d="M44.439,20.683c-0.459,0.366-0.9,0.757-1.381,1.093
			c-0.601,0.421-0.895,1.018-1.087,1.69c-0.09,0.084-0.191,0.145-0.315,0.162c0.174-0.702,0.419-1.354,1.052-1.796
			c0.562-0.392,1.101-0.816,1.649-1.226C44.405,20.609,44.433,20.635,44.439,20.683z"/>
		<path fill-rule="evenodd" clip-rule="evenodd" fill="#FEFEFE" d="M40.233,16.884c-0.344-0.003-0.638,0.073-0.916,0.22
			c-0.113,0.06-0.239,0.117-0.346-0.002c-0.115-0.128-0.051-0.264,0.019-0.388c0.396-0.707,2.04-0.937,2.607-0.367
			c0.364,0.366,0.355,0.915-0.027,1.367c-0.279,0.329-0.636,0.553-1.035,0.696c-0.321,0.116-0.498,0.311-0.572,0.65
			c-0.104,0.467-0.415,0.68-0.766,0.583c-0.337-0.094-0.46-0.451-0.321-0.911c0.193-0.644,0.466-1.209,1.229-1.327
			c0.066-0.01,0.135-0.044,0.191-0.083c0.14-0.095,0.418-0.109,0.36-0.331C40.608,16.808,40.362,16.91,40.233,16.884z"/>
		<path fill-rule="evenodd" clip-rule="evenodd" fill="#768AFE" d="M44.439,20.683c-0.027-0.026-0.055-0.052-0.082-0.077
			c0.184-0.144,0.203-0.359,0.24-0.563c0.179-0.98,0.466-1.932,0.775-2.876c0.024-0.077,0.042-0.164,0.191-0.216
			c0.368,0.59,0.744,1.19,1.116,1.793c0.086,0.139,0.01,0.23-0.104,0.315C45.863,19.598,45.151,20.141,44.439,20.683z"/>
		<path fill-rule="evenodd" clip-rule="evenodd" fill="#FEFEFE" d="M39.709,20.692c-0.003,0.358-0.285,0.625-0.657,0.605
			c-0.346-0.018-0.539-0.217-0.563-0.555c-0.024-0.34,0.285-0.633,0.64-0.631C39.468,20.114,39.712,20.357,39.709,20.692z"/>
		<path fill-rule="evenodd" clip-rule="evenodd" fill="#8FA0FE" d="M37.725,15.631c-0.035,0-0.07-0.001-0.105-0.002
			c0.038-0.084,0.063-0.177,0.191-0.237C37.82,15.498,37.789,15.568,37.725,15.631z"/>
		<path fill-rule="evenodd" clip-rule="evenodd" fill="#788BFE" d="M43.154,6.524c-0.234,0.197-0.476,0.172-0.709,0.171
			c-0.157,0-0.258,0.005-0.227,0.225c0.032,0.234-0.103,0.434-0.273,0.586c-0.229,0.204-0.528,0.125-0.657-0.146
			c-0.119-0.251,0.103-0.55-0.113-0.788c-0.001-0.001,0.065-0.08,0.11-0.103C41.586,6.319,42.817,6.345,43.154,6.524z"/>
		<path fill-rule="evenodd" clip-rule="evenodd" fill="#798DFE" d="M42.31,9.374c-0.064,0.176-0.142,0.204-0.293,0.119
			C41.254,9.062,40.499,9.14,39.784,9.7c-0.099,0.078-0.215,0.281-0.335,0.155c-0.133-0.14,0.063-0.282,0.163-0.367
			c0.594-0.507,1.283-0.725,2.059-0.579C41.946,8.96,42.184,9.112,42.31,9.374z"/>
		<path fill-rule="evenodd" clip-rule="evenodd" fill="#798CFE" d="M39.639,5.667c0.273,0.003,0.43,0.008,0.552,0.124
			c0.061,0.057,0.12,0.125,0.081,0.219c-0.032,0.076-0.101,0.102-0.173,0.08c-0.766-0.226-1.235,0.263-1.726,0.708
			c-0.072,0.065-0.103,0.252-0.245,0.146C38.014,6.86,38.1,6.729,38.161,6.643C38.555,6.095,39.069,5.74,39.639,5.667z"/>
		<path fill-rule="evenodd" clip-rule="evenodd" fill="#778BFE" d="M38.687,7.094c0.017-0.404,0.25-0.663,0.578-0.626
			c0.247,0.028,0.309,0.198,0.295,0.421c-0.021,0.345-0.298,0.696-0.554,0.693C38.781,7.579,38.674,7.416,38.687,7.094z"/>
	</g>
</g>
</svg>
