<?xml version="1.0" encoding="utf-8"?>
<!-- Generator: Adobe Illustrator 16.0.0, SVG Export Plug-In . SVG Version: 6.00 Build 0)  -->
<!DOCTYPE svg PUBLIC "-//W3C//DTD SVG 1.1//EN" "http://www.w3.org/Graphics/SVG/1.1/DTD/svg11.dtd">
<svg version="1.1" id="Layer_1" xmlns="http://www.w3.org/2000/svg" xmlns:xlink="http://www.w3.org/1999/xlink" x="0px" y="0px"
	viewBox="0 0 50 50" enable-background="new 0 0 50 50" xml:space="preserve">
<g>
	<path fill-rule="evenodd" clip-rule="evenodd" fill="#FDFDFE" d="M0,24.981C0,16.792,0.002,8.604-0.009,0.415
		c0-0.334,0.056-0.413,0.404-0.413C16.791,0.013,33.187,0.014,49.584,0c0.385,0,0.423,0.11,0.423,0.445
		c-0.009,16.395-0.009,32.789,0.001,49.183c0.001,0.352-0.062,0.439-0.43,0.439c-16.379-0.013-32.759-0.013-49.138,0
		c-0.395,0-0.449-0.111-0.449-0.47C0.002,41.393,0,33.188,0,24.981z"/>
	<path fill-rule="evenodd" clip-rule="evenodd" fill="#768AFE" d="M24.742,22.687c0.005-0.082,0.011-0.164-0.083-0.205
		c-0.181-0.483-0.019-1.051,0.396-1.39c2.529-0.844,4.488-3.441,4.589-6.082c0.137-3.577-1.8-6.278-5.34-7.367
		c0.864-0.15,1.646,0.069,2.433,0.066c0.414-0.002,0.706,0.218,0.965,0.516c0.251,0.288,0.501,0.576,0.809,0.81
		c0.283,0.217,0.593,0.368,0.944,0.42c0.585,0.086,0.72,0.011,1-0.541c0.039-0.077,0.083-0.143,0.184-0.133
		c1.524,0.59,2.915,1.414,4.216,2.399c0.085,0.065,0.146,0.217,0.28,0.15c0.125-0.062,0.082-0.206,0.081-0.318
		c-0.014-1.518,0.436-2.858,1.446-4.015c1.021-1.169,2.307-1.827,3.823-1.982c1.777-0.181,3.387,0.279,4.722,1.515
		c1.186,1.096,1.843,2.457,1.896,4.073c0.09,2.633-1.051,4.573-3.409,5.742c-1.224,0.607-2.539,0.707-3.874,0.41
		c-0.223-0.049-0.35-0.06-0.213,0.217c0.831,1.687,1.375,3.464,1.665,5.322c0.01,0.065,0.037,0.127,0.057,0.19
		c0.029,0.029,0.035,0.053,0.02,0.071c-0.016,0.015-0.029,0.022-0.044,0.022c-0.416,0.998-0.959,1.899-1.777,2.637
		c-1.319,1.191-2.614,2.411-3.901,3.638c-0.271,0.26-0.411,0.301-0.678-0.015c-1.519-1.787-3.074-3.541-4.586-5.333
		c-0.598-0.711-1.26-0.993-2.208-0.874c-0.983,0.124-1.991,0.054-2.987,0.069C25.022,22.748,24.881,22.763,24.742,22.687z"/>
	<path fill-rule="evenodd" clip-rule="evenodd" fill="#768AFE" d="M21.053,22.784c-0.114,0.088-0.209,0.179-0.383,0.184
		c-1.128,0.031-2.168,0.466-3.245,0.733c-0.273,0.068-0.501,0.268-0.687,0.475c-1.424,1.582-2.683,3.297-3.996,4.968
		c-0.279,0.355-0.411,0.384-0.755,0.048c-1.438-1.398-2.683-2.953-3.788-4.618c-0.341-0.512-0.634-1.077-0.821-1.677
		c-0.033-0.101-0.107-0.114-0.187-0.135c-0.026-0.015-0.035-0.031-0.028-0.048c0.008-0.018,0.016-0.026,0.024-0.026
		c0.241-0.958,0.383-1.934,0.664-2.885c0.7-2.372,1.858-4.496,3.467-6.353c1.957-2.261,4.368-3.888,7.193-4.884
		c0.095-0.033,0.179-0.09,0.297-0.026c-2.615,1.961-3.788,4.524-2.966,7.744c0.699,2.743,2.556,4.43,5.31,5.106
		C21.424,21.876,21.313,22.335,21.053,22.784z"/>
	<path fill-rule="evenodd" clip-rule="evenodd" fill="#7589FE" d="M16.065,31.055c-0.231,2.196-0.438,4.277-0.584,6.363
		c-0.197,2.822,0.027,5.64,0.111,8.459c0.008,0.252,0.013,0.364-0.294,0.41c-1.266,0.189-2.476-0.05-3.638-0.495
		c-2.727-1.045-4.369-3.081-4.933-5.897c-0.523-2.624,0.194-4.988,1.997-6.985c0.229-0.254,0.266-0.428,0.109-0.728
		c-0.708-1.357-1.119-2.817-1.438-4.308c-0.023-0.109-0.003-0.228-0.003-0.341c0.212-0.033,0.224,0.139,0.278,0.242
		c1.058,2.005,2.341,3.865,3.684,5.683c0.887,1.199,1.03,1.176,2.064,0.143C14.262,32.76,15.076,31.889,16.065,31.055z"/>
	<path fill-rule="evenodd" clip-rule="evenodd" fill="#768AFE" d="M29.972,29.626c1.372,1.027,2.685,1.926,4.064,2.723
		c0.573,0.33,1.128,0.7,1.78,0.884c0.419,0.118,0.74,0.07,1.069-0.268c1.076-1.104,1.883-2.405,2.766-3.652
		c0.478-0.675,0.957-1.348,1.465-2.063c0.226,0.359,0.03,0.666-0.026,0.937c-0.748,3.573-2.441,6.631-5.098,9.134
		c-1.223,1.153-2.607,2.092-4.118,2.839c-0.322,0.159-0.414,0.08-0.483-0.253c-0.509-2.457-0.928-4.928-1.152-7.429
		C30.157,31.568,30.068,30.66,29.972,29.626z"/>
	<path fill-rule="evenodd" clip-rule="evenodd" fill="#E0E5FE" d="M41.304,22.577c0.006-0.031,0.014-0.063,0.024-0.093
		c0.195-0.003,0.286-0.142,0.383-0.282c0.683-1.003,1.73-1.326,2.851-1.507c0.104-0.017,0.243-0.044,0.311,0.088
		c0.066,0.131-0.037,0.218-0.106,0.308c-0.109,0.145-0.207,0.305-0.341,0.424c-0.337,0.303-0.153,0.479,0.156,0.54
		c0.741,0.146,1.396,0.511,2.089,0.773c0.785,0.296,0.92,0.683,0.547,1.429c-0.522,1.042-1.263,1.742-2.959,1.542
		c-0.621-0.074-1.258,0.033-1.882-0.11c-0.156-0.036-0.273,0.054-0.366,0.197c-0.122,0.188-0.274,0.356-0.493,0.636
		c0-1.018,0.002-1.908-0.001-2.797C41.515,23.33,41.467,22.942,41.304,22.577z"/>
	<path fill-rule="evenodd" clip-rule="evenodd" fill="#E0E5FE" d="M7.188,22.688c0.009,0.024,0.01,0.049,0.004,0.074
		c-0.221,0.97-0.063,1.953-0.102,2.93c-0.021,0.524-0.002,0.515-0.496,0.418c-0.116-0.023-0.258,0.034-0.379,0.081
		c-0.98,0.373-1.985,0.452-3.019,0.292c-0.835-0.128-1.755-1.18-1.769-2.044C1.424,24.277,1.54,24.21,1.621,24.11
		c0.611-0.748,1.499-1.003,2.351-1.32c0.154-0.057,0.315-0.1,0.477-0.134c0.373-0.08,0.467-0.209,0.175-0.536
		c-0.132-0.149-0.322-0.374-0.124-0.625c0.174-0.221,0.367-0.048,0.545-0.01C5.881,21.668,6.488,22.262,7.188,22.688z"/>
	<path fill-rule="evenodd" clip-rule="evenodd" fill="#768BFE" d="M22.649,13.651c-0.017-0.469,0.036-0.928,0.192-1.372
		c0.26-0.739,1.058-1.246,1.837-1.167c0.642,0.064,1.142,0.612,1.266,1.404c0.138,0.872,0.091,1.723-0.377,2.501
		c-0.38,0.632-1.03,0.975-1.611,0.854c-0.719-0.15-1.085-0.636-1.24-1.332C22.65,14.243,22.665,13.948,22.649,13.651z"/>
	<path fill-rule="evenodd" clip-rule="evenodd" fill="#768AFE" d="M36.036,6.802c-0.008,1.148-0.861,2.001-2.005,2.001
		c-1.166,0-2.001-0.864-2.011-2.053c-0.01-1.179,0.826-2.036,2.033-2.024C35.335,4.739,36.094,5.729,36.036,6.802z"/>
	<path fill-rule="evenodd" clip-rule="evenodd" fill="#E0E5FE" d="M22.309,28.271c0.787-0.137,1.762,0.798,2.049,1.683
		c0.265,0.816-0.033,1.659-0.931,2.256c-0.4,0.266-0.569,0.524-0.478,0.983c0.071,0.354-0.068,0.501-0.456,0.496
		c-0.288-0.004-0.591,0.082-0.864,0.188c-0.399,0.153-0.539-0.063-0.56-0.375c-0.031-0.497-0.03-0.998,0.005-1.494
		c0.023-0.326,0.2-0.581,0.534-0.715c0.291-0.117,0.585-0.248,0.842-0.426c0.287-0.197,0.655-0.383,0.416-0.868
		c-0.225-0.456-0.511-0.617-0.998-0.471c-0.284,0.085-0.562,0.196-0.833,0.314c-0.234,0.104-0.464,0.242-0.672-0.019
		c-0.218-0.274-0.117-0.56,0.084-0.768C20.94,28.552,21.541,28.267,22.309,28.271z"/>
	<path fill-rule="evenodd" clip-rule="evenodd" fill="#768BFE" d="M17.851,13.426c-0.048-0.881,0.104-1.669,0.816-2.299
		c0.83-0.733,1.842-0.474,2.091,0.609c0.232,1.009,0.16,2.013-0.229,2.979c-0.285,0.706-0.791,1.038-1.445,0.988
		c-0.581-0.044-0.958-0.44-1.159-1.191C17.829,14.152,17.868,13.787,17.851,13.426z"/>
	<path fill-rule="evenodd" clip-rule="evenodd" fill="#E0E5FE" d="M30.638,8.781c-0.291,0.85-0.729,1.044-1.608,0.702
		c-0.455-0.176-0.823-0.474-1.136-0.845c-0.324-0.385-0.633-0.792-1.157-0.928c0.147-0.031,0.329,0.052,0.405-0.181
		c0.209-0.634,0.57-0.903,1.229-0.922c1.173-0.033,1.724,0.63,2.053,1.693C30.478,8.477,30.528,8.637,30.638,8.781z"/>
	<path fill-rule="evenodd" clip-rule="evenodd" fill="#E0E5FE" d="M21.053,22.784c0.03-0.465,0.142-0.924,0.1-1.394
		c1.329,0.271,2.631,0.187,3.902-0.298c-0.305,0.413-0.343,0.904-0.396,1.39c-0.511,0.12-0.897,0.483-1.365,0.69
		C22.402,23.568,21.628,23.446,21.053,22.784z"/>
	<path fill-rule="evenodd" clip-rule="evenodd" fill="#E0E5FE" d="M22.09,36.771c-0.525-0.009-1.057-0.594-1.027-1.133
		c0.034-0.613,0.614-1.174,1.206-1.164c0.492,0.008,1.028,0.515,0.974,1.001C23.165,36.163,22.819,36.802,22.09,36.771z"/>
	<path fill-rule="evenodd" clip-rule="evenodd" fill="#768BFE" d="M21.747,19.081c-0.186,0.001-0.354,0.043-0.506,0.163
		c-0.269,0.211-0.561,0.194-0.726-0.093c-0.17-0.295-0.131-0.626,0.224-0.801c0.792-0.392,1.612-0.433,2.445-0.135
		c0.155,0.055,0.307,0.121,0.46,0.182c-0.208,0.458-0.637,0.561-1.067,0.638C22.306,19.083,22.02,18.994,21.747,19.081z"/>
	<path fill-rule="evenodd" clip-rule="evenodd" fill="#CBD3FE" d="M21.747,19.081c0.688-0.076,1.352-0.215,1.897-0.685
		c0.127,0.072,0.264,0.131,0.379,0.22c0.201,0.154,0.303,0.351,0.16,0.6c-0.143,0.25-0.367,0.349-0.625,0.22
		C22.984,19.147,22.378,19.057,21.747,19.081z"/>
	<path fill-rule="evenodd" clip-rule="evenodd" fill="#9AA9FE" d="M24.742,22.687c0.141,0.003,0.282,0.008,0.424,0.012
		c-0.137,0.1-0.287,0.097-0.44,0.058c-0.008-0.002-0.016-0.025-0.014-0.035C24.716,22.708,24.731,22.698,24.742,22.687z"/>
</g>
</svg>
