<?xml version="1.0" encoding="utf-8"?>
<!-- Generator: Adobe Illustrator 16.0.0, SVG Export Plug-In . SVG Version: 6.00 Build 0)  -->
<!DOCTYPE svg PUBLIC "-//W3C//DTD SVG 1.1//EN" "http://www.w3.org/Graphics/SVG/1.1/DTD/svg11.dtd">
<svg version="1.1" id="Layer_1" xmlns="http://www.w3.org/2000/svg" xmlns:xlink="http://www.w3.org/1999/xlink" x="0px" y="0px"
	 width="50px" height="50px" viewBox="0 0 50 50" enable-background="new 0 0 50 50" xml:space="preserve">
<g>
	<g>
		<path fill-rule="evenodd" clip-rule="evenodd" fill="#FEFEFE" d="M25.05,50.1c-8.183,0-16.366-0.002-24.55,0.01
			C0.158,50.11,0.09,50.042,0.09,49.7c0.011-16.4,0.011-32.8,0-49.2c0-0.342,0.067-0.41,0.41-0.41c16.4,0.011,32.8,0.011,49.2,0
			c0.342,0,0.409,0.067,0.409,0.41c-0.011,16.4-0.011,32.8,0,49.2c0,0.342-0.066,0.41-0.409,0.409
			C41.483,50.098,33.267,50.1,25.05,50.1z"/>
		<path fill-rule="evenodd" clip-rule="evenodd" fill="#778BFE" d="M21.696,5.692c0.728-0.256,1.496-0.313,2.251-0.368
			c7.014-0.513,12.886,1.863,17.516,7.143c2.654,3.027,4.229,6.618,4.703,10.615c0.68,5.732-0.741,10.92-4.347,15.474
			c-0.831,1.05-1.77,1.989-2.781,2.859c-0.099,0.085-0.221,0.144-0.331,0.215c-0.18-0.198-0.077-0.411-0.018-0.612
			c0.74-2.504,1.446-5.018,2.205-7.516c0.222-0.731,0.437-1.466,0.626-2.207c0.156-0.611,0.046-0.745-0.598-0.746
			c-2.562-0.006-5.122,0-7.684-0.007c-0.255,0-0.54,0.074-0.743-0.172c0.062-0.493,0.177-0.979,0.189-1.48
			c0.02-0.749-0.268-1.338-0.888-1.735c-1.607-1.031-3.343-1.778-5.188-2.267c-0.203-0.045-0.318-0.149-0.254-0.377
			c0.053-0.188,0.093-0.38,0.217-0.538c0.792-0.343,1.65-0.513,2.406-0.955c2.719-1.589,4.251-3.905,4.39-7.089
			c0.101-2.302-0.677-4.299-2.199-5.984c-1.328-1.47-3.019-2.315-4.988-2.615c-0.955-0.145-1.89-0.097-2.829,0.084
			c-0.193,0.037-0.387,0.11-0.59,0.048c-0.062-0.447-0.379-0.73-0.658-1.042C21.917,6.21,21.616,6.055,21.696,5.692z"/>
		<path fill-rule="evenodd" clip-rule="evenodd" fill="#303553" d="M32.496,30.37c2.845,0.007,5.689,0.014,8.534,0.021
			c0.73,0.001,0.867,0.157,0.664,0.858c-0.794,2.743-1.61,5.48-2.398,8.225c-0.206,0.716-0.492,1.41-0.589,2.156
			c-0.128,0.372-0.253,0.745-0.383,1.117c-0.193,0.555-0.475,0.755-1.049,0.757c-0.429,0.002-0.857,0.009-1.286,0.014
			c-0.789,0.259-1.603,0.088-2.404,0.138c-4.17,0.013-8.339,0.005-12.509,0.005c-0.199,0-0.4,0.003-0.585-0.085
			c-0.16-0.093-0.093-0.209-0.037-0.331c0.145-0.312,0.251-0.634,0.258-0.981c0.037-0.308,0.063-0.619,0.287-0.864
			c0.353-1.154,0.649-2.322,0.902-3.502c-0.088-0.206,0.019-0.353,0.151-0.491c0.551-2.135,1.112-4.268,1.643-6.408
			c0.111-0.447,0.292-0.622,0.773-0.619C27.145,30.395,29.82,30.377,32.496,30.37z"/>
		<path fill-rule="evenodd" clip-rule="evenodd" fill="#768BFE" d="M21.696,5.692c0.202,0.524,0.744,0.774,1.008,1.253
			c0.093,0.167,0.203,0.3-0.004,0.449c-0.089,0.246-0.33,0.256-0.524,0.33c-1.96,0.748-3.522,1.976-4.572,3.809
			c-0.62,1.083-0.946,2.26-1.02,3.506c-0.077,0.406-0.073,0.811-0.002,1.216c0.128,1.726,0.728,3.272,1.797,4.63
			c0.486,0.617,1.055,1.152,1.692,1.615c0.21,0.152,0.47,0.264,0.565,0.541c-0.034,0.242-0.218,0.365-0.394,0.489
			c-1.583,1.116-3.333,1.787-5.26,2.008c-3.3,0.38-6.218-0.534-8.813-2.568c-0.26-0.204-0.538-0.396-0.567-0.77l-0.001-0.001
			c-0.119-0.157-0.042-0.319-0.011-0.479c0.461-2.358,1.35-4.552,2.57-6.614c1.629-2.752,3.816-4.97,6.487-6.718
			c0.228-0.149,0.449-0.372,0.769-0.214c0.071,0.077,0.088,0.175,0.113,0.271c0.23,0.872,0.894,1.316,1.758,1.063
			c1.382-0.406,2.367-1.289,2.867-2.666c0.062-0.171,0.1-0.351,0.163-0.522c0.185-0.596,0.542-0.782,1.207-0.628
			C21.582,5.691,21.639,5.691,21.696,5.692z"/>
		<path fill-rule="evenodd" clip-rule="evenodd" fill="#778BFE" d="M21.524,5.691c-0.129,0.028-0.258,0.075-0.388,0.08
			C20.72,5.786,20.476,5.986,20.41,6.4c-0.201-0.187-0.125-0.435-0.141-0.66c-0.045-0.682-0.392-1.049-1.058-1.195
			c-1.092-0.24-1.915,0.125-2.553,1.02c-0.45,0.632-0.775,1.317-1.014,2.051C15.579,7.817,15.571,8.048,15.39,8.2
			c-0.176-0.017-0.33,0.05-0.467,0.147c-0.907,0.64-1.809,1.283-2.652,2.014c-1.253,1.085-2.314,2.324-3.262,3.673
			c-0.961,1.367-1.701,2.848-2.33,4.392c-0.497,1.22-0.772,2.5-1.077,3.773c-1.449-1.326-2.449-2.95-2.973-4.823
			C1.282,12.564,2.493,8.423,6.247,5.163c2.653-2.304,5.842-3.085,9.327-2.494C17.865,3.059,19.864,4.047,21.524,5.691z"/>
		<path fill-rule="evenodd" clip-rule="evenodd" fill="#778BFE" d="M5.602,22.2c0.472,0.689,1.191,1.09,1.866,1.52
			c2,1.274,4.208,1.866,6.575,1.772c2.292-0.091,4.388-0.807,6.255-2.157c0.118-0.085,0.203-0.217,0.302-0.327
			c0.353-0.136,0.566,0.06,0.756,0.314c0.046,0.417-0.087,0.813-0.148,1.219c-0.027,0.183-0.159,0.28-0.317,0.349
			c-2.281,0.683-4.485,1.553-6.572,2.708c-0.809,0.448-1.326,1.11-1.612,1.999c-0.652,2.02-0.924,4.109-1.207,6.2
			c-0.185,1.366-0.273,2.739-0.305,4.182c-0.556-0.396-0.929-0.901-1.31-1.385c-2.478-3.143-3.982-6.686-4.407-10.682
			c-0.184-1.731-0.156-3.448,0.103-5.166C5.607,22.568,5.596,22.382,5.602,22.2z"/>
		<path fill-rule="evenodd" clip-rule="evenodd" fill="#778BFE" d="M48.321,42.91c-0.027,2.269-1.875,4.098-4.122,4.078
			c-2.291-0.021-4.133-1.914-4.098-4.216c0.033-2.241,1.92-4.08,4.16-4.056C46.523,38.742,48.348,40.626,48.321,42.91z"/>
		<path fill-rule="evenodd" clip-rule="evenodd" fill="#C8D0FE" d="M20.365,43.424c0.134,0.153,0.308,0.078,0.468,0.078
			c4.188,0.001,8.376,0,12.563,0.001c0.066,0,0.133,0.013,0.198,0.019c0.405,0.127,0.844,0.204,1.006,0.687
			c-0.956,0.549-2.004,0.867-3.05,1.184c-2.163,0.656-4.385,0.898-6.634,0.799c-2.402-0.105-4.729-0.604-6.944-1.56
			c-0.687-0.295-1.362-0.62-2.024-0.968c-0.242-0.127-0.517-0.098-0.745-0.236c0.169-0.216,0.415-0.184,0.641-0.185
			c1.292-0.008,2.584-0.008,3.876,0C19.948,43.243,20.193,43.212,20.365,43.424z"/>
		<path fill-rule="evenodd" clip-rule="evenodd" fill="#C8D0FE" d="M20.891,24.89c0.354-0.47,0.228-1.06,0.392-1.577
			c0.131-0.09,0.258-0.032,0.379,0.018c1.443,0.601,2.938,0.815,4.491,0.616c0.157-0.02,0.333-0.079,0.468,0.075
			c0.051,0.289-0.422,0.572-0.011,0.866c-1.457,1.449-3.097,1.18-4.791,0.53C21.476,25.286,21.307,24.875,20.891,24.89z"/>
		<path fill-rule="evenodd" clip-rule="evenodd" fill="#778CFE" d="M22.053,37.405c-0.05,0.164-0.101,0.328-0.151,0.491
			c-1.362-0.029-2.724-0.066-4.086-0.085c-1.163-0.016-2.324,0.031-3.473,0.238c-0.098,0.019-0.204,0.081-0.261-0.037
			c-0.068-0.141,0.054-0.218,0.149-0.274c0.322-0.193,0.69-0.233,1.052-0.279c0.293-0.038,0.374-0.162,0.434-0.468
			c0.279-1.432,0.615-2.852,0.931-4.276c0.079-0.356,0.153-0.714,0.241-1.068c0.041-0.161,0.014-0.435,0.273-0.38
			c0.196,0.042,0.138,0.283,0.115,0.438c-0.158,1.066-0.316,2.133-0.494,3.196c-0.134,0.799-0.272,1.599-0.536,2.42
			C18.206,37.251,20.129,37.312,22.053,37.405z"/>
		<path fill-rule="evenodd" clip-rule="evenodd" fill="#1E202F" d="M20.365,43.424c-1.721,0.001-3.441,0.002-5.161,0.003
			c-0.128-0.081-0.355,0.016-0.396-0.222c0.086-0.916,0.241-1.059,1.177-1.061c1.359-0.003,2.719-0.004,4.078,0.002
			c0.244,0.001,0.502-0.042,0.713,0.14C20.826,42.732,20.808,43.154,20.365,43.424z"/>
		<path fill-rule="evenodd" clip-rule="evenodd" fill="#D5DBFE" d="M20.775,42.286c-1.63,0.009-3.261,0.048-4.891,0.009
			c-0.565-0.014-0.876,0.133-0.974,0.689c-0.014,0.077-0.068,0.147-0.104,0.221c-0.076-0.403-0.469-0.486-0.724-0.706
			c-0.258-0.222-0.549-0.404-0.826-0.605c0.098-0.145,0.207-0.09,0.296-0.095c2.069-0.103,4.14-0.188,6.208-0.315
			c0.411-0.025,0.822-0.089,1.238-0.085C20.98,41.709,20.878,41.997,20.775,42.286z"/>
		<path fill-rule="evenodd" clip-rule="evenodd" fill="#788CFC" d="M34.601,44.208c-0.289-0.296-0.67-0.458-1.006-0.687
			c0.799-0.001,1.597-0.003,2.395-0.004C35.55,43.794,35.1,44.051,34.601,44.208z"/>
		<path fill-rule="evenodd" clip-rule="evenodd" fill="#FDFEFE" d="M26.62,24.022c-1.853,0.317-3.634,0.099-5.337-0.709
			c-0.227-0.104-0.422-0.279-0.684-0.305c-2.13-1.357-3.495-3.24-4.002-5.738c-0.067-0.329-0.036-0.656-0.112-0.975
			c-0.058-0.43-0.053-0.86-0.002-1.29c0.062-1.638,0.612-3.111,1.591-4.408c1.107-1.467,2.553-2.492,4.302-3.079
			c0.109-0.037,0.216-0.083,0.323-0.125c1.496-0.34,2.986-0.392,4.489-0.004c6.067,1.568,8.394,9.192,4.228,13.859
			C30.117,22.704,28.512,23.604,26.62,24.022z"/>
		<path fill-rule="evenodd" clip-rule="evenodd" fill="#FDFDFD" d="M33.405,36.397c-0.006,0.488-0.316,1.016-0.794,1.422
			c-0.297,0.252-0.66,0.189-0.939-0.102c-0.624-0.649-0.235-2.058,0.632-2.312C32.92,35.226,33.398,35.581,33.405,36.397z"/>
		<path fill-rule="evenodd" clip-rule="evenodd" fill="#C8D0FE" d="M15.39,8.2c0.265-1.333,0.787-2.529,1.854-3.424
			c0.774-0.65,1.642-0.5,2.488-0.2c0.444,0.158,0.631,0.57,0.67,1.027c0.022,0.264,0.007,0.531,0.008,0.797
			c-0.395,1.661-1.445,2.719-3.05,3.211C16.286,9.94,15.483,9.333,15.39,8.2z"/>
		<path fill-rule="evenodd" clip-rule="evenodd" fill="#778BFE" d="M16.484,15.006c0.001,0.43,0.001,0.859,0.002,1.29
			C16.345,15.866,16.349,15.436,16.484,15.006z"/>
		<path fill-rule="evenodd" clip-rule="evenodd" fill="#778BFE" d="M23.929,19.814c-1.359-0.104-2.589-0.485-3.339-1.74
			c-0.788-1.317-0.096-2.823,1.419-3.07c1.501-0.245,2.73,0.316,3.736,1.413c0.311,0.338,0.614,0.671,0.717,1.163
			c0.133,0.646-0.037,1.14-0.548,1.537C25.332,19.569,24.685,19.835,23.929,19.814z"/>
		<path fill-rule="evenodd" clip-rule="evenodd" fill="#778CFE" d="M29.42,19.42c-1.297,0.005-2.009-1.203-1.485-2.47
			c0.332-0.806,0.874-1.445,1.594-1.931c0.563-0.379,1.162-0.632,1.807-0.22c0.676,0.431,1.017,1.071,0.853,1.871
			c-0.26,1.271-1,2.18-2.216,2.676c-0.061,0.024-0.127,0.041-0.192,0.048C29.647,19.408,29.515,19.414,29.42,19.42z"/>
	</g>
</g>
</svg>
