<?xml version="1.0" encoding="utf-8"?>
<!-- Generator: Adobe Illustrator 16.0.0, SVG Export Plug-In . SVG Version: 6.00 Build 0)  -->
<!DOCTYPE svg PUBLIC "-//W3C//DTD SVG 1.1//EN" "http://www.w3.org/Graphics/SVG/1.1/DTD/svg11.dtd">
<svg version="1.1" id="Layer_1" xmlns="http://www.w3.org/2000/svg" xmlns:xlink="http://www.w3.org/1999/xlink" x="0px" y="0px"
	 width="50px" height="50px" viewBox="0 0 50 50" enable-background="new 0 0 50 50" xml:space="preserve">
<g>
	<g>
		<path fill-rule="evenodd" clip-rule="evenodd" fill="#FCFCFC" d="M0.033,25.033c0-8.284,0-16.566-0.003-24.85
			c0-0.125,0.028-0.153,0.153-0.153c16.566,0.003,33.133,0.003,49.699,0c0.125,0,0.153,0.028,0.153,0.153
			c-0.003,16.566-0.003,33.133,0,49.7c0,0.125-0.027,0.153-0.153,0.153c-16.565-0.003-33.133-0.003-49.699,0
			c-0.125,0-0.153-0.027-0.153-0.153C0.034,41.6,0.033,33.317,0.033,25.033z"/>
		<path fill-rule="evenodd" clip-rule="evenodd" fill="#D7CBFD" d="M7.562,37.802c-0.274-0.178-0.521-0.393-0.772-0.598
			c-0.279-0.229-0.531-0.487-0.78-0.747c-0.568-0.594-1.054-1.249-1.463-1.962c-0.596-1.039-0.957-2.161-1.17-3.332
			c-0.098-0.541-0.15-1.091-0.184-1.643c-0.022-0.383-0.021-0.764-0.023-1.146c-0.004-0.624,0.057-1.245,0.125-1.866
			c0.085-0.773,0.223-1.538,0.412-2.292c0.307-1.224,0.711-2.416,1.205-3.579c0.442-1.043,0.966-2.041,1.607-2.974
			c0.375-0.546,0.774-1.076,1.228-1.562c0.257-0.274,0.499-0.564,0.767-0.828c0.709-0.698,1.457-1.354,2.247-1.961
			c0.641-0.492,1.297-0.959,1.974-1.398c0.761-0.494,1.54-0.958,2.332-1.401c0.538-0.301,1.087-0.576,1.639-0.848
			c1.204-0.593,2.461-1.049,3.743-1.444c1.014-0.313,2.039-0.58,3.069-0.832c0.99-0.243,1.986-0.462,2.988-0.647
			c0.698-0.129,1.397-0.254,2.111-0.286c0.281-0.013,0.556-0.137,0.836-0.199c0.57-0.126,1.147-0.21,1.726-0.294
			c0.534-0.077,1.071-0.127,1.606-0.191c0.323-0.038,0.649-0.054,0.975-0.071c0.496-0.026,0.994-0.042,1.49-0.069
			c0.57-0.031,1.121,0.049,1.67,0.208c1.112,0.322,2.176,0.746,3.13,1.417c1.139,0.802,2.045,1.803,2.62,3.084
			c0.141,0.313,0.251,0.637,0.324,0.973c-0.142,0.037-0.273-0.025-0.408-0.042c-0.732-0.089-1.403,0.075-2.007,0.489
			c-0.89,0.61-1.335,1.471-1.327,2.543c0.006,0.672,0.238,1.281,0.672,1.806c0.08,0.096,0.187,0.177,0.216,0.309
			c-0.158,0.202-0.373,0.342-0.564,0.507c-0.388,0.336-0.787,0.659-1.176,0.993c-0.44,0.378-0.886,0.75-1.309,1.148
			c-0.354,0.334-0.699,0.68-1.026,1.043c-0.333,0.371-0.652,0.752-0.924,1.168c-0.322,0.493-0.588,1.011-0.712,1.597
			c-0.125,0.598-0.014,1.165,0.19,1.718c0.271,0.734,0.729,1.359,1.199,1.977c0.559,0.733,1.122,1.465,1.575,2.273
			c0.364,0.651,0.649,1.331,0.813,2.061c0.291,1.296,0.104,2.512-0.604,3.643c-0.347,0.556-0.757,1.061-1.184,1.554
			c-0.508,0.587-1.036,1.155-1.598,1.689c-0.611,0.581-1.273,1.093-2.028,1.482c-0.999,0.515-2.053,0.87-3.133,1.163
			c-0.922,0.25-1.855,0.439-2.797,0.587c-0.511,0.08-1.026,0.136-1.543,0.182c-0.837,0.076-1.675,0.117-2.516,0.13
			c-0.065-0.055-0.05-0.132-0.049-0.202c0.008-0.854,0.016-1.709,0.042-2.562c0.016-0.512,0.02-1.021,0.02-1.532
			c0-0.355,0.05-0.708,0.038-1.064c-0.047-1.311-0.151-2.615-0.441-3.898c-0.051-0.223-0.028-0.266,0.195-0.306
			c1.111-0.205,2.172-0.564,3.184-1.061c0.826-0.406,1.588-0.908,2.278-1.522c0.914-0.813,1.56-1.813,2.089-2.9
			c0.385-0.792,0.625-1.626,0.717-2.501c0.087-0.818,0.059-1.629-0.151-2.429c-0.151-0.573-0.669-0.955-1.278-0.944
			c-0.579,0.011-1.082,0.422-1.215,0.985c-0.05,0.211-0.045,0.417,0.005,0.626c0.08,0.337,0.117,0.68,0.108,1.024
			c-0.022,0.83-0.223,1.614-0.619,2.346c-0.182,0.338-0.365,0.673-0.587,0.987c-0.558,0.787-1.291,1.369-2.129,1.831
			c-1.219,0.67-2.538,1.026-3.897,1.261c-0.859,0.148-1.724,0.261-2.592,0.329c-0.292,0.023-0.588,0.032-0.881,0.048
			c-0.753,0.042-1.511,0.018-2.257,0.132c-0.56,0.086-1.102,0.27-1.66,0.362c-0.99,0.164-1.78,0.689-2.526,1.312
			c-0.932,0.775-1.71,1.681-2.301,2.739c-0.475,0.853-0.843,1.751-1.095,2.695c-0.052,0.193-0.112,0.384-0.153,0.58
			C7.637,37.725,7.627,37.782,7.562,37.802z"/>
		<path fill-rule="evenodd" clip-rule="evenodd" fill="#6B4BE5" d="M7.562,37.802c0.101-0.363,0.204-0.726,0.304-1.09
			c0.118-0.429,0.278-0.843,0.456-1.25c0.25-0.568,0.522-1.127,0.871-1.645c0.215-0.318,0.439-0.629,0.691-0.92
			c0.298-0.347,0.605-0.683,0.95-0.986c0.672-0.59,1.359-1.156,2.221-1.447c0.314-0.105,0.647-0.156,0.973-0.229
			c0.485-0.11,0.97-0.22,1.457-0.324c0.145-0.03,0.299-0.034,0.443-0.034c0.398-0.002,0.796-0.03,1.194-0.05
			c0.637-0.03,1.276-0.047,1.912-0.119c0.491-0.055,0.983-0.105,1.47-0.18c0.773-0.116,1.542-0.26,2.296-0.476
			c0.67-0.192,1.324-0.429,1.944-0.748c0.593-0.304,1.144-0.67,1.636-1.128c0.526-0.489,0.915-1.071,1.25-1.698
			c0.273-0.509,0.496-1.039,0.583-1.612c0.062-0.412,0.113-0.824,0.063-1.248c-0.035-0.295-0.12-0.583-0.135-0.875
			c-0.015-0.286,0.067-0.566,0.241-0.805c0.481-0.664,1.374-0.771,2-0.232c0.264,0.228,0.383,0.541,0.448,0.877
			c0.114,0.582,0.165,1.17,0.13,1.76c-0.044,0.752-0.172,1.493-0.436,2.202c-0.332,0.895-0.789,1.724-1.351,2.494
			c-0.378,0.52-0.818,0.977-1.312,1.39c-0.615,0.516-1.283,0.946-1.998,1.299c-0.916,0.452-1.872,0.806-2.878,1.008
			c-0.155,0.031-0.31,0.069-0.465,0.099c-0.077,0.015-0.111,0.042-0.091,0.128c0.086,0.362,0.172,0.724,0.214,1.095
			c0.033,0.294,0.089,0.585,0.118,0.88c0.051,0.52,0.104,1.039,0.129,1.561c0.017,0.347,0.014,0.695-0.012,1.045
			c-0.025,0.331-0.017,0.665-0.015,0.998c0.005,0.754-0.038,1.507-0.042,2.261c-0.002,0.512-0.024,1.023-0.021,1.535
			c-0.023,0.257-0.048,0.513-0.072,0.769c0,0.006,0.002,0.014-0.001,0.017c-0.221,0.206-0.156,0.536-0.334,0.764
			c-0.103,0.131-0.211,0.249-0.348,0.346c-0.479,0.337-1.008,0.586-1.515,0.872c-0.492,0.276-1.011,0.477-1.566,0.579
			c-0.22,0.041-0.44,0.088-0.666,0.086c-0.314-0.001-0.628,0.006-0.943-0.001c-0.795-0.018-1.574-0.149-2.339-0.364
			c-0.585-0.166-1.147-0.379-1.648-0.733c-0.296-0.209-0.575-0.433-0.715-0.785c-0.015-0.038-0.056-0.068-0.089-0.098
			c-0.322-0.275-0.452-0.642-0.463-1.048c-0.011-0.397-0.042-0.794-0.046-1.192c-0.002-0.201-0.016-0.406-0.03-0.61
			c-0.037-0.046-0.042-0.101-0.042-0.157c-0.007-0.672,0.022-1.343,0.06-2.014c0.015-0.271,0.016-0.543,0.03-0.814
			c0.029-0.543,0.051-1.087,0.081-1.629c0.025-0.465,0.041-0.932,0.088-1.395c0.008-0.078,0.011-0.155,0.001-0.251
			c-0.246,0.323-0.448,0.659-0.659,0.988c-0.683,1.066-1.042,2.252-1.308,3.475c-0.066,0.304-0.123,0.609-0.165,0.918
			c-0.009,0.068-0.023,0.131-0.076,0.18c-0.025,0.412-0.052,0.824-0.08,1.235C9.9,41.35,9.896,42.229,9.903,43.108
			c0.001,0.223,0.05,0.446,0.062,0.67C10,44.451,9.502,45.02,8.866,45.124c-0.727,0.121-1.368-0.314-1.526-1.013
			c-0.065-0.286-0.091-0.584-0.102-0.879c-0.016-0.454,0.005-0.91-0.007-1.365c-0.012-0.433,0.031-0.862,0.043-1.293
			c0.011-0.396,0.027-0.793,0.065-1.187c0.049-0.511,0.103-1.021,0.227-1.52C7.571,37.848,7.563,37.823,7.562,37.802z"/>
		<path fill-rule="evenodd" clip-rule="evenodd" d="M40.139,16.42c-0.296-0.344-0.579-0.698-0.725-1.135
			c-0.148-0.441-0.231-0.886-0.173-1.361c0.071-0.566,0.262-1.071,0.607-1.521c0.46-0.6,1.063-0.962,1.801-1.122
			c0.454-0.098,0.898-0.065,1.344,0.034c0.202,0.083,0.415,0.14,0.609,0.244c0.721,0.384,1.221,0.955,1.479,1.73
			c0.118,0.358,0.189,0.729,0.156,1.107c-0.057,0.659-0.273,1.256-0.708,1.771c-0.486,0.575-1.102,0.921-1.834,1.034
			c-0.822,0.127-1.579-0.06-2.253-0.563C40.343,16.564,40.26,16.465,40.139,16.42z"/>
		<path fill-rule="evenodd" clip-rule="evenodd" fill="#D8CCFE" d="M10.039,39.235c0.078-0.574,0.188-1.143,0.33-1.704
			c0.202-0.792,0.446-1.571,0.834-2.295c0.314-0.588,0.673-1.148,1.091-1.714c0.026,0.364-0.018,0.692-0.042,1.018
			c-0.017,0.223-0.02,0.45-0.039,0.674c-0.024,0.277-0.044,0.561-0.046,0.842c-0.005,0.552-0.051,1.103-0.072,1.653
			c-0.028,0.742-0.055,1.483-0.065,2.226c-0.499-0.141-0.986-0.312-1.468-0.501C10.387,39.365,10.226,39.265,10.039,39.235z"/>
		<path fill-rule="evenodd" clip-rule="evenodd" fill="#6C4BE5" d="M22.034,23.183c-0.014,1.029-0.308,1.973-0.915,2.801
			c-0.672,0.92-1.578,1.522-2.68,1.806c-0.447,0.115-0.91,0.177-1.375,0.141c-0.745-0.057-1.454-0.239-2.112-0.615
			c-0.401-0.229-0.765-0.502-1.081-0.832c-0.645-0.673-1.07-1.466-1.241-2.389c-0.064-0.342-0.111-0.685-0.097-1.033
			c0.016-0.39,0.067-0.776,0.182-1.15c0.042-0.14,0.009-0.218-0.097-0.306c-0.335-0.281-0.637-0.597-0.929-0.923
			c-0.167-0.186-0.352-0.355-0.524-0.535c-0.235-0.245-0.294-0.621-0.149-0.915c0.162-0.329,0.505-0.539,0.842-0.498
			c0.34,0.042,0.655,0.174,0.966,0.311c0.417,0.183,0.833,0.369,1.248,0.558c0.056,0.026,0.085,0.017,0.128-0.021
			c0.683-0.598,1.477-0.944,2.373-1.088c1.021-0.164,1.979,0.016,2.891,0.475c0.617,0.31,1.132,0.749,1.558,1.298
			c0.509,0.657,0.83,1.388,0.946,2.21C22.002,22.712,22.041,22.945,22.034,23.183z"/>
		<path fill-rule="evenodd" clip-rule="evenodd" d="M28.232,17.25c-1.674-0.029-3.037-1.333-3.009-3.077
			c0.025-1.617,1.314-2.981,3.077-2.95c1.608,0.028,2.979,1.314,2.941,3.086C31.209,15.923,29.933,17.216,28.232,17.25z"/>
		<path fill-rule="evenodd" clip-rule="evenodd" d="M32.283,14.233c0.028-1.675,1.333-3.037,3.075-3.01
			c1.615,0.025,2.99,1.316,2.951,3.093c-0.035,1.595-1.311,2.961-3.084,2.926C33.61,17.21,32.317,15.933,32.283,14.233z"/>
	</g>
</g>
</svg>
