<?xml version="1.0" encoding="utf-8"?>
<!-- Generator: Adobe Illustrator 16.0.0, SVG Export Plug-In . SVG Version: 6.00 Build 0)  -->
<!DOCTYPE svg PUBLIC "-//W3C//DTD SVG 1.1//EN" "http://www.w3.org/Graphics/SVG/1.1/DTD/svg11.dtd">
<svg version="1.1" id="Layer_1" xmlns="http://www.w3.org/2000/svg" xmlns:xlink="http://www.w3.org/1999/xlink" x="0px" y="0px"
	 width="50px" height="50px" viewBox="0 0 50 50" enable-background="new 0 0 50 50" xml:space="preserve">
<g>
	<g>
		<path fill-rule="evenodd" clip-rule="evenodd" fill="#FCFCFC" d="M0.033,25.033c0-8.283,0-16.566-0.003-24.85
			c0-0.125,0.028-0.153,0.153-0.153c16.567,0.003,33.133,0.003,49.7,0c0.125,0,0.153,0.028,0.153,0.153
			c-0.003,16.567-0.003,33.133,0,49.7c0,0.125-0.027,0.153-0.153,0.153c-16.565-0.003-33.133-0.003-49.699,0
			c-0.125,0-0.153-0.027-0.153-0.153C0.034,41.6,0.033,33.316,0.033,25.033z"/>
		<path fill-rule="evenodd" clip-rule="evenodd" fill="#D7CBFD" d="M20.033,17.369c0-3.393,0-6.786,0-10.179
			c0-0.223,0-0.223,0.225-0.223c8.963,0,17.926,0,26.889,0c0.219,0,0.219,0,0.219,0.212c0,1.016,0.001,2.033,0.001,3.049
			c-0.053,0.052-0.104,0.01-0.154-0.005c-0.603-0.179-1.135-0.057-1.615,0.349c-0.983,0.831-1.966,1.663-2.947,2.497
			c-0.998,0.848-1.997,1.695-2.995,2.544c-0.832,0.708-1.666,1.416-2.503,2.12c-0.144,0.121-0.284,0.248-0.434,0.364
			c-0.14,0.109-0.157,0.107-0.269-0.028c-0.469-0.57-0.932-1.146-1.398-1.718c-0.361-0.443-0.718-0.89-1.083-1.331
			c-0.46-0.555-1.179-0.754-1.832-0.509c-0.666,0.25-1.086,0.875-1.06,1.595c0.012,0.342,0.125,0.655,0.34,0.923
			c0.686,0.852,1.379,1.699,2.068,2.548c0.318,0.392,0.636,0.786,0.956,1.176c0.076,0.092,0.12,0.194,0.146,0.312
			c0.263,1.178,1.698,1.661,2.621,0.88c1.269-1.071,2.531-2.147,3.798-3.22c0.979-0.829,1.956-1.658,2.935-2.486
			c0.924-0.781,1.848-1.563,2.767-2.351c0.151-0.13,0.308-0.254,0.458-0.386c0.057-0.049,0.11-0.114,0.199-0.106
			c0.001,0.066,0.002,0.133,0.002,0.2c0,9.799,0,19.597,0,29.396c0,0.269,0.028,0.24-0.24,0.24c-8.227,0.001-16.453,0.001-24.68,0
			c-0.072,0-0.145-0.001-0.217-0.002c0.024-0.091,0.108-0.085,0.173-0.102c0.333-0.084,0.672-0.152,1.001-0.251
			c0.725-0.219,1.425-0.498,2.084-0.874c0.358-0.204,0.648-0.485,0.897-0.811c0.146-0.19,0.214-0.412,0.234-0.649
			c0.007-0.078,0.014-0.156,0.06-0.223c0.205-0.296,0.204-0.632,0.163-0.964c-0.086-0.711-0.155-1.424-0.285-2.129
			c-0.033-0.18,0.011-0.221,0.197-0.193c0.634,0.097,1.272,0.116,1.91,0.08c1.35-0.076,2.656-0.374,3.921-0.856
			c1.145-0.437,2.213-1.006,3.169-1.775c1.318-1.061,2.312-2.373,2.999-3.918c0.396-0.891,0.73-1.801,0.907-2.763
			c0.083-0.452,0.112-0.903-0.062-1.347c-0.504-1.275-2.142-1.658-3.147-0.728c-0.347,0.321-0.562,0.715-0.617,1.186
			c-0.053,0.446-0.187,0.868-0.338,1.286c-0.312,0.856-0.709,1.664-1.304,2.366c-0.561,0.661-1.225,1.189-1.991,1.59
			c-1.188,0.619-2.457,0.964-3.787,1.083c-0.42,0.038-0.841,0.06-1.263,0.082c-0.527,0.028-1.054,0.013-1.581,0.022
			c-0.233,0.005-0.464-0.033-0.695-0.063c-0.1-0.014-0.175-0.063-0.239-0.137c-1.013-1.194-2.333-1.893-3.796-2.361
			c-0.211-0.067-0.428-0.119-0.646-0.163c-0.063-0.013-0.138-0.012-0.164-0.092c0-0.866,0.001-1.732,0.001-2.598
			c-0.006-0.098,0.079-0.13,0.135-0.175c0.438-0.356,0.82-0.764,1.149-1.221c0.664-0.918,1.07-1.936,1.213-3.064
			c0.186-1.464-0.11-2.828-0.819-4.108c-0.229-0.413-0.519-0.787-0.833-1.142c-0.229-0.259-0.489-0.483-0.748-0.709
			C20.086,17.474,20.021,17.446,20.033,17.369z"/>
		<path fill-rule="evenodd" clip-rule="evenodd" fill="#6B4BE5" d="M20.032,30.528c0.253,0.087,0.52,0.124,0.777,0.198
			c0.728,0.211,1.408,0.524,2.064,0.896c0.52,0.294,0.986,0.659,1.42,1.065c0.106,0.1,0.226,0.204,0.299,0.329
			c0.126,0.216,0.32,0.23,0.532,0.252c0.521,0.055,1.042,0.039,1.562,0.025c0.627-0.017,1.253-0.055,1.879-0.121
			c0.711-0.074,1.41-0.202,2.089-0.422c0.964-0.312,1.877-0.732,2.666-1.387c0.629-0.521,1.149-1.133,1.541-1.851
			c0.404-0.738,0.713-1.518,0.892-2.34c0.064-0.299,0.077-0.612,0.222-0.887c0.319-0.604,0.806-0.981,1.497-1.093
			c0.654-0.104,1.216,0.094,1.685,0.522c0.384,0.351,0.602,0.806,0.612,1.343c0.011,0.557-0.113,1.09-0.267,1.618
			c-0.267,0.914-0.614,1.797-1.063,2.637c-0.326,0.611-0.717,1.181-1.153,1.72c-0.307,0.381-0.646,0.73-1.003,1.06
			c-0.555,0.511-1.167,0.947-1.819,1.327c-0.814,0.474-1.678,0.835-2.569,1.131c-0.635,0.209-1.285,0.361-1.943,0.473
			c-0.345,0.058-0.697,0.086-1.048,0.116c-0.389,0.033-0.775,0.029-1.161,0.02c-0.339-0.01-0.683-0.01-1.017-0.091
			c-0.047-0.011-0.1-0.015-0.146,0.014c0.093,0.534,0.171,1.07,0.226,1.61c0.035,0.349,0.103,0.695,0.1,1.049
			c-0.002,0.154-0.02,0.305-0.097,0.429c-0.104,0.164-0.147,0.34-0.168,0.524c-0.032,0.296-0.195,0.521-0.384,0.73
			c-0.358,0.401-0.799,0.681-1.291,0.897c-0.382,0.169-0.764,0.335-1.157,0.474c-0.451,0.158-0.916,0.259-1.378,0.37
			c-0.067,0.017-0.142,0.017-0.2,0.063c-0.356,0.074-0.712,0.155-1.07,0.221c-0.435,0.079-0.871,0.146-1.307,0.215
			c-0.372,0.058-0.743,0.132-1.118,0.158c-0.329,0.022-0.661,0.036-0.992,0.049c-0.7,0.025-1.4,0.041-2.1,0.021
			c-0.482-0.014-0.965-0.003-1.445-0.032c-0.731-0.045-1.462-0.104-2.188-0.222c-0.759-0.122-1.513-0.251-2.242-0.502
			c-0.518-0.18-0.994-0.436-1.385-0.815c-0.399-0.386-0.664-0.862-0.781-1.412c-0.036-0.171-0.079-0.342-0.067-0.52
			c0.003-0.047-0.013-0.082-0.042-0.119c-0.265-0.334-0.353-0.729-0.391-1.143c-0.123-1.319,0.286-2.511,0.881-3.655
			c0.338-0.65,0.73-1.267,1.215-1.821c0.893-1.02,1.925-1.858,3.168-2.414c0.701-0.313,1.428-0.552,2.191-0.678
			c0.52-0.087,1.041-0.132,1.566-0.166c0.821-0.053,1.641-0.027,2.46-0.02c0.434,0.004,0.872,0.054,1.301,0.149
			C19.931,30.535,19.982,30.527,20.032,30.528z"/>
		<path fill-rule="evenodd" clip-rule="evenodd" fill="#6B4BE5" d="M20.033,17.369c0.203,0.175,0.42,0.337,0.606,0.529
			c0.23,0.236,0.449,0.486,0.648,0.749c0.557,0.735,0.944,1.555,1.16,2.452c0.081,0.335,0.125,0.677,0.159,1.022
			c0.023,0.244,0.038,0.486,0.024,0.729c-0.045,0.82-0.193,1.617-0.524,2.378c-0.243,0.559-0.541,1.08-0.917,1.556
			c-0.325,0.41-0.688,0.786-1.115,1.096c-0.017,0.012-0.027,0.033-0.041,0.051c-0.388,0.265-0.774,0.528-1.205,0.724
			c-0.568,0.258-1.149,0.46-1.771,0.55c-0.437,0.063-0.874,0.12-1.314,0.093c-0.81-0.05-1.597-0.199-2.349-0.527
			c-0.564-0.246-1.092-0.55-1.571-0.934c-0.581-0.465-1.07-1.016-1.464-1.651c-0.47-0.759-0.796-1.57-0.931-2.458
			c-0.066-0.442-0.108-0.883-0.097-1.33c0-0.022-0.007-0.048,0.001-0.066c0.103-0.244-0.061-0.313-0.238-0.401
			c-0.71-0.352-1.418-0.71-2.122-1.076c-0.756-0.393-1.278-0.997-1.488-1.824c-0.231-0.912-0.055-1.756,0.536-2.504
			c0.448-0.567,1.042-0.891,1.741-1.019c0.546-0.101,1.084-0.033,1.586,0.205c0.676,0.321,1.344,0.659,2.008,1.005
			c0.257,0.134,0.515,0.264,0.771,0.399c0.066,0.035,0.11,0.047,0.187-0.004c0.65-0.433,1.355-0.744,2.115-0.925
			c0.34-0.082,0.687-0.124,1.035-0.16c0.254-0.026,0.508-0.039,0.76-0.022c0.803,0.051,1.586,0.196,2.333,0.522
			C19.083,16.755,19.568,17.043,20.033,17.369z"/>
		<path fill-rule="evenodd" clip-rule="evenodd" d="M47.364,13.396c-0.537,0.455-1.073,0.911-1.61,1.366
			c-0.512,0.434-1.023,0.868-1.535,1.302s-1.023,0.868-1.535,1.302c-0.508,0.431-1.015,0.862-1.523,1.291
			c-0.546,0.46-1.096,0.915-1.641,1.376c-0.409,0.346-0.81,0.701-1.218,1.048c-0.395,0.334-0.78,0.682-1.196,0.989
			c-0.557,0.411-1.313,0.4-1.88,0.003c-0.375-0.262-0.623-0.614-0.69-1.075c-0.019-0.124-0.109-0.199-0.178-0.285
			c-0.422-0.532-0.852-1.06-1.281-1.585c-0.409-0.502-0.825-0.998-1.231-1.502c-0.197-0.245-0.418-0.473-0.578-0.745
			c-0.258-0.438-0.313-0.907-0.141-1.387c0.231-0.651,0.712-1.031,1.384-1.118c0.609-0.079,1.121,0.164,1.514,0.636
			c0.274,0.33,0.539,0.668,0.808,1.002c0.313,0.39,0.625,0.781,0.94,1.168c0.268,0.329,0.541,0.653,0.809,0.976
			c0.497-0.416,0.997-0.83,1.493-1.249c0.333-0.283,0.659-0.575,0.992-0.857c0.399-0.338,0.805-0.668,1.204-1.006
			c0.329-0.279,0.651-0.566,0.981-0.845c0.403-0.342,0.813-0.677,1.216-1.018c0.329-0.279,0.651-0.566,0.98-0.845
			c0.324-0.275,0.654-0.542,0.979-0.816c0.254-0.215,0.5-0.442,0.758-0.653c0.291-0.239,0.549-0.524,0.919-0.657
			c0.409-0.146,0.813-0.165,1.215,0.018c0.013,0.006,0.032-0.001,0.049-0.002c0.338,0.176,0.624,0.408,0.8,0.753
			c0.303,0.592,0.268,1.168-0.091,1.725c-0.157,0.242-0.39,0.41-0.608,0.591C47.431,13.329,47.392,13.355,47.364,13.396z"/>
	</g>
</g>
</svg>
