<?xml version="1.0" encoding="utf-8"?>
<!-- Generator: Adobe Illustrator 16.0.0, SVG Export Plug-In . SVG Version: 6.00 Build 0)  -->
<!DOCTYPE svg PUBLIC "-//W3C//DTD SVG 1.1//EN" "http://www.w3.org/Graphics/SVG/1.1/DTD/svg11.dtd">
<svg version="1.1" id="Layer_1" xmlns="http://www.w3.org/2000/svg" xmlns:xlink="http://www.w3.org/1999/xlink" x="0px" y="0px"
	 width="50px" height="50px" viewBox="0 0 50 50" enable-background="new 0 0 50 50" xml:space="preserve">
<g>
	<g>
		<path fill-rule="evenodd" clip-rule="evenodd" fill="#FEFEFE" d="M47.867,0.033c0.688,0,1.378,0.002,2.066-0.002
			c0.083,0,0.115,0.019,0.1,0.103c-0.003,0.016,0,0.033,0,0.05c0,16.566,0,33.134,0.003,49.699c0,0.125-0.027,0.153-0.153,0.153
			c-16.565-0.003-33.133-0.003-49.699,0c-0.125,0-0.153-0.027-0.153-0.153C0.034,38.155,0.033,26.428,0.033,14.7
			c0.035-0.063,0.079-0.119,0.13-0.17c0.695-0.693,1.389-1.388,2.083-2.083c0.164-0.163,0.176-0.163,0.344,0.005
			c1.604,1.604,3.208,3.208,4.813,4.813c0.027,0.028,0.055,0.055,0.081,0.084c0.079,0.091,0.075,0.158-0.055,0.189
			c-0.358-0.024-0.716-0.055-1.072,0.028c-0.157,0.037-0.31,0.08-0.453,0.155c-0.087,0.025-0.174,0.051-0.25,0.104
			c-0.648,0.393-1.198,0.885-1.582,1.547c-0.031,0.054-0.08,0.092-0.113,0.143c-0.072,0.104-0.136,0.21-0.171,0.332
			c-0.113,0.193-0.137,0.422-0.25,0.615c-0.056,0.101-0.013,0.214-0.038,0.318c-0.002,0.018-0.006,0.035-0.01,0.052
			c-0.032,0.183,0.002,0.367-0.021,0.549c-0.002,0.02-0.006,0.038-0.011,0.057c-0.014,0.468-0.037,0.937,0.014,1.404
			c0.019,0.17-0.006,0.342,0.017,0.512c0.006,0.018,0.01,0.037,0.014,0.056c0.024,0.127-0.02,0.262,0.041,0.386
			c0.066,0.268,0.056,0.546,0.099,0.818c0.041,0.261,0.07,0.524,0.116,0.785c0.016,0.074,0.011,0.15,0.023,0.225
			c0.005,0.015,0.008,0.03,0.012,0.046c0.009,0.053,0.01,0.106,0.029,0.157c0.005,0.015,0.008,0.029,0.011,0.045
			c0.011,0.111,0.035,0.219,0.061,0.326c0.011,0.048,0.021,0.095,0.034,0.142c0.019,0.104,0.031,0.211,0.095,0.301
			c0.102,0.371,0.188,0.747,0.303,1.115c0.022,0.116,0.059,0.229,0.104,0.339c0.163,0.342,0.241,0.714,0.392,1.061
			c0.027,0.108,0.057,0.216,0.131,0.305c0.103,0.23,0.187,0.469,0.301,0.694c0.035,0.104,0.074,0.205,0.146,0.29
			c0.127,0.203,0.203,0.434,0.322,0.641c0.046,0.097,0.082,0.198,0.162,0.274c0.141,0.226,0.247,0.471,0.396,0.69
			c0.023,0.047,0.039,0.099,0.078,0.136c0.083,0.101,0.144,0.215,0.207,0.327C6.6,32.59,6.65,32.656,6.697,32.725
			c0.182,0.242,0.349,0.495,0.518,0.748c-0.039,0.212-0.171,0.384-0.265,0.569C6.776,34.383,6.556,34.699,6.4,35.05
			c-0.016,0.036-0.043,0.065-0.069,0.094c-0.059,0.055-0.087,0.125-0.11,0.199c-0.138,0.229-0.235,0.481-0.393,0.7
			c-0.057,0.083-0.113,0.166-0.14,0.265c-0.128,0.262-0.272,0.515-0.427,0.761c-0.038,0.068-0.085,0.133-0.107,0.209
			C4.856,37.8,4.567,38.329,4.284,38.86c-0.234,0.438-0.511,0.854-0.709,1.311c-0.024,0.057-0.061,0.105-0.106,0.147
			c-0.062,0.063-0.084,0.146-0.114,0.226c-0.165,0.37-0.43,0.68-0.636,1.024c-0.079,0.133-0.142,0.275-0.189,0.423
			c-0.02,0.053-0.022,0.109-0.032,0.165c-0.002,0.017-0.006,0.032-0.011,0.049C2.471,42.4,2.475,42.596,2.485,42.79
			c0.005,0.016,0.01,0.032,0.013,0.049c0.01,0.056,0.012,0.113,0.032,0.167c0.223,0.754,0.736,1.184,1.497,1.335
			c0.164,0.014,0.328,0.045,0.485-0.034c0.266-0.084,0.535-0.131,0.817-0.13c2.836,0.004,5.671,0.003,8.507,0.003
			c0.378,0,0.379,0,0.379,0.379c0,1.376,0,2.752,0,4.129c0,0.08-0.023,0.169,0.054,0.232c0.074,0.035,0.153,0.025,0.23,0.025
			c6.418,0,12.836,0,19.255,0c0.292,0,0.293,0,0.293-0.296c0-1.371-0.001-2.742,0-4.114c0-0.099-0.015-0.2,0.035-0.294
			c0.044-0.053,0.106-0.055,0.167-0.058c0.078-0.004,0.156-0.002,0.234-0.002c4.081,0,8.163-0.005,12.245,0.005
			c0.739,0.001,1.276-0.303,1.661-0.917c0.127-0.201,0.294-0.378,0.377-0.606c0.04-0.06,0.101-0.11,0.101-0.192
			c0.003-0.016,0.007-0.03,0.012-0.045c0.019-0.05,0.019-0.103,0.028-0.154c0.002-0.016,0.006-0.031,0.01-0.046
			c0.013-0.15,0.012-0.302,0-0.452c-0.006-0.015-0.009-0.029-0.012-0.045c-0.01-0.052-0.01-0.106-0.045-0.15
			c-0.149-0.518-0.52-0.907-0.787-1.356c-0.034-0.057-0.081-0.105-0.101-0.171c-0.014-0.086-0.059-0.152-0.125-0.207
			c-0.279-0.392-0.561-0.782-0.809-1.195c-0.015-0.084-0.054-0.151-0.129-0.195c-0.266-0.385-0.528-0.771-0.77-1.172
			c-0.028-0.113-0.095-0.204-0.174-0.288c-0.297-0.39-0.571-0.795-0.828-1.212c-0.014-0.075-0.048-0.14-0.107-0.19
			c-0.287-0.377-0.541-0.776-0.793-1.177c-0.021-0.109-0.087-0.19-0.163-0.267c-0.269-0.371-0.536-0.742-0.771-1.136
			c-0.025-0.115-0.095-0.204-0.174-0.287c-0.075-0.095-0.164-0.183-0.155-0.318c0.023-0.085,0.05-0.169,0.123-0.228
			c0.049-0.029,0.063-0.079,0.075-0.13c0.111-0.244,0.275-0.457,0.408-0.688c0.079-0.077,0.123-0.172,0.147-0.277
			c0.092-0.224,0.215-0.43,0.337-0.638c0.069-0.086,0.118-0.181,0.131-0.292c0.09-0.238,0.221-0.458,0.316-0.693
			c0.071-0.089,0.112-0.19,0.116-0.307c0.127-0.358,0.259-0.717,0.397-1.072c0.063-0.101,0.098-0.209,0.098-0.328
			c0.1-0.373,0.221-0.739,0.318-1.112c0.063-0.093,0.085-0.196,0.08-0.307c0.002-0.051,0.009-0.1,0.034-0.145
			c0.055-0.098,0.06-0.207,0.075-0.313c0.003-0.016,0.006-0.03,0.011-0.045c0.02-0.05,0.021-0.104,0.029-0.156
			c0.002-0.016,0.006-0.03,0.011-0.047c0.014-0.074,0.004-0.151,0.019-0.227c0.081-0.478,0.146-0.958,0.186-1.442
			c0.004-0.056,0.013-0.11,0.035-0.161c0.063-0.122,0.017-0.255,0.042-0.382c0.002-0.02,0.006-0.038,0.011-0.057
			c0.041-0.636,0.062-1.272,0.038-1.909c-0.006-0.018-0.011-0.036-0.014-0.054c-0.028-0.136,0.026-0.283-0.062-0.41
			c-0.078-0.224-0.164-0.445-0.235-0.671c-0.011-0.071-0.019-0.144-0.072-0.199c-0.15-0.272-0.222-0.576-0.356-0.855
			c-0.061-0.124-0.145-0.236-0.176-0.374c-0.008-0.092-0.038-0.175-0.111-0.238c-0.061-0.085-0.11-0.179-0.183-0.256
			c-0.09-0.086-0.176-0.177-0.288-0.237c-0.108-0.071-0.227-0.129-0.312-0.232c-0.039-0.066-0.104-0.085-0.175-0.093
			c-0.081-0.02-0.152-0.063-0.227-0.1c-0.294-0.15-0.607-0.176-0.932-0.167c-0.379,0.011-0.729,0.121-1.072,0.261
			c-0.077,0.014-0.157,0.025-0.21,0.095c-0.228,0.195-0.328,0.471-0.463,0.725c-0.034,0.073-0.048,0.153-0.069,0.23
			c-0.136,0.3-0.161,0.633-0.288,0.936c-0.021,0.052-0.028,0.106-0.036,0.161c-0.003,0.015-0.007,0.03-0.011,0.045
			c-0.023,0.104-0.046,0.207-0.055,0.313c-0.003,0.015-0.007,0.029-0.012,0.043c-0.021,0.058-0.015,0.12-0.026,0.179
			c-0.002,0.016-0.006,0.03-0.011,0.045c-0.013,0.128-0.02,0.257,0.008,0.384c0.006,0.017,0.009,0.033,0.012,0.051
			c0.021,0.161-0.014,0.324,0.024,0.484c0.006,0.019,0.01,0.038,0.012,0.057c0.009,0.347,0.01,0.693,0.001,1.04
			c-0.001,0.019-0.005,0.038-0.01,0.056c-0.044,0.16-0.004,0.325-0.026,0.486c-0.002,0.017-0.006,0.034-0.011,0.051
			c-0.035,0.107-0.007,0.22-0.026,0.33c-0.002,0.017-0.006,0.034-0.011,0.05c-0.024,0.085-0.007,0.175-0.027,0.26
			c-0.052,0.422-0.104,0.843-0.215,1.255c-0.069,0.12-0.082,0.259-0.117,0.391c-0.026,0.088-0.046,0.179-0.068,0.268
			c-0.029,0.079-0.053,0.158-0.068,0.24c-0.076,0.205-0.101,0.427-0.2,0.624c-0.157,0.217-0.155,0.216-0.351,0.024
			c-0.413-0.406-0.81-0.83-1.236-1.222c-0.244-0.263-0.416-0.575-0.598-0.88c-0.021-0.073-0.052-0.141-0.112-0.191
			c-0.292-0.41-0.603-0.808-0.833-1.258c-0.023-0.057-0.057-0.106-0.103-0.146c-0.261-0.345-0.506-0.702-0.726-1.075
			c-0.039-0.067-0.08-0.133-0.119-0.2c-0.029-0.07-0.06-0.138-0.12-0.188c-0.293-0.4-0.583-0.801-0.823-1.236
			c-0.024-0.064-0.06-0.122-0.112-0.167c-0.265-0.343-0.499-0.706-0.724-1.076c-0.066-0.109-0.141-0.212-0.213-0.317
			c-0.521-0.759-1.014-1.536-1.529-2.298c-0.105-0.156-0.205-0.315-0.282-0.488c0.011-0.112,0.105-0.166,0.174-0.234
			c3.194-3.196,6.39-6.392,9.585-9.587c1.959-1.958,3.918-3.917,5.877-5.876C47.716,0.145,47.78,0.076,47.867,0.033z"/>
		<path fill-rule="evenodd" clip-rule="evenodd" fill="#FCFCFC" d="M7.463,17.501c0.036-0.02,0.076-0.038,0.034-0.085
			c-0.025-0.029-0.054-0.056-0.082-0.083c-1.625-1.625-3.251-3.249-4.873-4.879c-0.107-0.107-0.156-0.097-0.255,0.004
			c-0.702,0.711-1.411,1.416-2.118,2.122c-0.043,0.042-0.091,0.08-0.137,0.12c0-4.838,0.001-9.677-0.003-14.516
			c0-0.125,0.028-0.153,0.153-0.153c15.894,0.003,31.789,0.003,47.684,0.003c-0.048,0.054-0.094,0.109-0.145,0.16
			c-5.182,5.183-10.364,10.365-15.546,15.547c-0.051,0.051-0.097,0.107-0.144,0.161c-0.079,0.005-0.099-0.063-0.131-0.11
			c-0.361-0.526-0.709-1.062-1.058-1.597c-0.242-0.372-0.511-0.727-0.723-1.119c-0.004-0.131,0.141-0.16,0.18-0.261
			c0.034-0.073,0.072-0.143,0.153-0.176c0.199-0.112,0.337-0.29,0.482-0.459c0.178-0.205,0.38-0.387,0.573-0.577
			c0.401-0.396,0.819-0.776,1.217-1.178c0.23-0.234,0.453-0.481,0.717-0.683c0.103-0.028,0.134-0.134,0.21-0.19
			c0.072-0.04,0.122-0.102,0.172-0.165c0.067-0.05,0.128-0.104,0.148-0.19c0.133-0.226,0.156-0.462,0.068-0.709
			c-0.042-0.195-0.152-0.329-0.346-0.391c-0.409-0.099-0.825-0.144-1.241-0.199c-0.252-0.033-0.517-0.017-0.765-0.129
			c-0.146-0.065-0.326-0.047-0.49-0.064c-0.253-0.027-0.502-0.086-0.758-0.089c-0.095-0.001-0.188-0.009-0.271-0.062
			c-0.033-0.021-0.072-0.036-0.111-0.033c-0.258,0.02-0.51-0.043-0.758-0.084c-0.232-0.038-0.465-0.081-0.697-0.117
			C28.49,7.3,28.377,7.28,28.261,7.28c-0.245-0.001-0.412-0.083-0.537-0.328c-0.24-0.469-0.461-0.947-0.712-1.409
			c-0.035-0.064-0.059-0.132-0.087-0.198c-0.026-0.061-0.041-0.126-0.072-0.185c-0.007-0.014-0.014-0.029-0.019-0.043
			c-0.049-0.163-0.144-0.301-0.239-0.438c-0.27-0.563-0.536-1.127-0.817-1.685c-0.104-0.206-0.229-0.406-0.3-0.628
			c-0.05-0.152-0.156-0.27-0.251-0.388c-0.1-0.124-0.236-0.222-0.417-0.202c-0.022,0.002-0.045,0.003-0.066,0
			c-0.43-0.068-0.65,0.19-0.823,0.526c-0.327,0.634-0.621,1.285-0.963,1.912c-0.106,0.193-0.129,0.424-0.261,0.608
			c-0.035,0.049-0.061,0.105-0.097,0.155c-0.052,0.048-0.058,0.117-0.082,0.177c-0.258,0.54-0.509,1.083-0.803,1.605
			c-0.036,0.063-0.068,0.129-0.088,0.198c-0.067,0.228-0.237,0.324-0.453,0.316c-0.27-0.01-0.531,0.052-0.79,0.092
			c-0.203,0.031-0.412,0.066-0.615,0.109c-0.115,0.024-0.229,0.042-0.347,0.039c-0.101-0.002-0.199,0.012-0.291,0.058
			c-0.04,0.02-0.082,0.035-0.127,0.038c-0.426,0.02-0.851,0.077-1.267,0.154c-0.247,0.045-0.503,0.053-0.745,0.13
			c-0.038,0.012-0.077,0.022-0.115,0.018c-0.269-0.028-0.527,0.06-0.791,0.084c-0.197,0.019-0.421,0.057-0.576,0.225
			c-0.335,0.364-0.349,0.772,0.01,1.117c0.372,0.357,0.724,0.733,1.102,1.085c0.245,0.229,0.485,0.47,0.721,0.712
			c0.166,0.17,0.357,0.315,0.525,0.484c0.167,0.169,0.334,0.34,0.514,0.497c0.038,0.033,0.062,0.078,0.082,0.124
			c0.046,0.105,0.127,0.183,0.213,0.25c0.093,0.073,0.1,0.153,0.05,0.249c-0.066,0.128-0.123,0.262-0.196,0.386
			c-0.387,0.661-0.747,1.337-1.117,2.007c-0.231,0.417-0.468,0.832-0.694,1.251c-0.292,0.542-0.596,1.078-0.888,1.619
			c-0.234,0.435-0.496,0.854-0.709,1.3c-0.107,0.223-0.247,0.434-0.371,0.65c-0.422,0.743-0.828,1.495-1.242,2.242
			c-0.393,0.709-0.784,1.418-1.174,2.128c-0.323,0.589-0.648,1.175-0.97,1.765c-0.318,0.584-0.656,1.158-0.958,1.752
			c-0.027,0.055-0.061,0.105-0.103,0.151c-0.053,0.058-0.11,0.071-0.172,0.011c-0.201-0.342-0.344-0.709-0.477-1.079
			c-0.317-0.885-0.576-1.783-0.72-2.717c-0.126-0.82-0.2-1.641-0.179-2.468c0.016-0.644,0.098-1.282,0.212-1.916
			c0.037-0.203,0.07-0.405,0.11-0.607c0.025-0.126,0.009-0.238-0.063-0.348c-0.32-0.5-0.713-0.921-1.25-1.194
			c-0.06-0.03-0.124-0.049-0.186-0.072C7.532,17.581,7.468,17.575,7.463,17.501z"/>
		<path fill-rule="evenodd" clip-rule="evenodd" fill="#6B4AE4" d="M7.463,17.501c0.285,0.115,0.568,0.235,0.808,0.434
			c0.356,0.295,0.651,0.644,0.862,1.055c0.068,0.133-0.019,0.278-0.044,0.412c-0.09,0.496-0.168,0.993-0.217,1.494
			c-0.048,0.496-0.086,0.992-0.063,1.488c0.024,0.515,0.065,1.028,0.138,1.541c0.093,0.646,0.208,1.286,0.397,1.909
			c0.225,0.74,0.476,1.472,0.825,2.165c0.189,0.268,0.336,0.561,0.498,0.845c0.38,0.667,0.81,1.298,1.291,1.897
			c0.609,0.761,1.265,1.475,2.022,2.086c0.543,0.438,1.092,0.872,1.689,1.241c0.504,0.312,1.021,0.6,1.553,0.865
			c0.887,0.443,1.805,0.795,2.758,1.068c0.647,0.186,1.303,0.318,1.962,0.443c0.673,0.128,1.349,0.181,2.03,0.217
			c0.322,0.019,0.643,0.03,0.964,0.025c0.754-0.014,1.509-0.055,2.254-0.174c0.694-0.111,1.391-0.235,2.066-0.437
			c0.771-0.229,1.538-0.469,2.274-0.803c0.718-0.326,1.418-0.685,2.095-1.088c0.481-0.287,0.921-0.637,1.371-0.972
			c0.603-0.449,1.158-0.95,1.671-1.497c0.657-0.702,1.266-1.445,1.77-2.265c0.402-0.656,0.812-1.313,1.073-2.045
			c0.021-0.063,0.077-0.109,0.086-0.179c0.078-0.202,0.157-0.404,0.259-0.597c0.098-0.205,0.127-0.433,0.211-0.643
			c0.034-0.072,0.038-0.153,0.07-0.226c0.002-0.095,0.014-0.188,0.063-0.271c0.055-0.126,0.054-0.267,0.11-0.392
			c0.08-0.403,0.182-0.802,0.202-1.215c0.001-0.021,0.014-0.041,0.021-0.061c0.04-0.084-0.002-0.176,0.024-0.261l0.006-0.005
			c0.051-0.116-0.01-0.244,0.034-0.361v-0.001c0.049-0.175-0.01-0.356,0.033-0.532l0.001-0.001c0.031-0.377,0.027-0.755,0.001-1.133
			l0.001,0.001c-0.051-0.176,0.015-0.359-0.034-0.535L40.602,21c-0.027-0.145-0.031-0.289,0.003-0.433l-0.002,0.003
			c0.038-0.064-0.01-0.141,0.031-0.204l0,0c0.033-0.12,0.033-0.246,0.072-0.365l-0.002,0.003c0.029-0.054-0.002-0.116,0.024-0.17
			c0.108-0.325,0.16-0.667,0.305-0.979c0.034-0.071,0.039-0.15,0.067-0.223c0.125-0.265,0.229-0.544,0.467-0.738
			c0.061-0.046,0.127-0.081,0.203-0.094c0.328-0.136,0.658-0.242,1.02-0.271c0.318-0.025,0.617,0.014,0.914,0.112
			c0.125,0.042,0.227,0.136,0.359,0.159c0.064,0.02,0.12,0.056,0.168,0.104c0.085,0.098,0.2,0.155,0.303,0.229
			c0.1,0.081,0.189,0.175,0.296,0.249c0.073,0.074,0.134,0.158,0.18,0.251c0.062,0.068,0.088,0.154,0.122,0.236
			c0.132,0.305,0.266,0.608,0.396,0.914c0.045,0.104,0.082,0.212,0.123,0.319c0.069,0.048,0.047,0.135,0.083,0.197
			c0.078,0.223,0.156,0.445,0.235,0.668c0.083,0.137,0.023,0.294,0.061,0.438l-0.002-0.003c0.042,0.049,0.021,0.107,0.021,0.16
			c0.003,0.35,0.026,0.703-0.006,1.049c-0.025,0.263,0.004,0.529-0.049,0.789l0.003-0.003c-0.036,0.133,0.012,0.272-0.027,0.404
			c-0.078,0.147-0.046,0.313-0.063,0.467c-0.047,0.391-0.108,0.78-0.172,1.168c-0.047,0.072,0.012,0.16-0.035,0.232l0.001-0.002
			c-0.038,0.051,0.004,0.116-0.031,0.168l-0.001,0.002c-0.036,0.119-0.026,0.247-0.079,0.363c-0.038,0.037-0.015,0.087-0.023,0.13
			c-0.033,0.101-0.018,0.215-0.086,0.306c-0.083,0.349-0.188,0.691-0.298,1.033c-0.01,0.031-0.011,0.064-0.015,0.097
			c-0.036,0.112-0.057,0.229-0.113,0.333c-0.129,0.355-0.258,0.711-0.388,1.066c-0.026,0.106-0.064,0.209-0.12,0.304
			c-0.104,0.233-0.208,0.466-0.313,0.699c-0.043,0.101-0.085,0.204-0.146,0.297c-0.101,0.215-0.246,0.407-0.319,0.636
			c-0.063,0.083-0.088,0.188-0.154,0.269c-0.138,0.231-0.275,0.465-0.413,0.696c-0.024,0.045-0.027,0.102-0.071,0.135
			c-0.084,0.043-0.083,0.138-0.127,0.204c-0.028,0.159-0.144,0.271-0.222,0.4c-0.239,0.394-0.534,0.749-0.813,1.115
			c-0.352,0.464-0.724,0.91-1.121,1.334c-0.405,0.434-0.826,0.853-1.26,1.259c-0.231,0.216-0.467,0.429-0.718,0.618
			c-0.491,0.371-0.964,0.767-1.472,1.116c-0.458,0.313-0.92,0.622-1.405,0.891c-0.553,0.306-1.099,0.625-1.681,0.874
			c-0.137,0.058-0.169,0.15-0.168,0.287c0.003,1.232,0.002,2.465,0.001,3.697c0,0.081,0.018,0.168-0.041,0.24
			c-0.002,1.11-0.003,2.221-0.005,3.332c-0.001,0.434-0.003,0.866,0.002,1.3c0.001,0.1-0.024,0.148-0.13,0.132
			c-0.011-0.002-0.022-0.001-0.033-0.001c-6.576,0-13.153,0-19.729,0c-0.044-0.042-0.022-0.095-0.022-0.142
			c0.021-3.024-0.052-6.05-0.028-9.073c0.002-0.181-0.038-0.303-0.209-0.388c-0.422-0.21-0.821-0.463-1.221-0.713
			c-0.552-0.345-1.071-0.732-1.585-1.13c-0.434-0.337-0.869-0.671-1.27-1.048c-0.433-0.406-0.85-0.829-1.262-1.257
			c-0.254-0.264-0.49-0.544-0.722-0.826c-0.222-0.269-0.434-0.547-0.642-0.828c-0.028-0.038-0.035-0.081-0.048-0.123
			c-0.111-0.076-0.157-0.204-0.236-0.306c-0.106-0.137-0.196-0.286-0.293-0.43c-0.031-0.081-0.083-0.148-0.132-0.218
			c-0.07-0.105-0.139-0.212-0.209-0.317c-0.025-0.04-0.038-0.086-0.062-0.126c-0.123-0.138-0.195-0.309-0.282-0.466
			c-0.043-0.079-0.087-0.16-0.13-0.24C5.788,31.29,5.77,31.184,5.7,31.108c-0.106-0.215-0.213-0.43-0.319-0.646
			c-0.065-0.087-0.093-0.194-0.147-0.287c-0.131-0.225-0.207-0.473-0.311-0.709c-0.057-0.092-0.087-0.193-0.122-0.294
			c-0.144-0.283-0.213-0.595-0.324-0.89c-0.023-0.062-0.102-0.103-0.075-0.183c-0.032-0.109-0.064-0.219-0.101-0.326
			c-0.128-0.374-0.217-0.759-0.311-1.141c-0.067-0.088-0.051-0.2-0.089-0.296c-0.056-0.035-0.021-0.093-0.034-0.138
			c-0.027-0.121-0.034-0.246-0.066-0.365l-0.001-0.002c-0.035-0.052,0.007-0.117-0.031-0.168l0.001,0.002
			c-0.047-0.069,0.011-0.155-0.035-0.225c-0.069-0.38-0.123-0.762-0.172-1.145c-0.021-0.166,0.02-0.341-0.063-0.499
			c-0.039-0.132,0.009-0.271-0.027-0.404l0.002,0.003c-0.007-0.008-0.019-0.018-0.02-0.026c-0.021-0.643-0.053-1.284-0.036-1.928
			c0-0.019,0.013-0.03,0.021-0.043l-0.002,0.003c0.028-0.147,0.004-0.296,0.014-0.445c0.003-0.053-0.019-0.11,0.02-0.159
			l-0.002,0.003c0.052-0.118-0.034-0.253,0.046-0.368c0.101-0.197,0.131-0.423,0.25-0.613c0.049-0.111,0.115-0.215,0.169-0.324
			c0.248-0.393,0.52-0.762,0.861-1.082c0.256-0.24,0.54-0.434,0.836-0.615c0.077-0.036,0.157-0.067,0.234-0.103
			c0.266-0.153,0.557-0.216,0.858-0.229C6.971,17.46,7.218,17.459,7.463,17.501z"/>
		<path fill-rule="evenodd" clip-rule="evenodd" fill="#D8CCFE" d="M39.627,27.233c-0.044,0.199-0.146,0.376-0.227,0.561
			c-0.219,0.496-0.494,0.963-0.771,1.429c-0.274,0.466-0.579,0.912-0.914,1.336c-0.229,0.29-0.477,0.563-0.711,0.848
			c-0.24,0.291-0.518,0.547-0.783,0.814c-0.521,0.527-1.116,0.966-1.707,1.41c-0.828,0.624-1.738,1.109-2.67,1.554
			c-0.751,0.357-1.535,0.633-2.337,0.861c-0.565,0.161-1.136,0.301-1.713,0.403c-0.432,0.077-0.865,0.144-1.304,0.185
			c-0.71,0.066-1.422,0.12-2.134,0.094c-0.561-0.021-1.121-0.06-1.68-0.127c-0.826-0.1-1.638-0.256-2.438-0.475
			c-0.796-0.219-1.579-0.476-2.335-0.816c-0.374-0.168-0.737-0.355-1.103-0.537c-0.812-0.403-1.557-0.912-2.279-1.458
			c-0.673-0.507-1.3-1.067-1.868-1.688c-0.658-0.721-1.268-1.479-1.767-2.324c-0.23-0.39-0.449-0.786-0.67-1.181
			c-0.021-0.038-0.033-0.081-0.049-0.121c0.085,0.047,0.108-0.027,0.135-0.075c0.145-0.262,0.278-0.529,0.43-0.786
			c0.25-0.423,0.481-0.857,0.713-1.29c0.225-0.419,0.476-0.822,0.681-1.252c0.176-0.368,0.406-0.71,0.605-1.068
			c0.282-0.507,0.555-1.019,0.834-1.527c0.282-0.513,0.568-1.024,0.853-1.537c0.171-0.309,0.331-0.625,0.515-0.928
			c0.241-0.397,0.451-0.811,0.673-1.217c0.223-0.406,0.459-0.806,0.667-1.222c0.25-0.499,0.54-0.977,0.812-1.464
			c0.217-0.391,0.422-0.788,0.652-1.171c0.25-0.418,0.443-0.866,0.71-1.274c0.103-0.156,0.171-0.335,0.258-0.501
			c0.034-0.066,0.027-0.111-0.038-0.154c-0.101-0.067-0.183-0.153-0.234-0.265c0.183,0.039,0.275,0.19,0.391,0.313
			c0.028,0.096,0.123,0.13,0.185,0.195c0.017,0.016,0.031,0.034,0.043,0.053c0.03,0.054,0.076,0.093,0.128,0.125
			c0.045,0.034,0.085,0.075,0.128,0.111c0.169,0.11,0.212,0.256,0.18,0.458c-0.087,0.535-0.186,1.068-0.273,1.603
			c-0.051,0.315-0.098,0.632-0.153,0.946c-0.037,0.214-0.036,0.436-0.126,0.647c-0.069,0.162-0.061,0.358-0.08,0.537
			c-0.022,0.204-0.052,0.41-0.096,0.604c-0.046,0.205-0.069,0.412-0.118,0.614c-0.057,0.242-0.056,0.489-0.016,0.727
			c0.064,0.378,0.551,0.619,0.917,0.485c0.142-0.053,0.265-0.138,0.398-0.205c0.514-0.26,1.019-0.538,1.53-0.802
			c0.315-0.163,0.631-0.325,0.94-0.496c0.459-0.254,0.938-0.475,1.395-0.735c0.244-0.139,0.498-0.266,0.754-0.386
			c0.07-0.033,0.138-0.032,0.209-0.002c0.297,0.124,0.575,0.284,0.857,0.435c0.273,0.146,0.543,0.299,0.822,0.436
			c0.378,0.184,0.749,0.38,1.115,0.586c0.242,0.135,0.493,0.252,0.736,0.386c0.062,0.073,0.138,0.119,0.234,0.129
			c0.35,0.189,0.723,0.338,1.058,0.554c0.357,0.231,0.835,0.146,1.076-0.205c0.045-0.065,0.076-0.138,0.076-0.217
			c0.001-0.248,0.001-0.493-0.034-0.744c-0.052-0.377-0.169-0.739-0.206-1.12c-0.02-0.191-0.08-0.385-0.108-0.582
			c-0.038-0.279-0.073-0.558-0.118-0.836c-0.033-0.211-0.097-0.417-0.124-0.632c-0.028-0.213-0.063-0.427-0.107-0.636
			c-0.078-0.357-0.096-0.726-0.187-1.078c-0.055-0.213,0.001-0.341,0.162-0.455c0.034-0.018,0.068-0.032,0.107-0.016
			c0.139,0.118,0.191,0.292,0.29,0.436c0.285,0.419,0.58,0.833,0.848,1.263c0.242,0.388,0.508,0.759,0.764,1.137
			c0.339,0.542,0.703,1.066,1.049,1.603c0.296,0.458,0.619,0.897,0.909,1.358c0.24,0.382,0.491,0.757,0.74,1.133
			c0.018,0.027,0.044,0.048,0.065,0.071c0.023,0.062,0.063,0.115,0.103,0.167c0.23,0.403,0.509,0.775,0.765,1.161
			c0.018,0.027,0.044,0.048,0.066,0.071c0.028,0.069,0.075,0.128,0.103,0.198c0.131,0.122,0.185,0.293,0.283,0.437
			c0.191,0.28,0.37,0.567,0.58,0.833c0.024,0.052,0.048,0.106,0.103,0.136c0.222,0.458,0.538,0.853,0.831,1.264
			c0.029,0.069,0.076,0.128,0.104,0.198c0.18,0.271,0.358,0.542,0.538,0.812c0.016,0.021,0.039,0.037,0.06,0.056
			c0.396,0.56,0.775,1.133,1.156,1.703C39.524,27.161,39.553,27.22,39.627,27.233z"/>
		<path fill-rule="evenodd" clip-rule="evenodd" fill="#D8CCFE" d="M34.102,44.234c-0.001-1.354-0.002-2.708-0.007-4.063
			c0-0.101,0.053-0.138,0.127-0.169c0.349-0.153,0.686-0.33,1.022-0.508c0.987-0.519,1.918-1.123,2.812-1.791
			c0.963-0.72,1.851-1.522,2.674-2.395c0.237-0.252,0.46-0.52,0.685-0.784c0.481-0.567,0.937-1.151,1.345-1.772
			c0.078-0.119,0.161-0.233,0.242-0.351c0.009,0.125,0.084,0.212,0.163,0.299c0.042,0.108,0.129,0.189,0.169,0.299
			c0.256,0.378,0.512,0.756,0.769,1.134c0.058,0.087,0.127,0.167,0.165,0.267c0.269,0.387,0.502,0.798,0.797,1.167
			c0.029,0.069,0.076,0.129,0.104,0.199c0.271,0.403,0.526,0.818,0.83,1.201c0.041,0.107,0.129,0.19,0.169,0.299
			c0.257,0.39,0.512,0.777,0.768,1.167c0.063,0.054,0.101,0.125,0.134,0.199c0.24,0.358,0.482,0.716,0.724,1.074
			c0.027,0.042,0.052,0.085,0.077,0.127c0.062,0.055,0.101,0.125,0.132,0.199c0.199,0.299,0.39,0.604,0.6,0.895
			c0.142,0.196,0.206,0.423,0.299,0.639c0.042,0.05-0.006,0.118,0.034,0.168v-0.001c0.028,0.178,0.027,0.355,0,0.533v-0.001
			c-0.039,0.051,0.006,0.117-0.033,0.168c-0.032,0.063-0.004,0.146-0.067,0.2c-0.24,0.487-0.526,0.939-0.963,1.281
			c-0.287,0.225-0.619,0.315-0.974,0.315c-4.188,0.003-8.373,0.002-12.561,0.002C34.258,44.232,34.18,44.233,34.102,44.234z"/>
		<path fill-rule="evenodd" clip-rule="evenodd" fill="#D8CCFE" d="M7.198,33.47c0.231,0.299,0.453,0.605,0.697,0.894
			c0.611,0.724,1.255,1.418,1.955,2.056c0.859,0.784,1.783,1.49,2.756,2.13c0.479,0.315,0.976,0.602,1.48,0.873
			c0.079,0.042,0.124,0.086,0.109,0.178c-0.006,0.038-0.001,0.078-0.001,0.117c0.001,3.032,0.003,6.064,0.004,9.098
			c0,0.061,0.005,0.121,0.008,0.183c-0.073-0.049-0.04-0.122-0.04-0.184c-0.002-1.46-0.004-2.921,0.002-4.381
			c0-0.159-0.04-0.204-0.202-0.204c-2.96,0.006-5.92,0.004-8.88,0.004c-0.206,0-0.393,0.085-0.588,0.133
			c-0.167,0.029-0.333,0.026-0.5,0.003c-0.645-0.127-1.152-0.436-1.396-1.08c-0.037-0.096-0.132-0.171-0.107-0.289
			c-0.035-0.051,0.008-0.116-0.031-0.166l0,0c-0.027-0.222-0.027-0.443,0-0.666l0,0.001c0.039-0.051-0.005-0.116,0.031-0.167
			c0.046-0.247,0.161-0.472,0.309-0.661c0.174-0.222,0.318-0.457,0.447-0.705c0.02-0.038,0.052-0.069,0.079-0.104
			c0.036-0.075,0.068-0.152,0.101-0.23c0.148-0.136,0.181-0.336,0.278-0.501c0.299-0.508,0.582-1.024,0.859-1.544
			c0.179-0.335,0.361-0.668,0.562-0.99c0.026-0.07,0.078-0.126,0.101-0.198c0.144-0.257,0.289-0.513,0.433-0.77
			c0.031-0.095,0.1-0.171,0.134-0.264c0.149-0.226,0.236-0.485,0.399-0.702c0.032-0.067,0.055-0.138,0.1-0.197
			c0.227-0.419,0.455-0.838,0.681-1.257C7.054,33.741,7.125,33.605,7.198,33.47z"/>
		<path fill-rule="evenodd" clip-rule="evenodd" fill="#FCFCFC" d="M39.627,27.233c-0.033,0.023-0.055,0.097-0.105,0.01
			c-0.368-0.626-0.83-1.192-1.188-1.826c-0.002-0.004-0.001-0.011-0.002-0.017c0.312,0.267,0.582,0.573,0.876,0.857
			c0.146,0.142,0.291,0.288,0.434,0.435c0.068,0.068,0.13,0.144,0.165-0.022c0.004-0.016,0.033-0.024,0.05-0.036
			C39.79,26.837,39.733,27.044,39.627,27.233z"/>
		<path fill-rule="evenodd" clip-rule="evenodd" fill="#FCFCFC" d="M45.993,23.398c0.025-0.666,0.068-1.331,0.034-1.997
			c0.06,0.039,0.038,0.099,0.038,0.152c0.002,0.366,0.018,0.733-0.005,1.098c-0.014,0.227-0.023,0.453-0.028,0.679
			C46.032,23.36,46.02,23.384,45.993,23.398z"/>
		<path fill-rule="evenodd" clip-rule="evenodd" fill="#FCFCFC" d="M3.439,21.401c0,0.484-0.039,0.967,0.022,1.452
			c0.022,0.179,0.008,0.363,0.011,0.545c-0.026-0.015-0.038-0.039-0.039-0.068c-0.022-0.614-0.047-1.229-0.034-1.844
			C3.401,21.452,3.405,21.42,3.439,21.401z"/>
		<path fill-rule="evenodd" clip-rule="evenodd" fill="#FCFCFC" d="M40.634,21.532c0.061,0.215,0.022,0.434,0.024,0.65
			c0.001,0.16,0.037,0.326-0.025,0.483C40.633,22.288,40.634,21.91,40.634,21.532z"/>
		<path fill-rule="evenodd" clip-rule="evenodd" fill="#FCFCFC" d="M2.468,42.167c0,0.223,0,0.444,0,0.666
			C2.412,42.611,2.411,42.39,2.468,42.167z"/>
		<path fill-rule="evenodd" clip-rule="evenodd" fill="#FCFCFC" d="M3.471,20.801c-0.027,0.2,0.028,0.405-0.034,0.604
			C3.45,21.203,3.39,20.998,3.471,20.801z"/>
		<path fill-rule="evenodd" clip-rule="evenodd" fill="#FCFCFC" d="M40.632,22.667c-0.027,0.176,0.03,0.358-0.033,0.532
			C40.618,23.022,40.563,22.84,40.632,22.667z"/>
		<path fill-rule="evenodd" clip-rule="evenodd" fill="#FCFCFC" d="M48.933,42.267c0-0.178,0-0.355,0-0.533
			C48.988,41.911,48.987,42.089,48.933,42.267z"/>
		<path fill-rule="evenodd" clip-rule="evenodd" fill="#FCFCFC" d="M40.601,20.999c0.058,0.175,0.005,0.357,0.034,0.535
			C40.561,21.359,40.618,21.177,40.601,20.999z"/>
		<path fill-rule="evenodd" clip-rule="evenodd" fill="#FCFCFC" d="M4,44.368c0.167-0.001,0.333-0.002,0.5-0.003
			C4.334,44.424,4.167,44.417,4,44.368z"/>
		<path fill-rule="evenodd" clip-rule="evenodd" fill="#FCFCFC" d="M44.83,18.382c-0.12-0.059-0.212-0.149-0.296-0.249
			C44.658,18.185,44.751,18.275,44.83,18.382z"/>
		<path fill-rule="evenodd" clip-rule="evenodd" fill="#FCFCFC" d="M40.311,25.103c-0.027,0.133-0.035,0.271-0.11,0.392
			C40.215,25.357,40.233,25.222,40.311,25.103z"/>
		<path fill-rule="evenodd" clip-rule="evenodd" fill="#FCFCFC" d="M3.935,19.5c-0.027,0.124-0.107,0.219-0.169,0.324
			C3.778,19.692,3.853,19.594,3.935,19.5z"/>
		<path fill-rule="evenodd" clip-rule="evenodd" fill="#FCFCFC" d="M46.029,21.405c-0.062-0.14,0-0.297-0.061-0.438
			C46.085,21.1,46.016,21.258,46.029,21.405z"/>
		<path fill-rule="evenodd" clip-rule="evenodd" fill="#FCFCFC" d="M43.333,33c-0.066-0.094-0.159-0.174-0.169-0.299
			C43.236,32.791,43.328,32.871,43.333,33z"/>
		<path fill-rule="evenodd" clip-rule="evenodd" fill="#FCFCFC" d="M40.604,20.567c-0.021,0.144-0.019,0.288-0.003,0.433
			C40.546,20.855,40.541,20.711,40.604,20.567z"/>
		<path fill-rule="evenodd" clip-rule="evenodd" fill="#FCFCFC" d="M46.166,37.267c-0.065-0.094-0.158-0.174-0.169-0.299
			C46.069,37.058,46.162,37.138,46.166,37.267z"/>
		<path fill-rule="evenodd" clip-rule="evenodd" fill="#FCFCFC" d="M45.969,23.799c0.011-0.135-0.035-0.273,0.027-0.404
			C45.988,23.53,46.032,23.668,45.969,23.799z"/>
		<path fill-rule="evenodd" clip-rule="evenodd" fill="#FCFCFC" d="M45.053,28.097c0.033-0.112,0.057-0.229,0.113-0.333
			C45.163,27.887,45.142,28.003,45.053,28.097z"/>
		<path fill-rule="evenodd" clip-rule="evenodd" fill="#FCFCFC" d="M4.3,27.774c0.052,0.104,0.102,0.207,0.101,0.326
			C4.337,28.001,4.302,27.894,4.3,27.774z"/>
		<path fill-rule="evenodd" clip-rule="evenodd" fill="#FCFCFC" d="M40.706,20.001c-0.014,0.124-0.025,0.248-0.072,0.365
			C40.632,20.24,40.636,20.114,40.706,20.001z"/>
		<path fill-rule="evenodd" clip-rule="evenodd" fill="#FCFCFC" d="M4.8,29.173c0.059,0.091,0.088,0.193,0.122,0.294
			C4.835,29.388,4.801,29.287,4.8,29.173z"/>
		<path fill-rule="evenodd" clip-rule="evenodd" fill="#FCFCFC" d="M44.545,29.467c0.04-0.102,0.08-0.202,0.12-0.304
			C44.671,29.282,44.634,29.385,44.545,29.467z"/>
		<path fill-rule="evenodd" clip-rule="evenodd" fill="#FCFCFC" d="M45.588,26.198c0.03-0.121,0.026-0.248,0.079-0.363
			C45.666,25.961,45.666,26.088,45.588,26.198z"/>
		<path fill-rule="evenodd" clip-rule="evenodd" fill="#FCFCFC" d="M3.471,23.395c0.062,0.131,0.016,0.27,0.027,0.405
			C3.434,23.668,3.478,23.53,3.471,23.395z"/>
		<path fill-rule="evenodd" clip-rule="evenodd" fill="#FCFCFC" d="M5.233,30.176c0.071,0.085,0.107,0.188,0.147,0.287
			C5.286,30.391,5.252,30.287,5.233,30.176z"/>
		<path fill-rule="evenodd" clip-rule="evenodd" fill="#FCFCFC" d="M44.086,30.463c0.038-0.104,0.085-0.205,0.146-0.297
			C44.22,30.283,44.183,30.388,44.086,30.463z"/>
		<path fill-rule="evenodd" clip-rule="evenodd" fill="#FCFCFC" d="M3.799,25.835c0.043,0.118,0.066,0.239,0.066,0.365
			C3.81,26.084,3.798,25.96,3.799,25.835z"/>
		<path fill-rule="evenodd" clip-rule="evenodd" fill="#FCFCFC" d="M43.612,31.367c0.045-0.094,0.071-0.197,0.154-0.269
			C43.735,31.199,43.711,31.305,43.612,31.367z"/>
		<path fill-rule="evenodd" clip-rule="evenodd" fill="#FCFCFC" d="M5.7,31.108c0.093,0.062,0.107,0.17,0.154,0.259
			C5.754,31.31,5.739,31.202,5.7,31.108z"/>
		<path fill-rule="evenodd" clip-rule="evenodd" fill="#FCFCFC" d="M44.267,34.4c-0.063-0.084-0.138-0.161-0.165-0.267
			C44.194,34.199,44.258,34.282,44.267,34.4z"/>
		<path fill-rule="evenodd" clip-rule="evenodd" fill="#FCFCFC" d="M45.479,26.634c0.035-0.101,0.032-0.211,0.086-0.306
			C45.563,26.438,45.576,26.551,45.479,26.634z"/>
		<path fill-rule="evenodd" clip-rule="evenodd" fill="#FCFCFC" d="M3.9,26.338c0.063,0.089,0.052,0.199,0.089,0.296
			C3.896,26.554,3.901,26.445,3.9,26.338z"/>
		<path fill-rule="evenodd" clip-rule="evenodd" fill="#FCFCFC" d="M5.8,36.033c-0.003,0.109-0.078,0.182-0.134,0.264
			C5.664,36.185,5.734,36.11,5.8,36.033z"/>
		<path fill-rule="evenodd" clip-rule="evenodd" fill="#FCFCFC" d="M3.516,20.436c-0.044,0.119,0.025,0.252-0.046,0.368
			C3.488,20.682,3.415,20.548,3.516,20.436z"/>
		<path fill-rule="evenodd" clip-rule="evenodd" fill="#FCFCFC" d="M40.599,23.2c-0.028,0.119,0.024,0.245-0.034,0.361
			C40.585,23.441,40.529,23.315,40.599,23.2z"/>
		<path fill-rule="evenodd" clip-rule="evenodd" fill="#FCFCFC" d="M45.132,18.87c-0.041-0.079-0.081-0.157-0.122-0.236
			C45.107,18.683,45.127,18.772,45.132,18.87z"/>
		<path fill-rule="evenodd" clip-rule="evenodd" fill="#FCFCFC" d="M6.537,32.517c0.058,0.064,0.127,0.121,0.132,0.218
			C6.608,32.672,6.556,32.604,6.537,32.517z"/>
		<path fill-rule="evenodd" clip-rule="evenodd" fill="#FCFCFC" d="M5.867,17.7c-0.074,0.044-0.144,0.096-0.234,0.103
			C5.697,17.738,5.774,17.701,5.867,17.7z"/>
		<path fill-rule="evenodd" clip-rule="evenodd" fill="#FCFCFC" d="M47.067,38.633c-0.045-0.066-0.089-0.133-0.134-0.199
			C47.025,38.469,47.067,38.537,47.067,38.633z"/>
		<path fill-rule="evenodd" clip-rule="evenodd" fill="#FCFCFC" d="M48,40.033c-0.055-0.06-0.1-0.126-0.132-0.199
			C47.959,39.87,48.001,39.938,48,40.033z"/>
		<path fill-rule="evenodd" clip-rule="evenodd" fill="#FCFCFC" d="M3.434,40.3c-0.002,0.091-0.039,0.166-0.101,0.23
			C3.334,40.439,3.373,40.364,3.434,40.3z"/>
		<path fill-rule="evenodd" clip-rule="evenodd" fill="#FCFCFC" d="M40.137,25.766c-0.008,0.08-0.03,0.155-0.07,0.226
			C40.065,25.908,40.078,25.83,40.137,25.766z"/>
		<path fill-rule="evenodd" clip-rule="evenodd" fill="#FCFCFC" d="M35.833,21.665c-0.051-0.058-0.104-0.113-0.103-0.198
			C35.786,21.522,35.84,21.578,35.833,21.665z"/>
		<path fill-rule="evenodd" clip-rule="evenodd" fill="#FCFCFC" d="M37.733,24.533c-0.05-0.058-0.104-0.114-0.104-0.198
			C37.687,24.389,37.74,24.445,37.733,24.533z"/>
		<path fill-rule="evenodd" clip-rule="evenodd" fill="#FCFCFC" d="M40.559,23.566c-0.017,0.086,0.021,0.177-0.024,0.261
			C40.544,23.74,40.508,23.648,40.559,23.566z"/>
		<path fill-rule="evenodd" clip-rule="evenodd" fill="#FCFCFC" d="M45.167,35.767c-0.05-0.059-0.105-0.113-0.104-0.199
			C45.12,35.622,45.173,35.679,45.167,35.767z"/>
		<path fill-rule="evenodd" clip-rule="evenodd" fill="#FCFCFC" d="M41.101,18.633c-0.004,0.08-0.026,0.154-0.067,0.223
			C41.032,18.774,41.046,18.697,41.101,18.633z"/>
		<path fill-rule="evenodd" clip-rule="evenodd" fill="#FCFCFC" d="M41.771,17.801c-0.067,0.032-0.136,0.063-0.203,0.094
			C41.611,17.812,41.683,17.79,41.771,17.801z"/>
		<path fill-rule="evenodd" clip-rule="evenodd" fill="#FCFCFC" d="M6.299,35.134c-0.015,0.074-0.043,0.143-0.1,0.197
			C6.201,35.249,6.224,35.178,6.299,35.134z"/>
		<path fill-rule="evenodd" clip-rule="evenodd" fill="#FCFCFC" d="M5.234,37.066c0.007,0.087-0.05,0.141-0.101,0.198
			C5.125,37.178,5.183,37.124,5.234,37.066z"/>
		<path fill-rule="evenodd" clip-rule="evenodd" fill="#FCFCFC" d="M45.733,20.299c-0.027-0.065-0.056-0.131-0.083-0.197
			C45.741,20.142,45.731,20.223,45.733,20.299z"/>
		<path fill-rule="evenodd" clip-rule="evenodd" fill="#FCFCFC" d="M34.899,20.235c-0.064-0.038-0.104-0.089-0.103-0.167
			C34.846,20.115,34.893,20.162,34.899,20.235z"/>
		<path fill-rule="evenodd" clip-rule="evenodd" fill="#FCFCFC" d="M44.231,17.905c-0.069-0.013-0.108-0.075-0.168-0.104
			C44.146,17.792,44.201,17.83,44.231,17.905z"/>
		<path fill-rule="evenodd" clip-rule="evenodd" fill="#FCFCFC" d="M3.733,25.442c0.048,0.068,0.005,0.152,0.035,0.225
			C3.701,25.601,3.747,25.518,3.733,25.442z"/>
		<path fill-rule="evenodd" clip-rule="evenodd" fill="#FCFCFC" d="M45.698,25.667c0.029-0.075-0.012-0.16,0.035-0.232
			C45.72,25.512,45.766,25.598,45.698,25.667z"/>
		<path fill-rule="evenodd" clip-rule="evenodd" fill="#FCFCFC" d="M48.832,42.634c0.028-0.065,0.019-0.143,0.067-0.2
			C48.894,42.506,48.927,42.591,48.832,42.634z"/>
		<path fill-rule="evenodd" clip-rule="evenodd" fill="#FCFCFC" d="M36.799,23.07c-0.081-0.01-0.101-0.067-0.103-0.136
			C36.731,22.979,36.765,23.025,36.799,23.07z"/>
		<path fill-rule="evenodd" clip-rule="evenodd" fill="#FCFCFC" d="M40.634,20.367c-0.021,0.066,0.017,0.142-0.031,0.204
			C40.609,20.502,40.572,20.427,40.634,20.367z"/>
		<path fill-rule="evenodd" clip-rule="evenodd" fill="#FCFCFC" d="M40.729,19.835c-0.004,0.057,0.026,0.119-0.024,0.17
			C40.705,19.947,40.681,19.886,40.729,19.835z"/>
		<path fill-rule="evenodd" clip-rule="evenodd" fill="#FCFCFC" d="M48.933,41.734c-0.055-0.048-0.023-0.111-0.034-0.168
			C48.957,41.613,48.926,41.678,48.933,41.734z"/>
		<path fill-rule="evenodd" clip-rule="evenodd" fill="#FCFCFC" d="M3.768,25.665c0.045,0.05,0.013,0.113,0.031,0.168
			C3.745,25.785,3.773,25.723,3.768,25.665z"/>
		<path fill-rule="evenodd" clip-rule="evenodd" fill="#FCFCFC" d="M2.499,42.001c-0.006,0.057,0.023,0.119-0.031,0.167
			C2.474,42.111,2.445,42.048,2.499,42.001z"/>
		<path fill-rule="evenodd" clip-rule="evenodd" fill="#FCFCFC" d="M45.668,25.833c0.019-0.055-0.014-0.118,0.031-0.168
			C45.693,25.723,45.722,25.785,45.668,25.833z"/>
		<path fill-rule="evenodd" clip-rule="evenodd" fill="#FCFCFC" d="M48.899,42.434c0.01-0.057-0.021-0.12,0.033-0.168
			C48.926,42.322,48.955,42.386,48.899,42.434z"/>
		<path fill-rule="evenodd" clip-rule="evenodd" fill="#FCFCFC" d="M43.128,32.198c0.015-0.05,0.032-0.098,0.071-0.135
			C43.203,32.123,43.196,32.177,43.128,32.198z"/>
		<path fill-rule="evenodd" clip-rule="evenodd" fill="#FCFCFC" d="M2.467,42.833c0.054,0.047,0.025,0.109,0.031,0.166
			C2.445,42.951,2.474,42.889,2.467,42.833z"/>
		<path fill-rule="evenodd" clip-rule="evenodd" fill="#FCFCFC" d="M6.267,32.073c0.045,0.03,0.063,0.073,0.062,0.126
			C6.274,32.174,6.263,32.127,6.267,32.073z"/>
		<path fill-rule="evenodd" clip-rule="evenodd" d="M30.068,13.1c-0.198,0.134-0.206,0.174-0.142,0.41
			c0.043,0.154,0.044,0.319,0.055,0.475c0.018,0.253,0.115,0.485,0.138,0.737c0.027,0.31,0.069,0.626,0.145,0.926
			c0.111,0.448,0.12,0.91,0.223,1.353c0.044,0.189,0.061,0.382,0.111,0.568c0.018,0.064,0.025,0.128,0.037,0.193
			c0.043,0.228,0.107,0.451,0.132,0.682c0.032,0.311,0.102,0.624-0.036,0.928c-0.13,0.285-0.604,0.473-0.901,0.366
			c-0.317-0.115-0.584-0.333-0.902-0.444c-0.154-0.054-0.255-0.202-0.422-0.231c-0.073-0.035-0.148-0.067-0.205-0.129
			c-0.271-0.11-0.518-0.265-0.777-0.395c-0.23-0.116-0.454-0.247-0.684-0.365c-0.306-0.158-0.618-0.304-0.918-0.476
			c-0.208-0.119-0.411-0.264-0.65-0.336c-0.153-0.046-0.282-0.156-0.425-0.23c-0.234-0.121-0.391,0.042-0.564,0.121
			c-0.051,0.022-0.109,0.059-0.166,0.085c-0.338,0.157-0.652,0.358-0.99,0.517c-0.297,0.14-0.596,0.286-0.875,0.456
			c-0.261,0.159-0.541,0.281-0.801,0.441c-0.199,0.122-0.428,0.211-0.636,0.327c-0.212,0.119-0.426,0.237-0.646,0.338
			c-0.273,0.125-0.507,0.339-0.833,0.35c-0.388,0.012-0.798-0.323-0.781-0.752c0.013-0.316,0.032-0.636,0.104-0.936
			c0.104-0.438,0.12-0.889,0.225-1.321c0.113-0.465,0.124-0.944,0.231-1.404c0.101-0.433,0.134-0.875,0.231-1.303
			c0.042-0.187,0.044-0.379,0.103-0.558c0.055-0.167,0.021-0.277-0.124-0.364c-0.022-0.014-0.036-0.041-0.054-0.062
			c-0.026-0.032-0.049-0.067-0.081-0.094c-0.065-0.029-0.114-0.079-0.159-0.133c-0.011-0.012-0.021-0.024-0.033-0.037
			c-0.04-0.092-0.157-0.108-0.196-0.202c-0.114-0.119-0.221-0.245-0.364-0.332c-0.077-0.169-0.238-0.267-0.362-0.388
			c-0.167-0.163-0.345-0.319-0.504-0.489c-0.1-0.107-0.219-0.192-0.322-0.292c-0.423-0.412-0.845-0.823-1.251-1.251
			c-0.19-0.2-0.409-0.374-0.601-0.575c-0.161-0.17-0.241-0.561-0.141-0.773c0.121-0.255,0.291-0.428,0.595-0.498
			c0.35-0.081,0.702-0.095,1.051-0.151c0.197-0.031,0.405-0.016,0.589-0.071c0.498-0.15,1.018-0.123,1.517-0.228
			c0.376-0.079,0.766-0.08,1.13-0.173c0.417-0.106,0.843-0.101,1.258-0.191c0.14-0.03,0.14-0.133,0.173-0.205
			c0.168-0.367,0.381-0.711,0.542-1.079c0.102-0.231,0.243-0.443,0.322-0.683c0.014-0.041,0.033-0.068,0.067-0.088
			c0.034-0.05,0.024-0.119,0.068-0.166c0.127-0.255,0.226-0.525,0.353-0.776c0.163-0.321,0.32-0.646,0.491-0.964
			c0.125-0.233,0.242-0.474,0.347-0.719c0.088-0.204,0.197-0.409,0.343-0.572c0.092-0.103,0.22-0.225,0.399-0.211
			c0.122,0.01,0.244-0.003,0.366,0.003c0.206,0.01,0.326,0.144,0.443,0.298c0.278,0.367,0.412,0.806,0.632,1.201
			c0.16,0.287,0.309,0.583,0.436,0.885c0.078,0.189,0.191,0.361,0.254,0.556c0.072,0.158,0.181,0.299,0.233,0.467h-0.001
			c0.035,0.049,0.036,0.113,0.071,0.162c0.133,0.227,0.246,0.462,0.362,0.698c0.146,0.296,0.271,0.604,0.454,0.88
			c0.013,0.018,0.022,0.039,0.026,0.061c0.043,0.237,0.221,0.276,0.42,0.293c0.28,0.024,0.569,0.022,0.839,0.093
			c0.356,0.093,0.725,0.084,1.077,0.164c0.521,0.119,1.057,0.115,1.572,0.228c0.536,0.117,1.08,0.141,1.615,0.231
			c0.141,0.024,0.296,0.056,0.435,0.119c0.148,0.104,0.293,0.21,0.327,0.406c0.085,0.083,0.129,0.465,0.046,0.566
			c-0.053,0.063-0.065,0.137-0.107,0.198c-0.047,0.055-0.086,0.119-0.157,0.148c-0.049,0.083-0.123,0.139-0.201,0.191
			c-0.064,0.06-0.09,0.155-0.179,0.191c-0.176,0.175-0.342,0.363-0.531,0.522c-0.201,0.17-0.372,0.37-0.554,0.557
			c-0.245,0.251-0.517,0.473-0.761,0.724c-0.21,0.216-0.438,0.418-0.654,0.629c-0.17,0.152-0.307,0.339-0.496,0.471
			c-0.074,0.03-0.097,0.104-0.139,0.162C30.247,12.925,30.132,12.987,30.068,13.1z"/>
		<path fill-rule="evenodd" clip-rule="evenodd" fill="#A3A09F" d="M30.468,12.667c0.168-0.153,0.313-0.332,0.496-0.471
			c-0.054,0.122-0.146,0.225-0.248,0.289C30.628,12.542,30.606,12.69,30.468,12.667z"/>
		<path fill-rule="evenodd" clip-rule="evenodd" fill="#A2A09F" d="M34.063,8.471c-0.062-0.173-0.205-0.281-0.327-0.406
			C33.923,8.138,34.053,8.255,34.063,8.471z"/>
		<path fill-rule="evenodd" clip-rule="evenodd" fill="#A39F9F" d="M26.864,5.136c-0.066-0.162-0.196-0.292-0.233-0.467
			C26.732,4.813,26.862,4.942,26.864,5.136z"/>
		<path fill-rule="evenodd" clip-rule="evenodd" fill="#939191" d="M30.068,13.1c0.044-0.131,0.148-0.205,0.261-0.271
			c-0.023,0.115-0.168,0.128-0.197,0.236C30.11,13.077,30.089,13.088,30.068,13.1z"/>
		<path fill-rule="evenodd" clip-rule="evenodd" fill="#9F9B9B" d="M33.636,9.567c0.065-0.064,0.132-0.128,0.198-0.192
			c0.012,0.006,0.017,0.013,0.014,0.02c-0.004,0.008-0.007,0.012-0.011,0.012c-0.024,0.086-0.081,0.139-0.167,0.162
			C33.658,9.581,33.646,9.58,33.636,9.567z"/>
		<path fill-rule="evenodd" clip-rule="evenodd" fill="#A4A1A1" d="M33.636,9.567c0.011,0,0.022,0.001,0.034,0.001
			c-0.073,0.06-0.078,0.193-0.206,0.196C33.529,9.706,33.557,9.614,33.636,9.567z"/>
		<path fill-rule="evenodd" clip-rule="evenodd" fill="#A8A6A6" d="M33.837,9.406c-0.002-0.01-0.002-0.021-0.003-0.032
			c0.056-0.046,0.111-0.093,0.167-0.14C33.982,9.327,33.923,9.38,33.837,9.406z"/>
		<path fill-rule="evenodd" clip-rule="evenodd" fill="#9E9A9A" d="M22.568,4.967c-0.014,0.059-0.009,0.125-0.068,0.166
			C22.506,5.071,22.485,4.998,22.568,4.967z"/>
		<path fill-rule="evenodd" clip-rule="evenodd" fill="#A29E9D" d="M26.935,5.298c-0.067-0.035-0.053-0.106-0.071-0.162
			C26.939,5.167,26.926,5.238,26.935,5.298z"/>
		<path fill-rule="evenodd" clip-rule="evenodd" fill="#6C4BE5" d="M24.741,23.93c0.244-0.007,0.483,0.042,0.723,0.059
			c0.149,0.01,0.301-0.013,0.456,0.004c0.36,0.042,0.68,0.172,0.968,0.383c0.079,0.058,0.125,0.067,0.194-0.006
			c0.493-0.53,0.981-1.065,1.487-1.583c0.342-0.35,0.756-0.569,1.257-0.624c0.542-0.059,1.025,0.075,1.444,0.409
			c0.464,0.369,0.733,0.852,0.764,1.458c0.033,0.656-0.22,1.178-0.677,1.637s-0.889,0.942-1.341,1.406
			c-0.096,0.098-0.175,0.215-0.28,0.303c-0.09,0.074-0.092,0.151-0.06,0.247c0.113,0.336,0.152,0.683,0.193,1.033
			c0.069,0.591,0.004,1.167-0.146,1.733c-0.2,0.761-0.545,1.448-1.069,2.046c-0.363,0.415-0.763,0.778-1.237,1.06
			c-0.526,0.313-1.08,0.54-1.686,0.652c-0.376,0.068-0.75,0.131-1.13,0.11c-0.674-0.036-1.328-0.166-1.949-0.446
			c-0.622-0.281-1.174-0.655-1.645-1.148c-0.577-0.605-0.98-1.309-1.222-2.111c-0.147-0.49-0.218-0.989-0.216-1.496
			c0.003-0.673,0.132-1.324,0.397-1.944c0.278-0.651,0.659-1.234,1.17-1.728c0.491-0.473,1.058-0.826,1.686-1.088
			c0.472-0.196,0.963-0.295,1.471-0.338C24.444,23.945,24.592,23.935,24.741,23.93z"/>
		<path fill-rule="evenodd" clip-rule="evenodd" fill="#897F9D" d="M18.8,12.599c0.052,0.081,0.181,0.086,0.196,0.202
			C18.933,12.733,18.806,12.725,18.8,12.599z"/>
		<path fill-rule="evenodd" clip-rule="evenodd" fill="#9185A3" d="M28.3,18.934c0.061,0.056,0.154,0.058,0.205,0.129
			C28.414,19.055,28.324,19.045,28.3,18.934z"/>
		<path fill-rule="evenodd" clip-rule="evenodd" fill="#887E9C" d="M19.03,12.838c0.056,0.043,0.112,0.086,0.168,0.129
			c-0.012,0.013-0.024,0.013-0.037,0.002C19.09,12.953,19.04,12.916,19.03,12.838z"/>
		<path fill-rule="evenodd" clip-rule="evenodd" fill="#8A809F" d="M19.161,12.969c0.012-0.001,0.024-0.001,0.037-0.002
			c0.034,0.025,0.081,0.042,0.071,0.098C19.233,13.033,19.197,13.001,19.161,12.969z"/>
	</g>
</g>
</svg>
