<?xml version="1.0" encoding="utf-8"?>
<!-- Generator: Adobe Illustrator 16.0.0, SVG Export Plug-In . SVG Version: 6.00 Build 0)  -->
<!DOCTYPE svg PUBLIC "-//W3C//DTD SVG 1.1//EN" "http://www.w3.org/Graphics/SVG/1.1/DTD/svg11.dtd">
<svg version="1.1" id="Layer_1" xmlns="http://www.w3.org/2000/svg" xmlns:xlink="http://www.w3.org/1999/xlink" x="0px" y="0px"
	 width="50px" height="50px" viewBox="0 0 50 50" enable-background="new 0 0 50 50" xml:space="preserve">
<g>
	<g>
		<path fill-rule="evenodd" clip-rule="evenodd" fill="#FDFDFD" d="M0.033,25.017c0-8.277,0-16.556-0.003-24.833
			c0-0.125,0.028-0.153,0.153-0.153c16.566,0.003,33.134,0.003,49.699,0c0.125,0,0.153,0.028,0.153,0.153
			c-0.003,16.566-0.003,33.133,0,49.699c0,0.125-0.027,0.153-0.153,0.153c-16.565-0.003-33.133-0.003-49.699,0
			c-0.125,0-0.153-0.027-0.153-0.153C0.034,41.595,0.033,33.306,0.033,25.017z"/>
		<path fill-rule="evenodd" clip-rule="evenodd" fill="#D8CCFE" d="M27.864,3.636c0.805-0.001,1.61-0.002,2.416-0.002
			c3.538,0,7.076,0,10.615,0c0.059,0,0.117,0,0.212,0c-0.127,0.127-0.227,0.228-0.328,0.326c-0.04,0.038-0.088,0.067-0.127,0.106
			c-0.454,0.44-0.899,0.89-1.36,1.322c-0.529,0.497-1.05,1.004-1.574,1.505c-0.521,0.498-1.041,0.997-1.562,1.495
			c-0.512,0.49-1.025,0.98-1.537,1.471c-0.521,0.499-1.041,0.997-1.562,1.495c-0.525,0.502-1.049,1.005-1.573,1.506
			c-0.521,0.498-1.041,0.997-1.562,1.495c-0.513,0.49-1.025,0.98-1.537,1.471c-0.521,0.498-1.041,0.997-1.563,1.495
			c-0.524,0.501-1.049,1.004-1.572,1.506c-0.521,0.498-1.041,0.997-1.562,1.495c-0.513,0.49-1.025,0.981-1.538,1.471
			c-0.521,0.499-1.041,0.997-1.561,1.495c-0.525,0.502-1.049,1.005-1.574,1.506c-0.521,0.498-1.041,0.997-1.561,1.495
			c-0.513,0.49-1.025,0.98-1.538,1.472c-0.521,0.498-1.04,0.996-1.561,1.494c-0.525,0.501-1.048,1.005-1.573,1.507
			c-0.521,0.498-1.041,0.996-1.561,1.494c-0.513,0.491-1.025,0.98-1.538,1.472c-0.521,0.498-1.041,0.996-1.562,1.494
			c-0.525,0.502-1.048,1.005-1.573,1.507C6.033,37.223,5.516,37.717,5,38.211c-0.516,0.495-1.042,0.98-1.548,1.485
			c-0.057,0.057-0.128,0.1-0.197,0.152c-0.039-0.06-0.021-0.115-0.021-0.167C3.233,27.738,3.233,15.796,3.233,3.853
			c0-0.219,0-0.219,0.229-0.219c6.055,0,12.109,0,18.165,0c0.178,0,0.355,0,0.533,0c0.012,0.088-0.069,0.104-0.117,0.137
			c-0.63,0.436-1.157,0.967-1.555,1.625c-0.408,0.675-0.662,1.401-0.749,2.187C19.648,8.408,19.75,9.21,20.027,9.99
			c0.166,0.468,0.417,0.895,0.663,1.323c0.939,1.638,1.877,3.276,2.819,4.912c0.327,0.568,0.666,1.129,0.976,1.706
			c0.199,0.37,0.76,0.495,1.045-0.004c0.667-1.167,1.339-2.33,2.008-3.495c0.486-0.848,0.976-1.693,1.458-2.542
			c0.28-0.492,0.576-0.976,0.822-1.487c0.265-0.552,0.413-1.135,0.469-1.743c0.122-1.333-0.223-2.54-1.001-3.623
			C28.931,4.54,28.49,4.127,27.99,3.777C27.938,3.741,27.866,3.719,27.864,3.636z"/>
		<path fill-rule="evenodd" clip-rule="evenodd" fill="#D8CCFE" d="M46.698,26.433c0.001,2.194,0.001,4.389,0.001,6.583
			c0.001,4.449,0,8.898,0.004,13.349c0,0.155-0.033,0.206-0.198,0.206c-11.865-0.005-23.73-0.004-35.596-0.004
			c-0.048,0-0.097,0-0.159,0c0.064-0.145,0.196-0.196,0.288-0.286c0.443-0.436,0.883-0.875,1.336-1.3
			c0.529-0.498,1.049-1.003,1.574-1.506c0.521-0.499,1.041-0.997,1.562-1.495c0.524-0.501,1.048-1.004,1.572-1.506
			c0.509-0.486,1.022-0.968,1.526-1.46c0.153-0.149,0.329-0.278,0.462-0.451c0.084,0.007,0.098,0.082,0.128,0.138
			c0.336,0.611,0.746,1.168,1.224,1.678c0.923,0.983,2.029,1.682,3.301,2.119c0.659,0.228,1.341,0.339,2.037,0.398
			c0.857,0.074,1.698-0.019,2.524-0.226c1.208-0.302,2.291-0.861,3.243-1.671c1.148-0.978,1.957-2.184,2.445-3.607
			c0.222-0.649,0.333-1.32,0.389-2.005c0.083-1.027-0.05-2.027-0.356-3.005c-0.32-1.018-0.83-1.936-1.519-2.753
			c-0.571-0.677-1.239-1.237-1.985-1.709c-0.058-0.036-0.141-0.056-0.134-0.15c0.076-0.071,0.154-0.143,0.229-0.215
			c0.429-0.417,0.851-0.842,1.288-1.251c0.521-0.488,1.033-0.986,1.549-1.481c0.52-0.498,1.04-0.995,1.56-1.493
			c0.508-0.486,1.021-0.968,1.523-1.459c0.407-0.398,0.829-0.782,1.245-1.171c0.058,0.062,0.019,0.128,0.002,0.188
			c-0.296,1.083-0.248,2.152,0.121,3.209c0.166,0.474,0.418,0.906,0.667,1.34c0.732,1.275,1.459,2.555,2.195,3.828
			c0.514,0.889,1.021,1.781,1.536,2.67c0.031,0.053,0.062,0.105,0.094,0.157c0.249,0.401,0.74,0.409,0.993,0.008
			c0.189-0.301,0.366-0.609,0.539-0.92c0.436-0.78,0.892-1.549,1.334-2.325c0.429-0.753,0.859-1.504,1.294-2.253
			C46.575,26.534,46.594,26.439,46.698,26.433z"/>
		<path fill-rule="evenodd" clip-rule="evenodd" fill="#6B4BE5" d="M30.366,27.77c0.144,0.099,0.286,0.199,0.431,0.296
			c0.395,0.264,0.762,0.558,1.106,0.884c0.76,0.72,1.357,1.555,1.789,2.505c0.32,0.705,0.552,1.438,0.646,2.214
			c0.053,0.438,0.112,0.875,0.093,1.316c-0.029,0.725-0.118,1.441-0.331,2.139c-0.262,0.863-0.639,1.669-1.165,2.403
			c-0.211,0.295-0.439,0.576-0.686,0.844c-0.551,0.6-1.182,1.104-1.885,1.506c-0.76,0.435-1.569,0.76-2.436,0.922
			c-0.595,0.112-1.196,0.192-1.803,0.166c-0.714-0.031-1.419-0.119-2.107-0.328c-0.863-0.263-1.67-0.637-2.404-1.163
			c-0.313-0.225-0.61-0.468-0.893-0.73c-0.585-0.542-1.056-1.173-1.473-1.848c-0.066-0.106-0.12-0.221-0.18-0.332
			c-0.183-0.396-0.367-0.79-0.5-1.205c-0.171-0.53-0.282-1.072-0.342-1.628c-0.043-0.401-0.084-0.803-0.056-1.203
			c0.047-0.67,0.128-1.336,0.328-1.981c0.266-0.861,0.638-1.668,1.165-2.401c0.208-0.29,0.43-0.566,0.67-0.83
			c0.555-0.606,1.195-1.108,1.9-1.523c0.451-0.267,0.934-0.479,1.429-0.647c0.142-0.049,0.162-0.129,0.13-0.229
			c-0.055-0.179-0.032-0.361-0.052-0.54c-0.066-0.566-0.091-1.138-0.145-1.706c-0.024-0.257-0.065-0.513-0.062-0.771
			c0.013-0.976,0.765-1.795,1.699-1.938c1.044-0.159,2.039,0.543,2.253,1.555c0.045,0.208,0.061,0.422,0.078,0.635
			c0.048,0.575,0.087,1.15,0.137,1.724c0.025,0.294,0.066,0.587,0.097,0.881c0.007,0.063,0.021,0.102,0.092,0.113
			c0.803,0.138,1.547,0.44,2.268,0.81C30.226,27.712,30.288,27.76,30.366,27.77z"/>
		<path fill-rule="evenodd" clip-rule="evenodd" d="M46.698,26.433c-0.201,0.289-0.359,0.604-0.535,0.907
			c-0.411,0.71-0.816,1.423-1.225,2.135c-0.505,0.878-1.016,1.753-1.513,2.635c-0.239,0.422-0.84,0.455-1.091,0.014
			c-0.546-0.962-1.098-1.921-1.648-2.879c-0.634-1.103-1.275-2.201-1.901-3.308c-0.301-0.529-0.628-1.045-0.861-1.612
			c-0.294-0.718-0.418-1.464-0.395-2.236c0.016-0.473,0.11-0.933,0.231-1.388c0.162-0.445,0.346-0.88,0.604-1.28
			c0.46-0.713,1.056-1.286,1.784-1.721c0.424-0.253,0.88-0.431,1.351-0.573c0.09-0.058,0.188-0.089,0.294-0.108
			c1.287-0.241,2.515-0.072,3.672,0.551c0.416,0.224,0.796,0.502,1.133,0.836c0.039,0.04,0.074,0.083,0.1,0.133
			c0.171,0.22,0.368,0.419,0.529,0.649c0.56,0.8,0.894,1.68,0.973,2.657c0.098,1.19-0.174,2.289-0.79,3.309
			c-0.242,0.4-0.466,0.812-0.696,1.219C46.703,26.388,46.703,26.412,46.698,26.433z"/>
		<path fill-rule="evenodd" clip-rule="evenodd" d="M27.864,3.636c0.511,0.338,0.97,0.734,1.347,1.221
			c0.651,0.837,1.033,1.779,1.122,2.839c0.1,1.196-0.177,2.297-0.791,3.327c-0.444,0.746-0.853,1.514-1.285,2.267
			c-0.747,1.3-1.5,2.595-2.251,3.893c-0.15,0.262-0.304,0.523-0.446,0.79c-0.23,0.431-0.84,0.457-1.089,0.019
			c-0.544-0.957-1.095-1.91-1.643-2.865c-0.633-1.104-1.27-2.205-1.899-3.311c-0.301-0.53-0.629-1.045-0.864-1.611
			c-0.301-0.728-0.428-1.484-0.397-2.269c0.039-0.984,0.337-1.887,0.87-2.709c0.421-0.65,0.977-1.17,1.624-1.593
			c0.517-0.303,1.057-0.545,1.645-0.674c0.813-0.178,1.625-0.176,2.438,0.006C26.822,3.096,27.354,3.336,27.864,3.636z"/>
		<path fill-rule="evenodd" clip-rule="evenodd" fill="#D8CCFE" d="M46.698,18.537c-0.218-0.166-0.406-0.365-0.628-0.527
			c-0.753-0.55-1.586-0.895-2.514-1.007c-0.692-0.083-1.378-0.039-2.057,0.123c0.448-0.476,0.935-0.913,1.414-1.357
			c0.013-0.011,0.024-0.023,0.036-0.035c0.362-0.351,0.725-0.703,1.087-1.054c0.627-0.604,1.245-1.217,1.884-1.808
			c0.254-0.236,0.492-0.49,0.777-0.742C46.698,14.287,46.698,16.412,46.698,18.537z"/>
		<path fill-rule="evenodd" clip-rule="evenodd" d="M9.549,16.032c1.413-0.006,2.64,0.486,3.665,1.442
			c0.881,0.821,1.426,1.847,1.608,3.042c0.185,1.212,0,2.371-0.605,3.447c-0.525,0.935-1.058,1.866-1.591,2.795
			c-0.697,1.214-1.397,2.426-2.096,3.639c-0.151,0.262-0.302,0.523-0.448,0.789c-0.228,0.414-0.832,0.444-1.08,0.005
			c-0.312-0.552-0.628-1.101-0.944-1.649c-0.521-0.906-1.045-1.811-1.564-2.719c-0.577-1.008-1.17-2.007-1.716-3.032
			c-0.533-1-0.692-2.08-0.527-3.202c0.189-1.288,0.776-2.368,1.746-3.229c0.813-0.721,1.769-1.156,2.854-1.292
			C9.083,16.039,9.315,16.027,9.549,16.032z"/>
		<path fill-rule="evenodd" clip-rule="evenodd" fill="#FEFEFE" d="M31.635,33.179c0.008,0.655-0.192,1.178-0.586,1.616
			c-0.29,0.324-0.685,0.481-1.103,0.569c-0.492,0.104-0.933-0.012-1.346-0.305c-0.334-0.235-0.62-0.5-0.793-0.874
			c-0.287-0.622-0.287-1.239,0.012-1.861c0.285-0.595,0.761-0.951,1.378-1.121c0.835-0.229,1.636,0.128,2.098,0.844
			C31.53,32.412,31.65,32.804,31.635,33.179z"/>
		<path fill-rule="evenodd" clip-rule="evenodd" fill="#FEFEFE" d="M25.766,33.083c0.022,0.592-0.228,1.05-0.573,1.479
			c-0.317,0.396-0.707,0.672-1.204,0.755c-0.535,0.089-1.032-0.032-1.465-0.376c-0.318-0.253-0.535-0.573-0.655-0.957
			c-0.125-0.4-0.108-0.799-0.008-1.208c0.087-0.357,0.177-0.703,0.41-1.001c0.286-0.366,0.658-0.583,1.106-0.673
			c1.008-0.203,1.994,0.478,2.3,1.356C25.749,32.667,25.786,32.884,25.766,33.083z"/>
		<path fill-rule="evenodd" clip-rule="evenodd" fill="#D8CCFE" d="M42.872,20.369c1.278-0.03,2.402,1.061,2.39,2.394
			c-0.012,1.302-1.098,2.384-2.433,2.363c-1.234-0.019-2.395-1.083-2.33-2.51C40.554,21.437,41.58,20.347,42.872,20.369z"/>
		<path fill-rule="evenodd" clip-rule="evenodd" fill="#D8CCFE" d="M25.01,6.236c1.275-0.027,2.392,1.058,2.386,2.381
			c-0.006,1.313-1.1,2.399-2.437,2.376c-1.235-0.021-2.384-1.084-2.327-2.498C22.681,7.309,23.714,6.21,25.01,6.236z"/>
		<path fill-rule="evenodd" clip-rule="evenodd" fill="#D8CCFE" d="M9.535,19.436c1.282-0.031,2.404,1.061,2.394,2.39
			c-0.01,1.306-1.098,2.386-2.429,2.368c-1.239-0.017-2.397-1.084-2.334-2.506C7.218,20.504,8.247,19.415,9.535,19.436z"/>
	</g>
</g>
</svg>
