<?xml version="1.0" encoding="utf-8"?>
<!-- Generator: Adobe Illustrator 16.0.0, SVG Export Plug-In . SVG Version: 6.00 Build 0)  -->
<!DOCTYPE svg PUBLIC "-//W3C//DTD SVG 1.1//EN" "http://www.w3.org/Graphics/SVG/1.1/DTD/svg11.dtd">
<svg version="1.1" id="Layer_1" xmlns="http://www.w3.org/2000/svg" xmlns:xlink="http://www.w3.org/1999/xlink" x="0px" y="0px"
	 width="50px" height="50px" viewBox="0 0 50 50" enable-background="new 0 0 50 50" xml:space="preserve">
<g>
	<g>
		<path fill-rule="evenodd" clip-rule="evenodd" fill="#FEFEFE" d="M25.033,50.033c-8.284,0-16.566,0-24.85,0.003
			c-0.125,0-0.153-0.027-0.153-0.153c0.003-16.565,0.003-33.133,0-49.699c0-0.125,0.028-0.153,0.153-0.153
			c16.566,0.003,33.133,0.003,49.699,0c0.125,0,0.153,0.028,0.153,0.153c-0.003,16.566-0.003,33.133,0,49.7
			c0,0.125-0.027,0.153-0.153,0.153C41.6,50.033,33.317,50.033,25.033,50.033z"/>
		<path fill-rule="evenodd" clip-rule="evenodd" d="M11.339,40.666c-0.305-0.229-0.608-0.463-0.917-0.689
			c-0.363-0.269-0.708-0.558-1.051-0.851c-0.568-0.486-1.094-1.017-1.61-1.554c-0.565-0.589-1.08-1.223-1.565-1.88
			c-0.509-0.689-0.988-1.397-1.414-2.139c-0.363-0.631-0.683-1.288-0.982-1.953c-0.411-0.913-0.764-1.847-1.032-2.812
			c-0.196-0.708-0.377-1.419-0.506-2.146c-0.099-0.555-0.177-1.111-0.232-1.673c-0.045-0.469-0.071-0.938-0.104-1.408
			c-0.033-0.465-0.037-0.93-0.018-1.393c0.022-0.55,0.056-1.102,0.117-1.651c0.045-0.406,0.095-0.811,0.146-1.215
			c0.046-0.363,0.116-0.724,0.201-1.08c0.223-0.943,0.461-1.882,0.794-2.794c0.198-0.542,0.414-1.076,0.652-1.603
			c0.221-0.489,0.463-0.967,0.712-1.442c0.429-0.819,0.935-1.59,1.472-2.343c0.346-0.485,0.708-0.958,1.091-1.412
			c0.552-0.656,1.159-1.264,1.783-1.85c0.938-0.881,1.966-1.649,3.045-2.351c0.874-0.568,1.797-1.043,2.744-1.479
			c0.778-0.358,1.573-0.668,2.39-0.926c0.839-0.265,1.692-0.477,2.553-0.651c0.482-0.097,0.972-0.165,1.464-0.21
			c0.369-0.034,0.739-0.066,1.108-0.102c0.672-0.063,1.346-0.081,2.018-0.054c0.55,0.022,1.103,0.057,1.652,0.118
			c0.404,0.045,0.81,0.094,1.214,0.146c0.363,0.046,0.724,0.117,1.08,0.201c0.943,0.222,1.882,0.461,2.794,0.794
			c0.542,0.198,1.076,0.415,1.602,0.652c0.489,0.221,0.968,0.463,1.442,0.712c0.82,0.429,1.592,0.935,2.344,1.472
			c0.484,0.346,0.958,0.708,1.412,1.091c0.656,0.553,1.264,1.16,1.851,1.783c0.912,0.968,1.702,2.035,2.421,3.152
			c0.541,0.84,0.992,1.729,1.408,2.637c0.357,0.778,0.668,1.573,0.926,2.389c0.265,0.839,0.478,1.692,0.65,2.554
			c0.098,0.482,0.165,0.971,0.211,1.463c0.034,0.37,0.066,0.739,0.102,1.108c0.063,0.672,0.081,1.345,0.055,2.017
			c-0.022,0.551-0.058,1.102-0.119,1.652c-0.045,0.405-0.094,0.81-0.146,1.214c-0.047,0.362-0.117,0.724-0.201,1.08
			c-0.223,0.942-0.462,1.882-0.795,2.793c-0.197,0.542-0.414,1.076-0.652,1.603c-0.221,0.489-0.463,0.968-0.712,1.442
			c-0.429,0.82-0.926,1.598-1.476,2.341c-0.089,0.122-0.175,0.247-0.268,0.365c-0.033,0.043-0.025,0.065,0.009,0.097
			c0.029,0.025,0.055,0.055,0.083,0.082c2.065,2.066,4.136,4.128,6.194,6.201c0.493,0.496,0.791,1.104,0.891,1.807
			c0.103,0.727,0.008,1.418-0.339,2.063c-0.397,0.742-0.992,1.264-1.786,1.566c-0.498,0.189-1.01,0.239-1.525,0.188
			c-0.649-0.062-1.237-0.307-1.74-0.732c-0.508-0.43-0.954-0.925-1.425-1.394c-1.681-1.674-3.357-3.353-5.031-5.032
			c-0.111-0.112-0.177-0.151-0.33-0.04c-0.595,0.431-1.22,0.817-1.864,1.172c-0.026,0.068-0.088,0.096-0.147,0.127
			c-1.185,0.617-2.396,1.171-3.674,1.568c-1.333,0.415-2.688,0.741-4.08,0.889c-0.568,0.061-1.137,0.105-1.708,0.137
			c-0.422,0.024-0.844,0.035-1.266,0.021c-1.483-0.046-2.956-0.191-4.405-0.532c-1.236-0.29-2.448-0.652-3.615-1.154
			c-1.309-0.564-2.572-1.212-3.749-2.021C11.429,40.763,11.375,40.723,11.339,40.666z"/>
		<path fill-rule="evenodd" clip-rule="evenodd" fill="#6C4BE5" d="M11.339,40.666c0.297,0.189,0.592,0.38,0.891,0.566
			c0.782,0.486,1.603,0.9,2.438,1.286c0.774,0.356,1.566,0.665,2.38,0.921c0.844,0.266,1.7,0.483,2.566,0.654
			c0.588,0.115,1.183,0.194,1.782,0.244c0.465,0.039,0.931,0.07,1.396,0.104c0.466,0.033,0.931,0.037,1.394,0.019
			c0.553-0.023,1.106-0.056,1.657-0.117c0.402-0.046,0.805-0.091,1.205-0.146c0.37-0.053,0.738-0.124,1.104-0.207
			c0.941-0.214,1.874-0.459,2.782-0.788c0.546-0.198,1.082-0.417,1.612-0.656c0.536-0.242,1.055-0.519,1.582-0.778
			c0.002,0.311,0.005,0.621,0.005,0.932c0.001,2.05-0.002,4.1,0.004,6.149c0.001,0.152-0.039,0.188-0.19,0.188
			c-7.476-0.003-14.951-0.003-22.427,0c-0.152,0-0.19-0.038-0.19-0.189c0.005-2.672,0.003-5.343,0.004-8.014
			C11.333,40.777,11.337,40.722,11.339,40.666z"/>
		<path fill-rule="evenodd" clip-rule="evenodd" fill="#D8CCFD" d="M11.961,32.234c-0.213-0.223-0.387-0.477-0.567-0.725
			c-0.551-0.755-1.016-1.561-1.407-2.407c-0.368-0.794-0.67-1.611-0.893-2.459c-0.141-0.537-0.269-1.077-0.354-1.624
			c-0.055-0.354-0.081-0.715-0.114-1.074c-0.05-0.55-0.081-1.101-0.054-1.651c0.023-0.479,0.066-0.958,0.12-1.436
			c0.069-0.62,0.19-1.228,0.344-1.829c0.188-0.737,0.424-1.46,0.727-2.161c0.197-0.455,0.409-0.901,0.64-1.337
			c0.34-0.644,0.752-1.243,1.178-1.833c0.541-0.748,1.188-1.399,1.845-2.04c0.445-0.434,0.938-0.811,1.441-1.175
			c0.752-0.544,1.552-1.007,2.395-1.396c0.794-0.367,1.611-0.67,2.459-0.894c0.531-0.14,1.066-0.26,1.606-0.355
			c0.332-0.058,0.672-0.072,1.008-0.106c0.549-0.054,1.1-0.089,1.65-0.063c0.513,0.024,1.024,0.068,1.536,0.124
			c0.62,0.067,1.228,0.191,1.829,0.344c0.737,0.188,1.461,0.425,2.16,0.729c0.449,0.195,0.89,0.407,1.322,0.635
			c0.645,0.34,1.243,0.751,1.833,1.178c0.747,0.541,1.4,1.184,2.038,1.845c0.442,0.458,0.826,0.966,1.2,1.481
			c0.536,0.74,0.987,1.528,1.372,2.354c0.37,0.793,0.673,1.61,0.896,2.458c0.141,0.537,0.263,1.077,0.354,1.623
			c0.039,0.235,0.055,0.478,0.08,0.716c0.066,0.635,0.113,1.271,0.09,1.91c-0.019,0.519-0.066,1.036-0.125,1.552
			c-0.111,0.99-0.352,1.947-0.659,2.892c-0.292,0.896-0.69,1.744-1.136,2.573c-0.39,0.725-0.864,1.392-1.359,2.042
			c-0.504,0.66-1.102,1.237-1.705,1.804c-0.62,0.583-1.316,1.074-2.029,1.539c-0.046,0.029-0.088,0.065-0.146,0.065
			c-0.07,0.006-0.128-0.028-0.188-0.057c-1.218-0.569-2.484-0.99-3.798-1.275c-0.863-0.187-1.733-0.335-2.614-0.411
			c-0.403-0.034-0.807-0.06-1.211-0.082c-0.46-0.025-0.921-0.037-1.381-0.025c-2.029,0.053-4.025,0.323-5.97,0.924
			c-0.372,0.115-0.737,0.246-1.102,0.381c-0.052,0.02-0.103,0.043-0.16,0.042c-0.149-0.027-0.25-0.139-0.366-0.222
			c-0.804-0.577-1.547-1.227-2.228-1.945c-0.132-0.141-0.266-0.282-0.392-0.429l0.003,0.003
			C12.091,32.356,12.014,32.305,11.961,32.234z"/>
		<path fill-rule="evenodd" clip-rule="evenodd" fill="#6C4BE5" d="M15.07,35.004c0.33-0.117,0.658-0.24,0.991-0.349
			c0.859-0.282,1.736-0.491,2.625-0.657c0.609-0.113,1.222-0.195,1.837-0.261c0.338-0.036,0.681-0.046,1.021-0.071
			c0.553-0.042,1.107-0.045,1.661-0.029c0.578,0.017,1.156,0.047,1.732,0.101c1.239,0.116,2.46,0.345,3.661,0.67
			c0.741,0.199,1.464,0.458,2.17,0.76c0.261,0.112,0.531,0.207,0.77,0.367c-0.199,0.189-0.453,0.297-0.69,0.424
			c-0.719,0.384-1.459,0.729-2.229,0.995c-0.66,0.228-1.335,0.411-2.021,0.549c-0.584,0.116-1.173,0.184-1.766,0.238
			c-0.567,0.052-1.137,0.088-1.703,0.053c-0.963-0.059-1.922-0.149-2.865-0.385c-0.854-0.212-1.691-0.463-2.501-0.809
			c-0.962-0.41-1.877-0.908-2.738-1.504c-0.021-0.015-0.038-0.038-0.057-0.057C14.99,34.996,15.031,35.002,15.07,35.004z"/>
		<path fill-rule="evenodd" clip-rule="evenodd" fill="#FEFEFE" d="M15.07,35.004c-0.023,0.045-0.07,0.021-0.104,0.035
			c-0.35-0.226-0.671-0.488-0.994-0.75c-0.529-0.428-0.992-0.924-1.466-1.408c-0.134-0.138-0.29-0.267-0.377-0.446
			c0.263,0.189,0.438,0.464,0.669,0.684c0.664,0.631,1.357,1.224,2.106,1.751C14.962,34.91,15.015,34.959,15.07,35.004z"/>
		<path fill-rule="evenodd" clip-rule="evenodd" fill="#FEFEFE" d="M11.961,32.234c0.079,0.049,0.158,0.099,0.17,0.203
			C12.065,32.377,11.98,32.333,11.961,32.234z"/>
		<path fill-rule="evenodd" clip-rule="evenodd" fill="#6B4BE5" d="M23.288,16.032c0.764,0.029,1.521,0.11,2.247,0.368
			c0.122,0.043,0.198,0.022,0.29-0.07c0.514-0.513,1.025-1.03,1.559-1.522c0.347-0.32,0.671-0.662,1.012-0.986
			c0.385-0.367,0.823-0.644,1.351-0.741c0.798-0.146,1.512,0.043,2.13,0.578c0.412,0.356,0.671,0.801,0.793,1.33
			c0.119,0.515,0.073,1.012-0.131,1.498c-0.157,0.376-0.381,0.701-0.699,0.959c-0.018,0.014-0.032,0.031-0.048,0.046
			c-0.641,0.63-1.281,1.26-1.922,1.89c-0.095,0.092-0.254,0.146-0.282,0.269c-0.028,0.125,0.107,0.229,0.16,0.348
			c0.244,0.54,0.483,1.082,0.601,1.667c0.072,0.36,0.127,0.722,0.158,1.089c0.021,0.249,0.038,0.497,0.024,0.744
			c-0.049,0.887-0.209,1.748-0.56,2.572c-0.289,0.678-0.664,1.3-1.129,1.866c-0.515,0.626-1.132,1.14-1.827,1.557
			c-0.657,0.395-1.359,0.686-2.109,0.853c-0.358,0.079-0.721,0.128-1.088,0.16c-0.26,0.023-0.52,0.04-0.778,0.024
			c-0.874-0.055-1.727-0.206-2.539-0.56c-0.592-0.259-1.145-0.573-1.659-0.966c-0.709-0.542-1.286-1.199-1.747-1.959
			c-0.404-0.664-0.704-1.375-0.872-2.137c-0.079-0.358-0.127-0.722-0.161-1.088c-0.024-0.26-0.041-0.52-0.024-0.778
			c0.054-0.874,0.205-1.727,0.559-2.539c0.258-0.592,0.572-1.146,0.965-1.659c0.541-0.71,1.198-1.287,1.957-1.749
			c0.665-0.404,1.375-0.705,2.137-0.873c0.359-0.08,0.721-0.135,1.088-0.161C22.924,16.051,23.104,16.023,23.288,16.032z"/>
	</g>
</g>
</svg>
