<?xml version="1.0" encoding="utf-8"?>
<!-- Generator: Adobe Illustrator 16.0.0, SVG Export Plug-In . SVG Version: 6.00 Build 0)  -->
<!DOCTYPE svg PUBLIC "-//W3C//DTD SVG 1.1//EN" "http://www.w3.org/Graphics/SVG/1.1/DTD/svg11.dtd">
<svg version="1.1" id="Layer_1" xmlns="http://www.w3.org/2000/svg" xmlns:xlink="http://www.w3.org/1999/xlink" x="0px" y="0px"
	 width="50px" height="50px" viewBox="0 0 50 50" enable-background="new 0 0 50 50" xml:space="preserve">
<g>
	<g>
		<path fill-rule="evenodd" clip-rule="evenodd" fill="#FCFCFC" d="M0.033,25.017c0-8.277,0-16.556-0.003-24.833
			c0-0.125,0.028-0.153,0.153-0.153c16.566,0.003,33.134,0.003,49.699,0c0.125,0,0.153,0.028,0.153,0.153
			c-0.003,16.566-0.003,33.133,0,49.699c0,0.125-0.027,0.153-0.153,0.153c-16.565-0.003-33.133-0.003-49.699,0
			c-0.125,0-0.153-0.027-0.153-0.153C0.034,41.595,0.033,33.306,0.033,25.017z"/>
		<path fill-rule="evenodd" clip-rule="evenodd" fill="#6B4BE5" d="M28.608,44.6c-0.002,0.2-0.011,0.4-0.002,0.6
			c0.004,0.12-0.04,0.161-0.152,0.146c-0.027-0.004-0.056-0.001-0.084-0.001c-7.599,0-15.198,0-22.797-0.001
			c-0.271,0-0.234,0.031-0.234-0.242c-0.001-1.188-0.001-2.378-0.001-3.566c0-0.098,0.027-0.208-0.137-0.196
			c-0.046,0.003-0.072-0.044-0.059-0.098c0.036-0.144,0.014-0.288,0.016-0.432c0.008-0.776,0.006-1.554,0.02-2.331
			c0.01-0.558-0.056-1.111-0.071-1.667c-0.011-0.375-0.019-0.751,0.017-1.128c0.036-0.368,0.041-0.738,0.11-1.104
			c0.137-0.731,0.381-1.424,0.699-2.096c0.335-0.709,0.864-1.246,1.46-1.731c0.038-0.03,0.082-0.059,0.127-0.076
			c1.426-0.538,2.89-0.944,4.392-1.206c0.799-0.14,1.603-0.241,2.411-0.297c0.111-0.007,0.122-0.055,0.122-0.146
			c-0.001-0.749-0.001-1.499,0.001-2.249c0-0.089-0.02-0.128-0.123-0.15c-1.279-0.289-2.424-0.846-3.431-1.691
			c-0.905-0.762-1.597-1.683-2.088-2.75c-0.357-0.776-0.59-1.59-0.666-2.446c-0.027-0.302-0.071-0.603-0.061-0.907
			c0.019-0.568,0.086-1.129,0.208-1.685c0.143-0.653,0.377-1.271,0.679-1.863c0.041-0.08,0.041-0.13-0.025-0.202
			c-0.525-0.573-1.046-1.149-1.563-1.728c-0.289-0.323-0.594-0.637-0.846-0.987c-0.492-0.685-0.488-1.58-0.001-2.272
			c0.325-0.463,0.769-0.75,1.342-0.831c0.686-0.098,1.266,0.101,1.741,0.598c0.502,0.525,0.979,1.074,1.458,1.621
			c0.196,0.224,0.399,0.441,0.595,0.664c0.059,0.066,0.1,0.068,0.179,0.02c0.945-0.577,1.961-0.957,3.063-1.1
			c0.383-0.05,0.765-0.099,1.152-0.092c0.563,0.009,1.12,0.082,1.67,0.198c0.609,0.128,1.188,0.341,1.747,0.613
			c0.083,0.04,0.168,0.047,0.258,0.047c8.271-0.001,16.542-0.001,24.813,0c1.267,0,2.532,0.005,3.799,0
			c0.156-0.001,0.202,0.046,0.191,0.196c-0.013,0.193-0.007,0.388-0.009,0.583c-0.102-0.01-0.07-0.094-0.076-0.149
			c-0.011-0.127-0.005-0.255-0.003-0.383c0-0.112-0.052-0.161-0.162-0.16c-0.077,0.002-0.155,0-0.232,0c-9.303,0-18.605,0-27.908,0
			c-0.095,0-0.189,0.005-0.303-0.009c0.906,0.507,1.681,1.146,2.33,1.935c0.276,0.347,0.53,0.711,0.752,1.095
			c0.404,0.703,0.702,1.453,0.866,2.244c0.13,0.628,0.219,1.27,0.186,1.917c-0.057,1.083-0.273,2.127-0.731,3.123
			c-0.388,0.844-0.908,1.596-1.551,2.25c-0.806,0.819-1.75,1.444-2.835,1.852c-0.691,0.26-1.401,0.418-2.13,0.51
			c-0.088,0.012-0.177,0.007-0.266,0.014c-0.594,0.004-1.189,0.029-1.776-0.093c-0.111-0.023-0.167,0.011-0.167,0.134
			c0.001,0.705-0.002,1.41,0.001,2.115c0,0.034,0.008,0.066,0.022,0.097c0.029,0.041,0.069,0.052,0.116,0.047
			c0.576-0.062,1.153-0.067,1.731-0.064c0.022,0,0.044-0.003,0.065-0.008c0.018-0.006,0.037-0.011,0.055-0.015
			c0.461-0.032,0.919,0.021,1.378,0.045c0.431,0.023,0.862,0.063,1.292,0.109c1.021,0.111,2.034,0.275,3.039,0.49
			c1.064,0.228,2.115,0.505,3.155,0.827c0.135,0.042,0.253,0.107,0.365,0.192c0.759,0.57,1.376,1.269,1.878,2.071
			c0.009,0.015,0.018,0.03,0.023,0.046c0.122,0.224,0.268,0.434,0.385,0.66c0.039,0.078,0.11,0.116,0.188,0.151
			c0.385,0.175,0.788,0.293,1.192,0.411c0.053,0.026,0.111,0.021,0.168,0.027c0.114,0.021,0.229,0.042,0.342,0.073
			c0.055,0.02,0.111,0.025,0.168,0.034c0.017,0.002,0.033,0.006,0.05,0.011c0.078,0.02,0.157,0.008,0.235,0.006
			c0.287,0.009,0.571,0.058,0.858,0.066c0.438,0.013,0.87-0.048,1.304-0.091c0.062-0.009,0.125,0.001,0.185-0.021
			c0.564-0.13,1.069-0.37,1.468-0.801c0.15-0.162,0.3-0.326,0.424-0.511c0.014-0.021,0.027-0.042,0.042-0.063
			c0.423-0.638,0.823-1.29,1.206-1.954c0.273-0.476,0.683-0.808,1.211-0.987c0.569-0.192,1.135-0.18,1.687,0.05
			c0.491,0.203,0.866,0.55,1.122,1.02c0.204,0.372,0.314,0.769,0.303,1.195c-0.007,0.241-0.064,0.472-0.146,0.697
			c-0.009,0.023-0.021,0.046-0.031,0.068c-0.204,0.432-0.436,0.849-0.682,1.257c-0.348,0.575-0.701,1.146-1.113,1.678
			c-0.404,0.523-0.858,1.001-1.382,1.411c-0.431,0.337-0.887,0.631-1.383,0.859c-0.489,0.227-0.996,0.405-1.527,0.515
			c-0.293,0.061-0.589,0.104-0.886,0.138c-0.096,0.002-0.192-0.012-0.286,0.019c-0.019,0.006-0.037,0.009-0.056,0.012
			c-0.357,0.007-0.714,0.008-1.07,0c-0.02-0.002-0.039-0.005-0.058-0.01c-0.128-0.037-0.259-0.016-0.39-0.018
			c-0.174-0.019-0.35-0.025-0.52-0.076c-0.059-0.023-0.118-0.03-0.18-0.026c-0.21,0.046-0.393-0.045-0.581-0.111
			c-0.083-0.037-0.173-0.015-0.26-0.026c-0.067-0.009-0.126-0.041-0.187-0.069c-0.221-0.1-0.397-0.042-0.518,0.169
			c-0.045,0.078-0.068,0.162-0.074,0.252c-0.028,0.392-0.092,0.779-0.115,1.172c-0.042,0.135-0.008,0.274-0.028,0.411
			c-0.002,0.02-0.007,0.039-0.011,0.058c-0.028,0.196-0.013,0.393-0.009,0.59c-0.064,1.101-0.016,2.202-0.031,3.304
			C28.652,44.465,28.656,44.538,28.608,44.6z"/>
		<path fill-rule="evenodd" clip-rule="evenodd" d="M28.608,44.6c0.007-1.175-0.039-2.35,0.028-3.522
			c0.029-0.15,0.005-0.303,0.015-0.453c0.003-0.053-0.021-0.109,0.021-0.156l-0.002,0.003c0.04-0.144-0.015-0.294,0.03-0.438
			c0.033-0.376,0.081-0.752,0.096-1.129c0.02-0.46,0.335-0.665,0.747-0.465c0.028,0.014,0.062,0.018,0.093,0.026
			c0.083,0.045,0.179-0.006,0.264,0.03c0.184,0.047,0.354,0.169,0.558,0.107c0.055,0.032,0.122-0.007,0.176,0.029
			c0.176,0.039,0.354,0.056,0.532,0.067c0.131,0.049,0.271-0.017,0.4,0.036l-0.001-0.001c0.39,0.024,0.78,0.026,1.17-0.001h-0.001
			c0.098-0.046,0.207,0.01,0.305-0.032c0.539-0.049,1.066-0.155,1.579-0.323c0.834-0.273,1.598-0.684,2.272-1.246
			c0.485-0.404,0.92-0.858,1.303-1.364c0.229-0.303,0.441-0.612,0.653-0.925c0.186-0.272,0.337-0.567,0.51-0.85
			c0.188-0.308,0.358-0.626,0.53-0.944c0.033-0.062,0.029-0.138,0.082-0.188c0.092-0.051,0.192-0.042,0.293-0.042
			c1.964,0,3.929,0,5.893-0.001c0.081,0,0.169,0.023,0.232-0.055c0.034-0.074,0.025-0.153,0.025-0.23c0-6.1,0-12.2,0-18.299
			c0-0.039-0.002-0.078-0.001-0.117c0.005-0.112-0.047-0.163-0.159-0.161c-0.072,0.001-0.145-0.001-0.217-0.001
			c-7.839,0-15.678,0-23.516-0.002c-0.12,0-0.247,0.031-0.353-0.057c-0.166-0.184-0.323-0.378-0.5-0.551
			c-0.588-0.574-1.237-1.067-1.98-1.464c0.071-0.036,0.135-0.021,0.196-0.021c4.837-0.001,9.673-0.001,14.511-0.001
			c4.631,0,9.262,0.002,13.893,0.003c0.225,0,0.222,0,0.227,0.221c0.003,0.176-0.015,0.354,0.016,0.529
			c0,6.964-0.001,13.928-0.001,20.893c0,0.294-0.043,0.596,0.006,0.881c0.155,0.92,0.027,1.843,0.07,2.764
			c0.015,0.338,0.007,0.678-0.007,1.016c-0.007,0.168-0.111,0.307-0.213,0.433c-0.342,0.429-0.694,0.85-1.038,1.276
			c-0.442,0.549-0.88,1.103-1.321,1.651c-0.297,0.368-0.6,0.731-0.896,1.1c-0.347,0.431-0.688,0.866-1.034,1.296
			c-0.219,0.271-0.444,0.537-0.667,0.805c-0.067,0.079-0.153,0.11-0.261,0.109c-0.649-0.004-1.301,0.025-1.949-0.01
			c-0.658-0.036-1.318,0.014-1.974-0.031c-0.632-0.044-1.264,0.011-1.892-0.032c-0.67-0.047-1.341,0.011-2.008-0.035
			c-0.632-0.042-1.264,0.012-1.892-0.032c-0.659-0.046-1.318,0.011-1.976-0.034c-0.642-0.044-1.284,0.006-1.924-0.033
			C29.235,44.608,28.923,44.604,28.608,44.6z"/>
		<path fill-rule="evenodd" clip-rule="evenodd" fill="#D8CCFD" d="M22.165,13.896c3.733,0,7.466-0.001,11.198-0.001
			c4.3,0,8.599,0,12.898,0c0.213,0,0.213,0,0.213,0.214c0,6.177,0,12.354-0.002,18.53c0,0.069,0.025,0.145-0.026,0.209
			c-2.113,0.003-4.228,0-6.342,0.001c-0.038,0-0.077,0.006-0.114-0.014c0.076-0.282,0.15-0.563,0.139-0.862
			c-0.037-0.879-0.604-1.736-1.462-2.049c-0.779-0.283-1.506-0.188-2.185,0.286c-0.375,0.263-0.59,0.647-0.811,1.033
			c-0.313,0.547-0.64,1.086-1.008,1.598c-0.077,0.036-0.16,0.039-0.244,0.039c-2.198,0-4.396,0-6.595,0
			c-0.077,0-0.156,0.01-0.225-0.04c-0.376-0.554-0.768-1.097-1.264-1.551c-0.243-0.223-0.488-0.453-0.77-0.619
			c-0.229-0.136-0.508-0.186-0.768-0.262c-1.546-0.451-3.112-0.807-4.707-1.032c-0.691-0.099-1.386-0.169-2.083-0.214
			c-0.504-0.032-1.008-0.055-1.513-0.067c-0.059-0.063-0.05-0.144-0.05-0.22c-0.002-0.62-0.002-1.239,0-1.857
			c0-0.078-0.002-0.156,0.053-0.222c1.146-0.073,2.227-0.385,3.242-0.921c0.6-0.316,1.143-0.713,1.642-1.172
			c1.099-1.011,1.841-2.238,2.253-3.67c0.152-0.528,0.223-1.067,0.271-1.613c0.02-0.232,0.036-0.463,0.027-0.695
			c-0.048-1.184-0.307-2.316-0.843-3.38c-0.25-0.496-0.545-0.962-0.901-1.389C22.175,13.941,22.173,13.917,22.165,13.896z"/>
		<path fill-rule="evenodd" clip-rule="evenodd" d="M32.565,34.232c-0.266,0.032-0.529,0.081-0.795,0.091
			c-0.406,0.016-0.815,0.021-1.22-0.05c-0.07-0.013-0.144-0.006-0.216-0.008c-0.073-0.044-0.162,0.014-0.234-0.035l0.002,0.001
			c-0.052-0.031-0.109-0.007-0.164-0.018c-0.124-0.026-0.249-0.054-0.374-0.08c-0.048-0.042-0.115,0.006-0.164-0.033
			c-0.401-0.104-0.79-0.242-1.176-0.393c-0.145-0.057-0.227-0.147-0.285-0.268c-0.096-0.198-0.215-0.38-0.335-0.562
			c0.038-0.053,0.093-0.027,0.139-0.027c2.254-0.001,4.507-0.001,6.761,0c0.043,0,0.089-0.014,0.128,0.019
			c-0.279,0.428-0.623,0.785-1.078,1.033c-0.262,0.143-0.539,0.226-0.822,0.303C32.679,34.233,32.616,34.195,32.565,34.232z"/>
		<path fill-rule="evenodd" clip-rule="evenodd" d="M16.499,26.797c-0.001,0.767-0.001,1.533-0.002,2.299h0.001
			c-0.027,0.027-0.062,0.021-0.094,0.021c-0.62-0.006-1.239,0-1.857,0.066c-0.027,0.003-0.056,0.002-0.075-0.024
			c0-0.792-0.001-1.585-0.004-2.378c0-0.092,0.013-0.12,0.122-0.1C15.22,26.796,15.857,26.838,16.499,26.797z"/>
		<path fill-rule="evenodd" clip-rule="evenodd" fill="#6B4AE5" d="M34.632,32.87c-1.554-0.002-3.108-0.003-4.663-0.004
			c-0.722-0.001-1.443-0.001-2.166,0c-0.065,0.001-0.132,0.008-0.198,0.013c-0.001-0.013-0.003-0.025-0.004-0.038
			c2.354,0,4.709,0.001,7.063,0.001C34.653,32.852,34.643,32.861,34.632,32.87z"/>
		<path fill-rule="evenodd" clip-rule="evenodd" fill="#6B4AE5" d="M39.99,32.836c2.092,0.001,4.184,0.002,6.275,0.003
			c0.06,0,0.121,0.006,0.181,0.01c-0.033,0.031-0.074,0.017-0.111,0.017c-2.1,0.001-4.2,0.001-6.302,0
			c-0.021,0-0.044-0.002-0.065-0.004C39.976,32.853,39.983,32.845,39.99,32.836z"/>
		<path fill-rule="evenodd" clip-rule="evenodd" fill="#6B4AE5" d="M14.472,29.158c0.674-0.051,1.35-0.061,2.026-0.063
			c-0.04,0.058-0.101,0.038-0.153,0.036c-0.5-0.018-0.997,0.028-1.495,0.033C14.724,29.167,14.596,29.262,14.472,29.158z"/>
		<path fill-rule="evenodd" clip-rule="evenodd" fill="#6B4AE5" d="M32.734,38.734c-0.12,0.056-0.247,0.025-0.37,0.022
			c-0.267-0.006-0.535,0.033-0.8-0.021C31.954,38.734,32.345,38.734,32.734,38.734z"/>
		<path fill-rule="evenodd" clip-rule="evenodd" fill="#7C5FE8" d="M8.133,31.266c0.198-0.12,0.422-0.159,0.646-0.198
			c-0.215,0.077-0.431,0.155-0.646,0.232c-0.012-0.008-0.016-0.015-0.012-0.023C8.125,31.27,8.129,31.266,8.133,31.266z"/>
		<path fill-rule="evenodd" clip-rule="evenodd" fill="#7E61E8" d="M7.1,31.667c0.178-0.106,0.367-0.184,0.573-0.215
			C7.477,31.512,7.313,31.651,7.1,31.667L7.1,31.667z"/>
		<path fill-rule="evenodd" clip-rule="evenodd" fill="#6B4AE5" d="M28.672,40.468c-0.031,0.202,0.034,0.409-0.035,0.609
			C28.651,40.874,28.589,40.667,28.672,40.468z"/>
		<path fill-rule="evenodd" clip-rule="evenodd" fill="#7F63E9" d="M8.133,31.266c0,0.011,0,0.022,0,0.034
			c-0.112,0.02-0.206,0.104-0.333,0.081C7.906,31.327,8.012,31.278,8.133,31.266z"/>
		<path fill-rule="evenodd" clip-rule="evenodd" fill="#795BE8" d="M26.3,31.7c-0.13-0.018-0.255-0.047-0.369-0.116
			C26.061,31.603,26.194,31.604,26.3,31.7L26.3,31.7z"/>
		<path fill-rule="evenodd" clip-rule="evenodd" fill="#8064E9" d="M7.1,31.667c-0.107,0.088-0.232,0.135-0.37,0.151
			C6.855,31.771,6.959,31.676,7.1,31.667L7.1,31.667z"/>
		<path fill-rule="evenodd" clip-rule="evenodd" fill="#7A5CE8" d="M26.3,31.699c0.132,0.012,0.248,0.072,0.368,0.118
			C26.533,31.815,26.405,31.795,26.3,31.699L26.3,31.699z"/>
		<path fill-rule="evenodd" clip-rule="evenodd" fill="#6B4AE5" d="M28.7,40.033c-0.024,0.146,0.023,0.295-0.03,0.438
			C28.682,40.325,28.629,40.175,28.7,40.033z"/>
		<path fill-rule="evenodd" clip-rule="evenodd" fill="#6B4AE5" d="M31.565,38.736c-0.132-0.024-0.271,0.031-0.4-0.036
			C31.299,38.719,31.438,38.66,31.565,38.736z"/>
		<path fill-rule="evenodd" clip-rule="evenodd" fill="#6B4AE5" d="M33.038,38.702c-0.096,0.066-0.204,0.011-0.305,0.032
			C32.829,38.665,32.937,38.714,33.038,38.702z"/>
		<path fill-rule="evenodd" clip-rule="evenodd" fill="#6B4AE5" d="M29.899,38.496c-0.087-0.022-0.181,0.017-0.264-0.03
			C29.723,38.48,29.817,38.437,29.899,38.496z"/>
		<path fill-rule="evenodd" clip-rule="evenodd" fill="#6B4AE5" d="M30.101,34.23c0.076,0.024,0.163-0.024,0.234,0.035
			C30.257,34.253,30.17,34.3,30.101,34.23z"/>
		<path fill-rule="evenodd" clip-rule="evenodd" fill="#6B4AE5" d="M29.4,34.101c0.056,0.007,0.117-0.017,0.164,0.033
			C29.509,34.125,29.446,34.155,29.4,34.101z"/>
		<path fill-rule="evenodd" clip-rule="evenodd" fill="#6B4AE5" d="M29.938,34.214c0.055,0.004,0.112-0.018,0.164,0.018
			C30.048,34.229,29.99,34.248,29.938,34.214z"/>
		<path fill-rule="evenodd" clip-rule="evenodd" fill="#6B4AE5" d="M32.565,34.232c0.051-0.036,0.111-0.014,0.166-0.026
			C32.683,34.253,32.621,34.227,32.565,34.232z"/>
		<path fill-rule="evenodd" clip-rule="evenodd" fill="#6B4AE5" d="M30.633,38.633c-0.058-0.015-0.122,0.007-0.176-0.029
			C30.517,38.606,30.583,38.577,30.633,38.633z"/>
	</g>
</g>
</svg>
