<?xml version="1.0" encoding="utf-8"?>
<!-- Generator: Adobe Illustrator 16.0.0, SVG Export Plug-In . SVG Version: 6.00 Build 0)  -->
<!DOCTYPE svg PUBLIC "-//W3C//DTD SVG 1.1//EN" "http://www.w3.org/Graphics/SVG/1.1/DTD/svg11.dtd">
<svg version="1.1" id="Layer_1" xmlns="http://www.w3.org/2000/svg" xmlns:xlink="http://www.w3.org/1999/xlink" x="0px" y="0px"
	 width="50px" height="50px" viewBox="0 0 50 50" enable-background="new 0 0 50 50" xml:space="preserve">
<g>
	<g>
		<path fill-rule="evenodd" clip-rule="evenodd" fill="#FCFCFC" d="M0.033,25.033c0-8.284,0-16.566-0.003-24.85
			c0-0.125,0.028-0.153,0.153-0.153c16.566,0.003,33.133,0.003,49.699,0c0.125,0,0.153,0.028,0.153,0.153
			c-0.003,16.566-0.003,33.133,0,49.7c0,0.125-0.027,0.153-0.153,0.153c-16.565-0.003-33.133-0.003-49.699,0
			c-0.125,0-0.153-0.027-0.153-0.153C0.034,41.6,0.033,33.317,0.033,25.033z"/>
		<path fill-rule="evenodd" clip-rule="evenodd" fill="#D7CBFD" d="M24.8,32.028c0-0.797,0-1.593,0-2.39
			c0.061-0.07,0.146-0.074,0.229-0.079c1.488-0.1,2.804-0.637,3.949-1.587c0.992-0.824,1.699-1.85,2.125-3.069
			c0.284-0.811,0.413-1.649,0.381-2.503c-0.036-0.946-0.248-1.855-0.656-2.717c-0.62-1.309-1.559-2.329-2.801-3.06
			c-0.812-0.477-1.691-0.78-2.634-0.886c-0.176-0.02-0.356-0.004-0.527-0.063c-0.026-0.01-0.051-0.022-0.065-0.047
			c0-3.683,0-7.366,0-11.049c0-0.271-0.03-0.245,0.236-0.245c6.811,0,13.621,0,20.433,0c0.231,0,0.231,0,0.231,0.233
			c0,13.411,0,26.82,0,40.23c0,0.267,0.025,0.235-0.245,0.235c-3.35,0.001-6.7,0.001-10.05,0.002
			c-0.054-0.044-0.055-0.106-0.059-0.167c-0.005-0.078-0.002-0.155-0.002-0.233c0-4.075,0-8.151,0-12.227
			c0-0.318,0-0.318-0.317-0.318c-3.304,0-6.607,0-9.911-0.002C25.009,32.087,24.892,32.117,24.8,32.028z"/>
		<path fill-rule="evenodd" clip-rule="evenodd" d="M24.8,32.028c0.066,0.001,0.133,0.005,0.199,0.005
			c3.41,0,6.818,0.001,10.226-0.004c0.148,0,0.179,0.036,0.179,0.181c-0.004,4.208-0.003,8.416-0.003,12.624
			c0,0.067,0.003,0.134,0.005,0.2c-0.009,0.023,0.002,0.06-0.037,0.063c-0.039,0.003-0.077,0.002-0.116,0.002
			c-3.468,0-6.935,0-10.402,0c-0.039,0-0.077-0.003-0.116-0.005c-0.073-0.078-0.055-0.178-0.055-0.271
			c-0.002-0.683-0.001-1.366-0.001-2.049c0-3.473,0-6.945,0.001-10.417c0-0.108-0.027-0.225,0.055-0.32
			C24.756,32.035,24.777,32.031,24.8,32.028z"/>
		<path fill-rule="evenodd" clip-rule="evenodd" fill="#6C4BE5" d="M24.734,32.038c0,4.353,0,8.704,0,13.057
			c-0.055,0.002-0.111,0.005-0.166,0.005c-2.994,0-5.987-0.001-8.98,0.004c-0.149,0-0.191-0.035-0.191-0.189
			c0.005-4.231,0.005-8.463,0-12.695c0-0.153,0.042-0.188,0.191-0.188c2.994,0.004,5.987,0.003,8.98,0.004
			C24.623,32.034,24.679,32.037,24.734,32.038z"/>
		<path fill-rule="evenodd" clip-rule="evenodd" fill="#6C4BE5" d="M24.734,29.628c-0.606,0.02-1.201-0.058-1.793-0.188
			c-0.82-0.182-1.573-0.513-2.269-0.975c-0.742-0.493-1.367-1.108-1.88-1.843c-0.48-0.688-0.818-1.438-1.034-2.244
			c-0.108-0.406-0.165-0.822-0.199-1.242c-0.019-0.237-0.037-0.475-0.023-0.71c0.048-0.871,0.21-1.715,0.558-2.524
			c0.296-0.689,0.686-1.317,1.175-1.878c0.358-0.41,0.766-0.775,1.213-1.093c0.707-0.501,1.48-0.854,2.314-1.075
			c0.4-0.106,0.811-0.161,1.227-0.194c0.237-0.019,0.473-0.028,0.71-0.022c0.068,0.074,0.053,0.167,0.053,0.253
			c0.002,0.628,0.001,1.255,0.001,1.883c0,3.839,0,7.677-0.002,11.516C24.787,29.404,24.817,29.526,24.734,29.628z"/>
		<path fill-rule="evenodd" clip-rule="evenodd" d="M24.734,29.628c0-4.663,0-9.326,0-13.989c0.021-0.003,0.043-0.007,0.065-0.011
			c0.725,0.076,1.445,0.168,2.134,0.435c0.702,0.273,1.356,0.622,1.947,1.094c0.29,0.232,0.56,0.483,0.809,0.754
			c0.525,0.573,0.948,1.211,1.253,1.934c0.187,0.442,0.347,0.889,0.44,1.358c0.056,0.282,0.102,0.566,0.119,0.855
			c0.012,0.197,0.038,0.393,0.032,0.592c-0.025,0.95-0.191,1.867-0.575,2.744c-0.28,0.638-0.638,1.221-1.087,1.753
			c-0.674,0.798-1.483,1.419-2.434,1.851c-0.579,0.262-1.179,0.456-1.814,0.542c-0.275,0.037-0.553,0.044-0.824,0.1
			C24.777,29.636,24.756,29.632,24.734,29.628z"/>
		<path fill-rule="evenodd" clip-rule="evenodd" fill="#6C4BE5" d="M9.231,6.434c1.167,0.011,2.109,0.933,2.099,2.122
			c-0.01,1.143-0.927,2.086-2.126,2.076c-1.125-0.01-2.087-0.936-2.068-2.136C7.153,7.373,8.069,6.444,9.231,6.434z"/>
		<path fill-rule="evenodd" clip-rule="evenodd" fill="#6C4BE5" d="M9.235,15.533c-1.156-0.006-2.111-0.942-2.1-2.124
			c0.011-1.13,0.937-2.092,2.131-2.073c1.131,0.017,2.083,0.926,2.063,2.138C11.311,14.604,10.408,15.517,9.235,15.533z"/>
		<path fill-rule="evenodd" clip-rule="evenodd" fill="#6C4BE5" d="M9.239,16.567c1.158,0.015,2.105,0.933,2.091,2.13
			c-0.013,1.135-0.926,2.082-2.134,2.067c-1.116-0.013-2.083-0.935-2.06-2.144C7.157,17.506,8.068,16.574,9.239,16.567z"/>
		<path fill-rule="evenodd" clip-rule="evenodd" fill="#6C4BE5" d="M42.233,8.529c-0.01,1.169-0.935,2.108-2.119,2.102
			c-1.137-0.006-2.093-0.938-2.079-2.126c0.013-1.126,0.938-2.09,2.137-2.068C41.306,6.457,42.216,7.36,42.233,8.529z"/>
		<path fill-rule="evenodd" clip-rule="evenodd" fill="#6C4BE5" d="M40.134,15.533c-1.157-0.007-2.103-0.942-2.099-2.108
			c0.003-1.145,0.94-2.108,2.133-2.089c1.134,0.019,2.074,0.927,2.062,2.123C42.219,14.604,41.306,15.519,40.134,15.533z"/>
		<path fill-rule="evenodd" clip-rule="evenodd" fill="#6C4BE5" d="M38.033,18.653c0.014-1.142,0.941-2.098,2.123-2.084
			c1.143,0.013,2.088,0.929,2.074,2.127c-0.014,1.136-0.928,2.083-2.135,2.067C38.975,20.75,38.036,19.829,38.033,18.653z"/>
	</g>
</g>
</svg>
