<?xml version="1.0" encoding="utf-8"?>
<!-- Generator: Adobe Illustrator 16.0.0, SVG Export Plug-In . SVG Version: 6.00 Build 0)  -->
<!DOCTYPE svg PUBLIC "-//W3C//DTD SVG 1.1//EN" "http://www.w3.org/Graphics/SVG/1.1/DTD/svg11.dtd">
<svg version="1.1" id="Layer_1" xmlns="http://www.w3.org/2000/svg" xmlns:xlink="http://www.w3.org/1999/xlink" x="0px" y="0px"
	 width="19px" height="10px" viewBox="0 0 19 10" enable-background="new 0 0 19 10" xml:space="preserve">
<g>
	<path fill-rule="evenodd" clip-rule="evenodd" fill="#31255C" d="M13.339,0.018c1.871,0,3.742,0,5.613-0.001
		c0.061,0,0.072,0.012,0.072,0.073C19.022,3.393,19.023,6.696,19.023,10c-0.031,0.017-0.064,0.009-0.097,0.009
		c-3.504,0-7.009,0-10.514,0C8.337,9.996,8.364,9.947,8.384,9.911c0.083-0.15,0.125-0.314,0.162-0.48
		c0.013-0.031,0.046-0.056,0.029-0.096c0.016-0.355,0.044-0.71,0.168-1.046c0.085-0.233,0.23-0.431,0.41-0.603
		c0.096-0.092,0.19-0.185,0.302-0.259c0.263-0.176,0.535-0.337,0.813-0.486c0.205-0.109,0.402-0.228,0.555-0.407
		c0.282-0.332,0.441-0.707,0.419-1.152c-0.008-0.171-0.029-0.343-0.021-0.514c0.01-0.192-0.001-0.387,0.039-0.574
		c0.055-0.252,0.153-0.487,0.327-0.688c0.147-0.17,0.293-0.34,0.474-0.476c0.098-0.072,0.2-0.137,0.301-0.204
		c0.056-0.037,0.1-0.081,0.142-0.131c0.183-0.225,0.33-0.468,0.376-0.761c0.021-0.127,0.019-0.255-0.009-0.379
		c-0.077-0.34-0.039-0.677,0.039-1.009c0.046-0.193,0.136-0.372,0.266-0.525C13.218,0.069,13.282,0.048,13.339,0.018z"/>
	<path fill-rule="evenodd" clip-rule="evenodd" fill="#593FB7" d="M7.158,0.018c0.977,0,1.954,0,2.931,0
		c0.029,0.073-0.021,0.128-0.054,0.178C9.881,0.424,9.878,0.671,9.93,0.928C9.951,1.035,9.975,1.14,9.971,1.251
		C9.963,1.516,9.86,1.733,9.677,1.921c-0.158,0.163-0.353,0.274-0.53,0.411C8.936,2.496,8.721,2.659,8.559,2.877
		C8.444,3.033,8.399,3.211,8.39,3.4C8.387,3.447,8.392,3.495,8.379,3.541C8.327,3.613,8.324,3.685,8.378,3.757
		c0.028,0.172,0.053,0.346,0.01,0.519C8.306,4.609,8.149,4.9,7.859,5.098C7.718,5.194,7.564,5.272,7.415,5.355
		C7.149,5.501,6.913,5.688,6.688,5.888C6.65,5.921,6.622,5.964,6.594,6.005C6.476,6.181,6.415,6.373,6.397,6.584
		C6.381,6.787,6.354,6.988,6.309,7.188C6.223,7.571,5.984,7.812,5.635,7.964C5.389,8.07,5.143,8.176,4.92,8.332
		C4.754,8.448,4.625,8.595,4.524,8.766C4.439,8.909,4.412,9.076,4.376,9.237C4.347,9.373,4.324,9.51,4.295,9.646
		C4.286,9.67,4.271,9.692,4.271,9.72c-0.034,0.093-0.016,0.202-0.091,0.282c-0.028,0.013-0.059,0.007-0.088,0.007
		c-1.317,0-2.634,0-3.952,0c-0.111,0-0.13-0.024-0.066-0.122c0.079-0.12,0.159-0.242,0.255-0.351
		c0.174-0.198,0.372-0.371,0.595-0.516c0.201-0.13,0.291-0.324,0.332-0.551c0.037-0.198,0.002-0.396-0.002-0.593
		C1.25,7.667,1.347,7.514,1.498,7.378C1.751,7.15,2.048,6.99,2.332,6.809c0.389-0.25,0.629-0.586,0.65-1.065
		C2.991,5.531,2.988,5.317,3.03,5.107c0.052-0.258,0.208-0.448,0.406-0.613c0.124-0.103,0.257-0.188,0.395-0.27
		c0.252-0.148,0.505-0.296,0.766-0.428c0.278-0.14,0.355-0.378,0.369-0.658c0.007-0.148-0.022-0.294-0.042-0.441
		C4.896,2.505,4.946,2.339,5.076,2.191C5.223,2.023,5.417,1.93,5.605,1.825c0.204-0.113,0.432-0.179,0.63-0.303
		C6.461,1.381,6.655,1.205,6.759,0.95C6.806,0.836,6.819,0.714,6.83,0.594c0.016-0.178,0.095-0.327,0.191-0.47
		C7.056,0.072,7.104,0.042,7.158,0.018z"/>
	<path fill-rule="evenodd" clip-rule="evenodd" fill="#4A3889" d="M4.262,9.644c0.037-0.281,0.079-0.564,0.191-0.826
		C4.545,8.602,4.702,8.43,4.9,8.293c0.216-0.148,0.45-0.261,0.691-0.355c0.43-0.17,0.652-0.488,0.713-0.934
		C6.335,6.779,6.347,6.55,6.397,6.329c0.045-0.198,0.147-0.375,0.311-0.512c0.135-0.114,0.27-0.228,0.415-0.331
		c0.203-0.144,0.429-0.248,0.639-0.379C8.023,4.945,8.193,4.72,8.298,4.429c0.08-0.221,0.067-0.439,0.049-0.663
		c-0.026-0.078-0.026-0.155,0-0.232C8.339,3.277,8.375,3.029,8.545,2.825c0.107-0.129,0.231-0.241,0.36-0.35
		c0.14-0.119,0.287-0.227,0.437-0.331c0.11-0.076,0.213-0.158,0.306-0.254c0.24-0.247,0.334-0.535,0.256-0.875
		c-0.055-0.239-0.082-0.48,0.024-0.713c0.045-0.099,0.106-0.189,0.161-0.284c1.083,0,2.167,0,3.25,0
		c-0.075,0.094-0.175,0.165-0.236,0.274c-0.112,0.202-0.176,0.417-0.207,0.645c-0.036,0.263-0.018,0.521,0.024,0.783
		c0.053,0.323-0.053,0.613-0.227,0.889c-0.149,0.235-0.355,0.393-0.584,0.541c-0.183,0.119-0.323,0.29-0.466,0.458
		c-0.251,0.295-0.357,0.631-0.371,1.016c-0.01,0.279,0.017,0.554,0.015,0.832c-0.002,0.306-0.076,0.592-0.247,0.855
		c-0.134,0.204-0.286,0.387-0.489,0.518c-0.191,0.122-0.397,0.221-0.592,0.339c-0.252,0.151-0.507,0.298-0.729,0.5
		C8.869,7.995,8.7,8.409,8.65,8.883C8.634,9.036,8.625,9.189,8.614,9.342C8.586,9.366,8.607,9.408,8.58,9.433
		C8.563,9.638,8.482,9.82,8.384,9.997c-0.026,0.021-0.057,0.012-0.085,0.012c-1.347,0-2.693,0-4.039,0
		c-0.029,0-0.06,0.01-0.085-0.012c0.018-0.1,0.036-0.199,0.054-0.299C4.246,9.684,4.245,9.658,4.262,9.644z"/>
	<path fill-rule="evenodd" clip-rule="evenodd" fill="#3E2F75" d="M8.58,9.433C8.581,9.398,8.57,9.36,8.614,9.342
		C8.613,9.376,8.624,9.414,8.58,9.433z"/>
	<path fill-rule="evenodd" clip-rule="evenodd" fill="#513BA0" d="M8.347,3.534c0,0.077,0,0.155,0,0.232
		C8.297,3.704,8.298,3.595,8.347,3.534z"/>
	<path fill-rule="evenodd" clip-rule="evenodd" fill="#4F3A9B" d="M4.262,9.644c0,0.026-0.007,0.047-0.034,0.055
		C4.228,9.673,4.235,9.652,4.262,9.644z"/>
</g>
</svg>
