<?xml version="1.0" encoding="utf-8"?>
<!-- Generator: Adobe Illustrator 16.0.0, SVG Export Plug-In . SVG Version: 6.00 Build 0)  -->
<!DOCTYPE svg PUBLIC "-//W3C//DTD SVG 1.1//EN" "http://www.w3.org/Graphics/SVG/1.1/DTD/svg11.dtd">
<svg version="1.1" id="Layer_1" xmlns="http://www.w3.org/2000/svg" xmlns:xlink="http://www.w3.org/1999/xlink" x="0px" y="0px"
	 width="4px" height="10px" viewBox="0 0 4 10" enable-background="new 0 0 4 10" xml:space="preserve">
<g>
	<path fill-rule="evenodd" clip-rule="evenodd" fill="#6C4BE5" d="M1.151,6.529c0.007-0.042-0.002-0.094-0.004-0.145
		C1.143,6.254,1.162,6.126,1.172,5.997c0.013-0.176,0.04-0.351,0.058-0.526c0.008-0.08,0.01-0.161,0.023-0.241
		c0.006-0.037,0.021-0.073,0.017-0.112c-0.002-0.013,0.002-0.03-0.015-0.031c-0.012,0-0.022,0.013-0.025,0.027
		C1.216,5.188,1.198,5.262,1.192,5.337C1.188,5.383,1.176,5.428,1.177,5.475c0,0.021-0.007,0.029-0.03,0.035
		c-0.096,0.027-0.193,0.013-0.29,0.009c-0.031-0.001-0.02-0.023-0.021-0.04c-0.002-0.166,0.045-0.322,0.084-0.48
		c0.028-0.114,0.081-0.214,0.154-0.306c0.071-0.09,0.165-0.142,0.268-0.181c0.054-0.021,0.109-0.038,0.164-0.056
		c0.031-0.01,0.059-0.01,0.088,0.012C1.635,4.499,1.68,4.523,1.734,4.528C1.768,4.532,1.796,4.55,1.823,4.576
		C1.895,4.646,1.99,4.668,2.085,4.69C2.104,4.694,2.123,4.697,2.143,4.7C2.151,4.701,2.156,4.703,2.16,4.713
		c0.063,0.175,0.166,0.326,0.266,0.48c0.063,0.1,0.129,0.195,0.213,0.278c0.021,0.02,0.016,0.04,0.019,0.063
		c0.009,0.085,0.024,0.169,0.035,0.254c0.016,0.141,0.038,0.28,0.04,0.423C2.734,6.308,2.741,6.404,2.753,6.5
		c0.006,0.055-0.021,0.086-0.06,0.107C2.55,6.685,2.403,6.748,2.235,6.754C2.123,6.758,2.01,6.758,1.898,6.765
		C1.751,6.773,1.606,6.757,1.46,6.758c-0.083,0-0.163-0.02-0.236-0.064C1.149,6.648,1.148,6.65,1.151,6.529z"/>
	<path fill-rule="evenodd" clip-rule="evenodd" d="M1.78,9.142c-0.067-0.03-0.133-0.061-0.21-0.033
		c-0.027,0.01-0.042-0.004-0.051-0.034c-0.09-0.286-0.149-0.579-0.199-0.875C1.288,8.017,1.261,7.832,1.237,7.648
		c-0.02-0.15-0.029-0.302-0.047-0.451C1.174,7.073,1.159,6.95,1.162,6.825c0-0.026-0.018-0.051-0.004-0.08
		C1.189,6.754,1.21,6.783,1.238,6.8c0.071,0.043,0.15,0.063,0.229,0.066c0.101,0.005,0.201,0.028,0.302,0.022
		c0.096-0.007,0.192,0.003,0.288-0.002C2.21,6.878,2.367,6.879,2.515,6.822c0.071-0.027,0.142-0.058,0.208-0.095
		c0.011-0.006,0.021-0.011,0.034-0.012C2.749,6.947,2.744,7.179,2.732,7.409C2.724,7.556,2.706,7.701,2.689,7.847
		c-0.016,0.14-0.03,0.281-0.055,0.42c-0.022,0.125-0.047,0.25-0.077,0.375C2.538,8.721,2.514,8.804,2.532,8.89
		C2.54,8.923,2.494,8.938,2.497,8.972c0.001,0.007-0.015,0.009-0.008,0.02C2.515,9.032,2.481,9.04,2.455,9.05
		C2.383,9.076,2.31,9.1,2.249,9.149C2.219,9.197,2.17,9.223,2.125,9.251C2.098,9.269,2.068,9.25,2.06,9.215
		C2.054,9.19,2.057,9.165,2.056,9.141C2.032,8.845,2.028,8.548,2.037,8.252c0.005-0.187,0.004-0.373,0.009-0.56
		c0.002-0.055,0.011-0.108-0.002-0.164C2.039,7.507,2.033,7.499,2.009,7.499c-0.095,0.002-0.087,0.002-0.096,0.1
		c-0.013,0.147,0,0.293,0.004,0.439C1.921,8.2,1.931,8.363,1.946,8.526c0.019,0.202,0.029,0.404,0.049,0.606
		C1.995,9.166,2.014,9.197,2,9.23C1.992,9.249,1.982,9.274,1.958,9.255C1.907,9.214,1.849,9.188,1.792,9.157
		C1.786,9.154,1.783,9.147,1.78,9.142z"/>
	<path fill-rule="evenodd" clip-rule="evenodd" fill="#C2B0FA" d="M1.669,2.004c0.006-0.146,0.027-0.29,0.041-0.435
		c0.003-0.034,0.021-0.049,0.05-0.061C1.801,1.49,1.847,1.489,1.889,1.478C2,1.445,2.104,1.395,2.158,1.282
		c0.022-0.047,0.047-0.094,0.056-0.148c0.013-0.076-0.012-0.137-0.078-0.176c-0.106-0.063-0.21-0.023-0.313,0.011
		C1.737,0.998,1.666,1.048,1.624,1.132c-0.008,0.017-0.021,0.02-0.037,0.018C1.568,1.146,1.562,1.13,1.561,1.116
		C1.56,1.065,1.553,1.011,1.564,0.962C1.585,0.87,1.578,0.777,1.59,0.685C1.598,0.623,1.61,0.561,1.626,0.5
		c0.012-0.048,0.051-0.078,0.093-0.099c0.121-0.06,0.246-0.103,0.384-0.105C2.178,0.295,2.251,0.29,2.326,0.299
		C2.537,0.325,2.731,0.511,2.771,0.72C2.798,0.857,2.758,0.982,2.71,1.103C2.621,1.327,2.48,1.52,2.318,1.697
		C2.313,1.702,2.31,1.709,2.304,1.711C2.213,1.737,2.242,1.817,2.232,1.878C2.225,1.922,2.23,1.968,2.229,2.013
		c0,0.043-0.014,0.072-0.063,0.08C2.018,2.114,1.87,2.138,1.722,2.16C1.683,2.166,1.667,2.148,1.669,2.109
		C1.671,2.074,1.669,2.039,1.669,2.004z"/>
	<path fill-rule="evenodd" clip-rule="evenodd" fill="#C5BCE1" d="M2.068,9.149c0.007,0.033-0.014,0.079,0.025,0.095
		C2.129,9.26,2.149,9.215,2.177,9.198c0.024-0.016,0.049-0.032,0.072-0.049c0.047,0,0.094,0.001,0.142,0.001
		c0.002,0.01-0.004,0.016-0.012,0.02c-0.066,0.033-0.12,0.082-0.171,0.136C2.194,9.318,2.179,9.328,2.162,9.335
		C2.13,9.351,2.114,9.376,2.116,9.411c0.003,0.038,0.02,0.067,0.059,0.079C2.206,9.5,2.239,9.506,2.272,9.507
		c0.092,0.002,0.183-0.001,0.274,0.004c0.063,0.004,0.126-0.013,0.182-0.047c0.077-0.046,0.088-0.115,0.028-0.183
		C2.729,9.248,2.698,9.218,2.66,9.195C2.646,9.188,2.628,9.182,2.629,9.16c0.224,0.021,0.447,0.041,0.666,0.091
		c0.145,0.033,0.293,0.061,0.414,0.158C3.772,9.46,3.771,9.52,3.707,9.572C3.592,9.666,3.45,9.693,3.313,9.726
		C3.128,9.77,2.939,9.792,2.75,9.81C2.509,9.831,2.266,9.832,2.023,9.831c-0.14-0.001-0.279,0-0.418-0.012
		c-0.311-0.027-0.622-0.055-0.92-0.156C0.621,9.641,0.562,9.613,0.51,9.57c-0.06-0.049-0.06-0.111,0-0.161
		c0.105-0.087,0.234-0.114,0.36-0.146c0.146-0.037,0.294-0.058,0.444-0.073c0.062-0.006,0.125-0.013,0.187-0.019
		C1.5,9.192,1.48,9.194,1.467,9.202C1.414,9.236,1.36,9.271,1.317,9.317c-0.061,0.065-0.044,0.131,0.04,0.155
		C1.41,9.487,1.464,9.495,1.52,9.498c0.088,0.004,0.175,0.006,0.263-0.001c0.03-0.002,0.06-0.003,0.089-0.011
		c0.083-0.021,0.109-0.105,0.051-0.169C1.88,9.271,1.825,9.242,1.766,9.224C1.725,9.21,1.683,9.2,1.641,9.188
		C1.625,9.184,1.603,9.186,1.599,9.161c0.061-0.004,0.123,0.007,0.181-0.02c0.068,0.032,0.142,0.055,0.193,0.116
		c0.023-0.035,0.023-0.035,0.009-0.108C2.011,9.13,2.039,9.13,2.068,9.149z"/>
	<path fill-rule="evenodd" clip-rule="evenodd" fill="#6C4BE5" d="M1.574,4.355C1.433,4.286,1.331,4.192,1.259,4.064
		C1.144,3.857,1.138,3.641,1.239,3.433c0.101-0.208,0.27-0.34,0.507-0.377c0.139-0.022,0.269-0.007,0.395,0.052
		c0.019,0.009,0.033,0.011,0.054-0.01C2.269,3.02,2.342,2.94,2.414,2.861C2.445,2.827,2.483,2.8,2.532,2.813
		C2.574,2.823,2.597,2.857,2.604,2.9C2.611,2.948,2.58,2.98,2.552,3.011c-0.061,0.066-0.123,0.13-0.186,0.194
		C2.346,3.226,2.34,3.241,2.363,3.267c0.131,0.15,0.192,0.324,0.177,0.524C2.538,3.822,2.533,3.853,2.527,3.883
		c-0.005,0.021-0.014,0.04-0.04,0.042c-0.099,0.01-0.152,0.08-0.203,0.153c-0.019,0.028-0.028,0.072-0.06,0.08
		C2.166,4.172,2.102,4.183,2.043,4.162C1.946,4.127,1.844,4.12,1.745,4.1C1.62,4.075,1.524,4.213,1.574,4.355z"/>
	<path fill-rule="evenodd" clip-rule="evenodd" fill="#6C4BE5" d="M3.05,5.61C2.932,5.603,2.831,5.555,2.746,5.473
		c-0.078-0.077-0.143-0.166-0.212-0.25C2.437,5.102,2.358,4.97,2.277,4.84C2.261,4.813,2.264,4.778,2.235,4.757
		c-0.012-0.009,0.003-0.021,0.008-0.03C2.288,4.649,2.352,4.59,2.428,4.544C2.503,4.499,2.5,4.503,2.568,4.568
		C2.653,4.649,2.74,4.727,2.829,4.804c0.118,0.101,0.243,0.194,0.353,0.305c0.081,0.083,0.116,0.184,0.127,0.294
		c0.007,0.066-0.039,0.141-0.101,0.17C3.158,5.596,3.108,5.619,3.05,5.61z"/>
	<path fill-rule="evenodd" clip-rule="evenodd" fill="#6C4BE5" d="M1.762,4.176c0.085,0.002,0.165,0.032,0.246,0.051
		C2.062,4.24,2.113,4.236,2.166,4.238c0.006,0,0.013-0.007,0.019-0.005c0.099,0.022,0.134-0.037,0.17-0.117
		c0.031-0.069,0.089-0.118,0.18-0.118c0.074,0,0.104,0.062,0.08,0.127C2.598,4.168,2.569,4.203,2.543,4.239
		C2.506,4.291,2.48,4.347,2.479,4.411c-0.001,0.017-0.007,0.023-0.02,0.03C2.387,4.479,2.324,4.532,2.271,4.595
		c-0.027,0.033-0.056,0.03-0.095,0.028c-0.08-0.004-0.154-0.028-0.229-0.048c-0.04-0.011-0.068-0.038-0.103-0.057
		C1.82,4.503,1.824,4.474,1.833,4.455C1.852,4.417,1.83,4.406,1.803,4.401C1.752,4.391,1.711,4.365,1.67,4.337
		C1.636,4.313,1.61,4.285,1.623,4.243c0.014-0.046,0.052-0.065,0.099-0.066C1.735,4.176,1.749,4.176,1.762,4.176z"/>
	<path fill-rule="evenodd" clip-rule="evenodd" fill="#6C4BE5" d="M1.08,6.896C0.995,6.779,0.951,6.641,0.913,6.501
		C0.88,6.387,0.859,6.269,0.846,6.149c-0.006-0.054,0-0.108-0.004-0.163C0.833,5.866,0.828,5.745,0.83,5.625
		C0.831,5.584,0.84,5.571,0.882,5.583c0.074,0.021,0.149,0.025,0.226,0.015C1.16,5.591,1.162,5.599,1.155,5.65
		c-0.011,0.075-0.021,0.15-0.032,0.226C1.088,6.113,1.086,6.353,1.08,6.592C1.078,6.693,1.08,6.796,1.08,6.896z"/>
	<path fill-rule="evenodd" clip-rule="evenodd" fill="#C2B0FA" d="M2.2,2.349c0.005,0.059,0.005,0.118,0.022,0.176
		c0.026,0.088,0.012,0.117-0.075,0.141C2.034,2.695,1.92,2.724,1.806,2.749C1.753,2.761,1.734,2.741,1.729,2.688
		C1.724,2.64,1.722,2.591,1.708,2.546C1.691,2.489,1.711,2.434,1.71,2.378c0-0.02,0.016-0.031,0.035-0.037
		C1.863,2.31,1.981,2.277,2.1,2.245c0.069-0.019,0.095-0.001,0.1,0.069C2.2,2.325,2.2,2.337,2.2,2.349z"/>
	<path fill-rule="evenodd" clip-rule="evenodd" d="M2.629,9.16c0.05,0.032,0.098,0.066,0.138,0.11
		c0.065,0.071,0.057,0.15-0.025,0.202C2.681,9.511,2.612,9.524,2.544,9.524C2.433,9.526,2.321,9.521,2.21,9.514
		C2.124,9.509,2.079,9.438,2.109,9.362c0.006-0.014,0.015-0.025,0.025-0.028C2.183,9.32,2.212,9.283,2.244,9.251
		C2.286,9.207,2.339,9.18,2.391,9.15c0.032,0.002,0.06-0.021,0.093-0.02C2.533,9.133,2.584,9.13,2.629,9.16z"/>
	<path fill-rule="evenodd" clip-rule="evenodd" d="M1.599,9.161c0.081,0.03,0.17,0.036,0.246,0.08
		c0.049,0.029,0.101,0.057,0.118,0.118c0.02,0.07-0.021,0.134-0.093,0.144C1.734,9.52,1.599,9.518,1.463,9.509
		C1.422,9.506,1.38,9.491,1.34,9.479c-0.083-0.028-0.1-0.1-0.039-0.166c0.057-0.062,0.127-0.104,0.2-0.142
		C1.533,9.157,1.566,9.159,1.599,9.161z"/>
	<path fill-rule="evenodd" clip-rule="evenodd" fill="#FEFEFE" d="M2.068,9.149c-0.029,0-0.058,0-0.087,0
		C1.967,9.013,1.958,8.875,1.949,8.737C1.94,8.604,1.919,8.47,1.915,8.336C1.912,8.238,1.902,8.142,1.901,8.045
		C1.898,7.886,1.888,7.728,1.899,7.568C1.901,7.54,1.872,7.505,1.9,7.486c0.019-0.013,0.055-0.002,0.083,0
		c0.025,0.001,0.047-0.015,0.075-0.009C2.051,7.543,2.064,7.612,2.063,7.683C2.062,7.971,2.045,8.258,2.05,8.545
		c0.002,0.087-0.007,0.174,0.002,0.26C2.064,8.92,2.055,9.035,2.068,9.149z"/>
	<path fill-rule="evenodd" clip-rule="evenodd" fill="#FEFDFE" d="M1.469,3.629C1.573,3.62,1.676,3.604,1.78,3.608
		c0.023,0.001,0.055-0.01,0.057,0.03C1.838,3.677,1.81,3.687,1.781,3.687c-0.027,0-0.037,0.007-0.04,0.035
		C1.734,3.784,1.682,3.83,1.625,3.831c-0.062,0.001-0.132-0.045-0.14-0.103C1.48,3.691,1.467,3.685,1.436,3.687
		c-0.011,0-0.023-0.002-0.035-0.006C1.39,3.677,1.38,3.668,1.382,3.655c0.002-0.011,0.009-0.021,0.023-0.022
		C1.427,3.632,1.448,3.623,1.469,3.629z"/>
	<path fill-rule="evenodd" clip-rule="evenodd" fill="#FEFDFE" d="M2.284,3.594c0.021,0,0.032,0,0.042,0
		c0.024,0,0.039,0.013,0.04,0.035c0,0.021-0.017,0.035-0.036,0.034C2.3,3.661,2.295,3.676,2.293,3.702
		C2.286,3.767,2.227,3.83,2.168,3.829c-0.071-0.001-0.112-0.03-0.131-0.11C2.029,3.688,2.024,3.667,1.986,3.672
		C1.97,3.674,1.954,3.665,1.954,3.648c0-0.019,0.021-0.022,0.033-0.024C2.09,3.613,2.193,3.603,2.284,3.594z"/>
</g>
</svg>
